<svg width="48" height="48" viewBox="0 0 48 48" fill="none" xmlns="http://www.w3.org/2000/svg">
<g clip-path="url(#clip0)">
<path d="M5.40002 30.9L11.4 25.5L10.8 23.4L3.00002 27L0.900024 30.3V39.6H5.40002V30.9Z" fill="#F41B72"/>
<path d="M31.7502 20.3289C31.8009 20.1557 31.8509 19.9877 31.9021 19.8236C32.683 20.1386 33.4904 20.327 34.3172 20.4202C35.0414 20.5076 35.7752 20.4335 36.4766 20.1567C37.2505 19.8514 37.821 19.221 37.9375 18.4165C38.0543 17.6102 37.6838 16.844 37.0221 16.3377L37.0222 16.3376L37.0111 16.3294C36.6327 16.048 36.2202 15.8508 35.8512 15.6974L35.8512 15.6973L35.8409 15.6932C35.5133 15.5612 35.2123 15.45 34.9284 15.3451C34.3578 15.1343 33.8565 14.9492 33.3486 14.6728C32.2064 14.0339 31.7222 13.3245 31.7839 12.3692C31.83 11.7241 32.0417 11.2492 32.3679 10.8805C32.7048 10.4998 33.2161 10.1746 33.9431 9.93277L33.6275 8.98388C33.6414 8.9793 33.655 8.97481 33.6683 8.97042C34.3247 8.7535 34.3351 8.75005 34.3351 8.09191C34.3351 8.0147 34.3339 7.93862 34.3327 7.8629C34.3303 7.71257 34.3279 7.56371 34.3351 7.41041C34.346 6.9093 34.444 6.8191 34.9883 6.80908M31.7502 20.3289L33.9416 9.93327C33.9572 9.92812 33.9731 9.92289 33.9892 9.91757C34.1306 9.87097 34.2907 9.81817 34.4223 9.76238C34.5722 9.69884 34.8187 9.57934 35.0179 9.33487C35.2298 9.07473 35.2917 8.79461 35.3151 8.60388C35.3352 8.43993 35.3352 8.25509 35.3351 8.10976C35.3351 8.10374 35.3351 8.09779 35.3351 8.09191C35.3351 7.97784 35.3336 7.88796 35.3322 7.80908H35.3313H35.3303H35.3293H35.3283H35.3273H35.3263H35.3253H35.3243H35.3233H35.3223H35.3213H35.3203H35.3194H35.3184H35.3174H35.3164H35.3154H35.3144H35.3134H35.3124H35.3114H35.3104H35.3094H35.3085H35.3075H35.3065H35.3055H35.3045H35.3035H35.3025H35.3015H35.3005H35.2995H35.2985H35.2976H35.2966H35.2956H35.2946H35.2936H35.2926H35.2916H35.2906H35.2896H35.2886H35.2877H35.2867H35.2857H35.2847H35.2837H35.2827H35.2817H35.2807H35.2797H35.2788H35.2778H35.2768H35.2758H35.2748H35.2738H35.2728H35.2718H35.2708H35.2699H35.2689H35.2679H35.2669H35.2659H35.2649H35.2639H35.2629H35.2619H35.261H35.26H35.259H35.258H35.257H35.256H35.255H35.254H35.253H35.2521H35.2511H35.2501H35.2491H35.2481H35.2471H35.2461H35.2451H35.2441H35.2432H35.2422H35.2412H35.2402H35.2392H35.2382H35.2372H35.2362H35.2352H35.2343H35.2333H35.2323H35.2313H35.2303H35.2293H35.2283H35.2273H35.2263H35.2254H35.2244H35.2234H35.2224H35.2214H35.2204H35.2194H35.2184H35.2174H35.2165H35.2155H35.2145H35.2135H35.2125H35.2115H35.2105H35.2095H35.2085H35.2076H35.2066H35.2056H35.2046H35.2036H35.2026H35.2016H35.2006H35.1996H35.1986H35.1977H35.1967H35.1957H35.1947H35.1937H35.1927H35.1917H35.1907H35.1897H35.1887H35.1878H35.1868H35.1858H35.1848H35.1838H35.1828H35.1818H35.1808H35.1798H35.1788H35.1779H35.1769H35.1759H35.1749H35.1739H35.1729H35.1719H35.1709H35.1699H35.1689H35.1679H35.1669H35.166H35.165H35.164H35.163H35.162H35.161H35.16H35.159H35.158H35.157H35.156H35.155H35.154H35.1531H35.1521H35.1511H35.1501H35.1491H35.1481H35.1471H35.1461H35.1451H35.1441H35.1431H35.1421H35.1411H35.1401H35.1391H35.1382H35.1372H35.1362H35.1352H35.1342H35.1332H35.1322H35.1312H35.1302H35.1292H35.1282H35.1272H35.1262H35.1252H35.1242H35.1232H35.1222H35.1212H35.1202H35.1192H35.1182H35.1172H35.1163H35.1153H35.1143H35.1133H35.1123H35.1113H35.1103H35.1093H35.1083H35.1073H35.1063H35.1053H35.1043H35.1033H35.1023H35.1013H35.1003H35.0993H35.0983H35.0973H35.0963H35.0953H35.0943H35.0933H35.0923H35.0913H35.0903H35.0893H35.0883H35.0873H35.0863H35.0853H35.0843H35.0833H35.0823H35.0813H35.0803H35.0793H35.0783H35.0773H35.0763H35.0753H35.0743H35.0733H35.0723H35.0713H35.0703H35.0692H35.0682H35.0672H35.0662H35.0652H35.0642H35.0632H35.0622H35.0612H35.0602H35.0592H35.0582H35.0572H35.0562H35.0552H35.0542H35.0532H35.0522H35.0512H35.0501H35.0491H35.0481H35.0471H35.0461H35.0451H35.0441H35.0431H35.0421H35.0411H35.0401H35.0391H35.038H35.037H35.036H35.035H35.034H35.033H35.032H35.031H35.03H35.0289H35.0279H35.0269H35.0259H35.0249H35.0239H35.0229H35.0219H35.0209H35.0198H35.0188H35.0178H35.0168H35.0158H35.0148H35.0138H35.0127H35.0117H35.0107H35.0097H35.0087H35.0077H35.0066H35.0056H35.0046H35.0036H35.0026H35.0016H35.0005H34.9995H34.9985H34.9981C34.9062 7.811 34.868 7.81544 34.8603 7.81633C34.8584 7.81655 34.8584 7.81655 34.8599 7.81623C34.8689 7.81439 34.9198 7.8034 34.9883 7.76771V7.44126V7.4246V6.80908M31.7502 20.3289C32.3283 20.5653 32.9598 20.7051 33.6561 20.8017L33.6625 20.8025L33.6625 20.8026C33.8057 20.8234 33.9872 20.85 34.1478 20.8946C34.3128 20.9403 34.5896 21.0384 34.8175 21.293C35.0506 21.5533 35.1151 21.845 35.139 22.0227C35.161 22.1865 35.161 22.3665 35.161 22.4986V22.5037C35.161 22.6249 35.161 22.7411 35.1619 22.8534L31.7502 20.3289ZM34.9883 6.80908L34.9997 7.42485L35 7.44181L35.0058 7.75827L39.2993 9.25448C38.7223 9.02397 38.1236 8.8536 37.4922 8.7634C36.6757 8.64313 36.6757 8.64313 36.6648 7.88146C36.6648 6.80908 36.6648 6.80908 35.5 6.80908H34.9883ZM38.9291 10.184C38.929 10.184 38.9274 10.1833 38.9246 10.1818C38.9277 10.1832 38.9291 10.1839 38.9291 10.184Z" stroke="#F41B72" stroke-width="2"/>
<path d="M25.0521 7.92196L25.0538 7.95575L25.0576 7.98832L25.0576 7.98837L25.0577 7.9887L25.0577 7.98934L25.058 7.99164L25.0601 8.01063C25.062 8.02874 25.0649 8.05759 25.0685 8.09648C25.0756 8.17428 25.0853 8.29206 25.0945 8.44409C25.1129 8.7485 25.1294 9.18822 25.1205 9.71786C25.1025 10.7835 24.9819 12.1819 24.5848 13.5649C24.187 14.9501 23.5289 16.2616 22.4767 17.227C21.445 18.1738 19.9606 18.8565 17.7617 18.8779H17.7616H17.7615H17.7615H17.7614H17.7613H17.7612H17.7611H17.7611H17.761H17.7609H17.7608H17.7607H17.7606H17.7606H17.7605H17.7604H17.7603H17.7602H17.7602H17.7601H17.76H17.7599H17.7598H17.7597H17.7597H17.7596H17.7595H17.7594H17.7593H17.7592H17.7591H17.7591H17.759H17.7589H17.7588H17.7587H17.7586H17.7585H17.7585H17.7584H17.7583H17.7582H17.7581H17.758H17.7579H17.7578H17.7577H17.7577H17.7576H17.7575H17.7574H17.7573H17.7572H17.7571H17.757H17.7569H17.7569H17.7568H17.7567H17.7566H17.7565H17.7564H17.7563H17.7562H17.7561H17.756H17.7559H17.7558H17.7558H17.7557H17.7556H17.7555H17.7554H17.7553H17.7552H17.7551H17.755H17.7549H17.7548H17.7547H17.7546H17.7545H17.7544H17.7543H17.7542H17.7541H17.7541H17.754H17.7539H17.7538H17.7537H17.7536H17.7535H17.7534H17.7533H17.7532H17.7531H17.753H17.7529H17.7528H17.7527H17.7526H17.7525H17.7524H17.7523H17.7522H17.7521H17.752H17.7519H17.7518H17.7517H17.7516H17.7515H17.7514H17.7513H17.7512H17.7511H17.751H17.7509H17.7508H17.7507H17.7506H17.7505H17.7504H17.7503H17.7502H17.7501H17.75H17.7499H17.7498H17.7497H17.7496H17.7495H17.7494H17.7492H17.7491H17.749H17.7489H17.7488H17.7487H17.7486H17.7485H17.7484H17.7483H17.7482H17.7481H17.748H17.7479H17.7478H17.7477H17.7476H17.7475H17.7474H17.7472H17.7471H17.747H17.7469H17.7468H17.7467H17.7466H17.7465H17.7464H17.7463H17.7462H17.7461H17.746H17.7458H17.7457H17.7456H17.7455H17.7454H17.7453H17.7452H17.7451H17.745H17.7449H17.7448H17.7446H17.7445H17.7444H17.7443H17.7442H17.7441H17.744H17.7439H17.7438H17.7437H17.7435H17.7434H17.7433H17.7432H17.7431H17.743H17.7429H17.7428H17.7426H17.7425H17.7424H17.7423H17.7422H17.7421H17.742H17.7419H17.7417H17.7416H17.7415H17.7414H17.7413H17.7412H17.7411H17.741H17.7408H17.7407H17.7406H17.7405H17.7404H17.7403H17.7402H17.74H17.7399H17.7398H17.7397H17.7396H17.7395H17.7393H17.7392H17.7391H17.739H17.7389H17.7388H17.7386H17.7385H17.7384H17.7383H17.7382H17.7381H17.7379H17.7378H17.7377H17.7376H17.7375H17.7374H17.7372H17.7371H17.737H17.7369H17.7368H17.7367H17.7365H17.7364H17.7363H17.7362H17.7361H17.7359H17.7358H17.7357H17.7356H17.7355H17.7354H17.7352H17.7351H17.735H17.7349H17.7348H17.7346H17.7345H17.7344H17.7343H17.7342H17.734H17.7339H17.7338H17.7337H17.7336H17.7334H17.7333H17.7332H17.7331H17.733H17.7328H17.7327H17.7326H17.7325H17.7324H17.7322H17.7321H17.732H17.7319H17.7317H17.7316H17.7315H17.7314H17.7313H17.7311H17.731H17.7309H17.7308H17.7306H17.7305H17.7304H17.7303H17.7302H17.73H17.7299H17.7298H17.7297H17.7295H17.7294H17.7293H17.7292H17.7291H17.7289H17.7288H17.7287H17.7286H17.7284H17.7283H17.7282H17.7281H17.7279H17.7278H17.7277H17.7276H17.7275H17.7273H17.7272H17.7271H17.727H17.7268H17.7267H17.7266H17.7265H17.7263H17.7262H17.7261H17.726H17.7258H17.7257H17.7256H17.7255H17.7253H17.7252H17.7251H17.725H17.7248H17.7247H17.7246H17.7245H17.7243H17.7242H17.7241H17.724H17.7238H17.7237H17.7236H17.7235H17.7233H17.7232H17.7231H17.723H17.7228H17.7227H17.7226H17.7225H17.7223H17.7222H17.7221H17.7219H17.7218H17.7217H17.7216H17.7214H17.7213H17.7212H17.7211H17.7209H17.7208H17.7207H17.7206H17.7204H17.7203H17.7202H17.7201H17.7199H17.7198H17.7197H17.7195H17.7194H17.7193H17.7192H17.719H17.7189H17.7188H17.7187H17.7185H17.7184H17.7183H17.7182H17.718H17.7179H17.7178H17.7176H17.7175H17.7174H17.7173H17.7171H17.717H17.7169H17.7168H17.7166H17.7165H17.7164H17.7162H17.7161H17.716H17.7159H17.7157H17.7156H17.7155H17.7154H17.7152H17.7151H17.715H17.7148H17.7147H17.7146H17.7145H17.7143H17.7142H17.7141H17.714H17.7138H17.7137H17.7136H17.7134H17.7133H17.7132H17.7131H17.7129H17.7128H17.7127H17.7125H17.7124H17.7123H17.7122H17.712H17.7119H17.7118H17.7118H17.7117H17.7117H17.7116H17.7115H17.7115H17.7114H17.7113H17.7113H17.7112H17.7111H17.7111H17.711H17.7109H17.7109H17.7108H17.7107H17.7107H17.7106H17.7105H17.7104H17.7104H17.7103H17.7102H17.7102H17.7101H17.71H17.71H17.7099H17.7098H17.7097H17.7097H17.7096H17.7095H17.7095H17.7094H17.7093H17.7092H17.7092H17.7091H17.709H17.7089H17.7089H17.7088H17.7087H17.7086H17.7086H17.7085H17.7084H17.7083H17.7083H17.7082H17.7081H17.708H17.708H17.7079H17.7078H17.7077H17.7077H17.7076H17.7075H17.7074H17.7073H17.7073H17.7072H17.7071H17.707H17.7069H17.7069H17.7068H17.7067H17.7066H17.7065H17.7065H17.7064H17.7063H17.7062H17.7061H17.7061H17.706H17.7059H17.7058H17.7057H17.7056H17.7056H17.7055H17.7054H17.7053H17.7052H17.7051H17.7051H17.705H17.7049H17.7048H17.7047H17.7046H17.7045H17.7045H17.7044H17.7043H17.7042H17.7041H17.704H17.7039H17.7038H17.7038H17.7037H17.7036H17.7035H17.7034H17.7033H17.7032H17.7031H17.7031H17.703H17.7029H17.7028H17.7027H17.7026H17.7025H17.7024H17.7023H17.7022H17.7021H17.7021H17.702H17.7019H17.7018H17.7017H17.7016H17.7015H17.7014H17.7013H17.7012H17.7011H17.701H17.7009H17.7009H17.7008H17.7007H17.7006H17.7005H17.7004H17.7003H17.7002H17.7001H17.7H17.6999H17.6998H17.6997H17.6996H17.6995H17.6994H17.6993H17.6992H17.6991H17.699H17.6989H17.6988H17.6987H17.6987H17.6986H17.6985H17.6984H17.6983H17.6982H17.6981H17.698H17.6979H17.6978H17.6977H17.6976H17.6975H17.6974H17.6973H17.6972H17.6971H17.697H17.6969H17.6968H17.6967H17.6966H17.6965H17.6964H17.6963H17.6962H17.6961H17.696H17.6958H17.6957H17.6956H17.6955H17.6954H17.6953H17.6952H17.6951H17.695H17.6949H17.6948H17.6947H17.6946H17.6945H17.6944H17.6943H17.6942H17.6941H17.694H17.6939H17.6938H17.6937H17.6936H17.6935H17.6933H17.6932H17.6931H17.693H17.6929H17.6928H17.6927H17.6926H17.6925H17.6924H17.6923H17.6922H17.6921H17.692H17.6919H17.6917H17.6916H17.6915H17.6914H17.6913H17.6912H17.6911H17.691H17.6909H17.6908H17.6907H17.6905H17.6904H17.6903H17.6902H17.6901H17.69H17.6899H17.6898H17.6897H17.6896H17.6894H17.6893H17.6892H17.6891H17.689H17.6889H17.6888H17.6887H17.6886H17.6884H17.6883H17.6882H17.6881H17.688H17.6879H17.6878H17.6877H17.6875H17.6874H17.6873H17.6872H17.6871H17.687H17.6869H17.6867H17.6866H17.6865H17.6864H17.6863H17.6862H17.6861H17.6859H17.6858H17.6857H17.6856H17.6855H17.6854H17.6853H17.6851H17.685H17.6849H17.6848H17.6847H17.6846H17.6845H17.6843H17.6842H17.6841H17.684H17.6839H17.6838H17.6836H17.6835H17.6834H17.6833H17.6832H17.6831H17.6829H17.6828H17.6827H17.6826H17.6825H17.6823H17.6822H17.6821H17.682H17.6819H17.6818H17.6816H17.6815H17.6814H17.6813H17.6812H17.681H17.6809H17.6808H17.6807H17.6806H17.6804H17.6803H17.6802H17.6801H17.68H17.6798H17.6797H17.6796H17.6795H17.6794H17.6792H17.6791H17.679H17.6789H17.6788H17.6786H17.6785H17.6784H17.6783H17.6782H17.678H17.6779H17.6778H17.6777H17.6776H17.6774H17.6773H17.6772H17.6771H17.677H17.6768H17.6767H17.6766H17.6765H17.6763H17.6762H17.6761H17.676H17.6759H17.6757H17.6756H17.6755H17.6754H17.6752H17.6751H17.675H17.6749H17.6747H17.6746H17.6745H17.6744H17.6743H17.6741H17.674H17.6739H17.6738H17.6736H17.6735H17.6734H17.6733H17.6731H17.673H17.6729H17.6728H17.6726H17.6725H17.6724H17.6723H17.6722H17.672H17.6719H17.6718H17.6717H17.6715H17.6714H17.6713H17.6712H17.671H17.6709H17.6708H17.6707H17.6705H17.6704H17.6703H17.6702H17.67H17.6699H17.6698H17.6697H17.6695H17.6694H17.6693H17.6692H17.669H17.6689H17.6688H17.6687H17.6685H17.6684H17.6683H17.6681H17.668H17.6679H17.6678H17.6676H17.6675H17.6674H17.6673H17.6671H17.667H17.6669H17.6668H17.6666H17.6665H17.6664H17.6663H17.6661H17.666H17.6659H17.6657H17.6656H17.6655H17.6654H17.6652H17.6651H17.665H17.6649H17.6647H17.6646H17.6645H17.6644H17.6642H17.6641H17.664H17.6638H17.6637H17.6636H17.6635H17.6633H17.6632H17.6631H17.663H17.6628H17.6627H17.6626H17.6624H17.6623H17.6622C15.4663 18.8565 13.9833 18.174 12.9518 17.2272C11.9 16.2616 11.2415 14.9499 10.843 13.5644C10.4453 12.1813 10.3237 10.7828 10.3049 9.7171C10.2955 9.18743 10.3117 8.74767 10.3299 8.44325C10.3389 8.29121 10.3485 8.17342 10.3556 8.09561C10.3591 8.05672 10.362 8.02786 10.3639 8.00975L10.3659 7.99075L10.3662 7.98845L10.3663 7.9878L10.3663 7.98748L10.3663 7.98743L10.3702 7.95462L10.3718 7.9206C10.5491 4.3206 12.2305 2.65908 13.8721 1.83637C15.5965 0.97217 17.3829 0.990956 17.6695 1.00313L17.7119 1.00494L17.7544 1.00313C18.0408 0.990961 19.8244 0.972147 21.5473 1.83624C23.1878 2.65897 24.8698 4.321 25.0521 7.92196Z" stroke="#EAEDF6" stroke-width="2"/>
<path d="M14.4943 33.9619L14.128 33.564C14.1857 33.5109 14.2445 33.4591 14.3042 33.4087L13.8922 32.2093L10.8874 23.4628C10.468 23.6589 9.93522 23.9116 9.3267 24.2082C7.80838 24.9481 5.82886 25.9562 3.9634 27.0369L14.4943 33.9619ZM14.4943 33.9619L14.4943 33.962M14.4943 33.9619L14.4943 33.962M14.4943 33.962L14.128 33.564L13.7578 33.9048L7.3069 39.8437L1.00963 39.8355L1.00002 32.1794C1.03742 30.9533 1.18403 30.052 1.57917 29.2838C1.96724 28.5294 2.65124 27.7977 3.96312 27.0371L14.4943 33.962ZM24.5602 23.4547C24.9804 23.6515 25.5138 23.9048 26.1227 24.2018C27.6427 24.9431 29.6227 25.9514 31.4831 27.0274L31.4845 27.0282C32.7947 27.7833 33.4782 28.5143 33.8662 29.2696C34.2631 30.0423 34.4094 30.9506 34.446 32.1847L34.4504 32.3333L31.9378 34.6464L31.3826 35.1576L30.0219 36.4103L27.4551 38.7734L23.5275 35.1576L22.1667 33.9048L21.7966 33.564C21.6268 33.4077 21.4479 33.2631 21.2611 33.1305L21.5759 32.2071L24.5602 23.4547ZM19.6959 32.2429L19.7464 32.3744C19.1785 32.1918 18.577 32.0971 17.9623 32.0971C17.1505 32.0971 16.3617 32.2623 15.6432 32.5768L15.7715 32.2429L17.7337 27.1329L19.6959 32.2429ZM34.4565 32.1851V32.2056C34.4562 32.1952 34.4562 32.1879 34.4562 32.1844C34.4563 32.1813 34.4564 32.1811 34.4565 32.1844C34.4565 32.1846 34.4565 32.1848 34.4565 32.1851ZM17.8701 26.1385L17.7337 26.3137L17.5972 26.1385C16.7754 25.0836 16.4666 24.3849 16.3826 23.9624C16.3103 23.5988 16.4076 23.495 16.4484 23.4518C16.5419 23.3527 16.7367 23.2473 17.0406 23.1753C17.3211 23.1087 17.5896 23.0951 17.7202 23.0928H17.7202H17.7202H17.7203H17.7203H17.7203H17.7204H17.7204H17.7204H17.7205H17.7205H17.7205H17.7206H17.7206H17.7206H17.7207H17.7207H17.7207H17.7208H17.7208H17.7208H17.7209H17.7209H17.7209H17.721H17.721H17.721H17.7211H17.7211H17.7211H17.7212H17.7212H17.7212H17.7213H17.7213H17.7213H17.7214H17.7214H17.7214H17.7215H17.7215H17.7215H17.7216H17.7216H17.7216H17.7217H17.7217H17.7217H17.7218H17.7218H17.7218H17.7219H17.7219H17.7219H17.722H17.722H17.722H17.722H17.7221H17.7221H17.7221H17.7222H17.7222H17.7222H17.7223H17.7223H17.7223H17.7224H17.7224H17.7224H17.7225H17.7225H17.7225H17.7226H17.7226H17.7226H17.7227H17.7227H17.7227H17.7228H17.7228H17.7228H17.7228H17.7229H17.7229H17.7229H17.723H17.723H17.723H17.7231H17.7231H17.7231H17.7232H17.7232H17.7232H17.7233H17.7233H17.7233H17.7234H17.7234H17.7234H17.7235H17.7235H17.7235H17.7236H17.7236H17.7236H17.7236H17.7237H17.7237H17.7237H17.7238H17.7238H17.7238H17.7239H17.7239H17.7239H17.724H17.724H17.724H17.7241H17.7241H17.7241H17.7242H17.7242H17.7242H17.7243H17.7243H17.7243H17.7244H17.7244H17.7244H17.7245H17.7245H17.7245H17.7246H17.7246H17.7246H17.7247H17.7247H17.7247H17.7248H17.7248H17.7248H17.7249H17.7249H17.7249H17.725H17.725H17.725H17.7251H17.7251H17.7251H17.7252H17.7252H17.7252H17.7253H17.7253H17.7254H17.7254H17.7254H17.7255H17.7255H17.7255H17.7256H17.7256H17.7256H17.7257H17.7257H17.7257H17.7258H17.7258H17.7258H17.7259H17.7259H17.726H17.726H17.726H17.7261H17.7261H17.7261H17.7262H17.7262H17.7262H17.7263H17.7263H17.7264H17.7264H17.7264H17.7265H17.7265H17.7265H17.7266H17.7266H17.7267H17.7267H17.7267H17.7268H17.7268H17.7269H17.7269H17.7269H17.727H17.727H17.7271H17.7271H17.7271H17.7272H17.7272H17.7272H17.7273H17.7273H17.7274H17.7274H17.7274H17.7275H17.7275H17.7276H17.7276H17.7277H17.7277H17.7277H17.7278H17.7278H17.7279H17.7279H17.7279H17.728H17.728H17.7281H17.7281H17.7282H17.7282H17.7282H17.7283H17.7283H17.7284H17.7284H17.7285H17.7285H17.7286H17.7286H17.7286H17.7287H17.7287H17.7288H17.7288H17.7289H17.7289H17.729H17.729H17.7291H17.7291H17.7291H17.7292H17.7292H17.7293H17.7293H17.7294H17.7294H17.7295H17.7295H17.7296H17.7296H17.7297H17.7297H17.7298H17.7298H17.7299H17.7299H17.73H17.73H17.7301H17.7301H17.7302H17.7302H17.7303H17.7303H17.7304H17.7304H17.7305H17.7305H17.7306H17.7306H17.7307H17.7307H17.7308H17.7308H17.7309H17.7309H17.731H17.731H17.7311H17.7311H17.7312H17.7313H17.7313H17.7314H17.7314H17.7315H17.7315H17.7316H17.7316H17.7317H17.7318H17.7318H17.7319H17.7319H17.732H17.732H17.7321H17.7322H17.7322H17.7323H17.7323H17.7324H17.7324H17.7325H17.7326H17.7326H17.7327H17.7327H17.7328H17.7329H17.7329H17.733H17.733H17.7331H17.7332H17.7332H17.7333H17.7334H17.7334H17.7335H17.7335H17.7336H17.7337H17.7337H17.7338H17.7339H17.7339H17.734H17.7341H17.7341H17.7342H17.7342H17.7343H17.7344H17.7344H17.7345H17.7345H17.7346H17.7347H17.7347H17.7348H17.7348H17.7349H17.735H17.735H17.7351H17.7351H17.7352H17.7353H17.7353H17.7354H17.7354H17.7355H17.7355H17.7356H17.7356H17.7357H17.7358H17.7358H17.7359H17.7359H17.736H17.736H17.7361H17.7361H17.7362H17.7363H17.7363H17.7364H17.7364H17.7365H17.7365H17.7366H17.7366H17.7367H17.7367H17.7368H17.7368H17.7369H17.7369H17.737H17.737H17.7371H17.7371H17.7372H17.7372H17.7373H17.7373H17.7374H17.7374H17.7375H17.7375H17.7376H17.7376H17.7377H17.7377H17.7378H17.7378H17.7379H17.7379H17.738H17.738H17.7381H17.7381H17.7382H17.7382H17.7382H17.7383H17.7383H17.7384H17.7384H17.7385H17.7385H17.7386H17.7386H17.7387H17.7387H17.7387H17.7388H17.7388H17.7389H17.7389H17.739H17.739H17.7391H17.7391H17.7391H17.7392H17.7392H17.7393H17.7393H17.7394H17.7394H17.7394H17.7395H17.7395H17.7396H17.7396H17.7396H17.7397H17.7397H17.7398H17.7398H17.7399H17.7399H17.7399H17.74H17.74H17.7401H17.7401H17.7401H17.7402H17.7402H17.7403H17.7403H17.7403H17.7404H17.7404H17.7405H17.7405H17.7405H17.7406H17.7406H17.7406H17.7407H17.7407H17.7408H17.7408H17.7408H17.7409H17.7409H17.7409H17.741H17.741H17.7411H17.7411H17.7411H17.7412H17.7412H17.7412H17.7413H17.7413H17.7414H17.7414H17.7414H17.7415H17.7415H17.7415H17.7416H17.7416H17.7416H17.7417H17.7417H17.7417H17.7418H17.7418H17.7419H17.7419H17.7419H17.742H17.742H17.742H17.7421H17.7421H17.7421H17.7422H17.7422H17.7422H17.7423H17.7423H17.7423H17.7424H17.7424H17.7424H17.7425H17.7425H17.7425H17.7426H17.7426H17.7426H17.7427H17.7427H17.7427H17.7428H17.7428H17.7428H17.7429H17.7429H17.7429H17.743H17.743H17.743H17.7431H17.7431H17.7431H17.7432H17.7432H17.7432H17.7433H17.7433H17.7433H17.7434H17.7434H17.7434H17.7435H17.7435H17.7435H17.7436H17.7436H17.7436H17.7437H17.7437H17.7437H17.7438H17.7438H17.7438H17.7439H17.7439H17.7439H17.744H17.744H17.744H17.744H17.7441H17.7441H17.7441H17.7442H17.7442H17.7442H17.7443H17.7443H17.7443H17.7444H17.7444H17.7444H17.7445H17.7445H17.7445H17.7446H17.7446H17.7446H17.7447H17.7447H17.7447H17.7447H17.7448H17.7448H17.7448H17.7449H17.7449H17.7449H17.745H17.745H17.745H17.7451H17.7451H17.7451H17.7452H17.7452H17.7452H17.7453H17.7453H17.7453H17.7454H17.7454H17.7454H17.7455H17.7455H17.7455H17.7456H17.7456H17.7456H17.7456H17.7457H17.7457H17.7457H17.7458H17.7458H17.7458H17.7459H17.7459H17.7459H17.746H17.746H17.746H17.7461H17.7461H17.7461H17.7462H17.7462H17.7462H17.7463H17.7463H17.7463H17.7464H17.7464H17.7464H17.7465H17.7465H17.7465H17.7466H17.7466H17.7466H17.7467H17.7467H17.7467H17.7468H17.7468H17.7468H17.7469H17.7469H17.747H17.747H17.747H17.7471H17.7471H17.7471H17.7472H17.7472H17.7472H17.7473H17.7473H17.7473C17.8808 23.0951 18.1506 23.1088 18.4316 23.1753C18.7359 23.2474 18.9297 23.3527 19.0222 23.4509L19.0222 23.451C19.0621 23.4933 19.1595 23.5968 19.0865 23.9611C19.0018 24.3843 18.6921 25.0835 17.8701 26.1385Z" stroke="#EAEDF6" stroke-width="2"/>
<path d="M42.3868 30.1509C41.8605 29.6888 41.3454 29.2144 40.8273 28.7316C41.7765 28.6898 42.7276 28.6495 43.6798 28.6091L43.6806 28.6091C44.7839 28.5624 45.8886 28.5156 46.9909 28.4664C46.9443 29.4195 46.8953 30.3749 46.8463 31.3316L46.8463 31.3322C46.7983 32.2702 46.7502 33.2095 46.7042 34.147L44.8388 32.448L44.1618 31.8315L43.4881 32.4517L42.737 33.1432L43.4143 33.8789L42.737 33.1432L36.521 38.8658L35.9658 39.377L34.605 40.6297L28.2039 46.5227L27.8337 46.8635L27.8268 46.8699L27.82 46.8764C27.7481 46.9451 27.6264 47.0001 27.466 47.0001C27.317 47.0001 27.1941 46.9518 27.0982 46.8635L26.7281 46.5228L25.3673 45.27L18.9662 39.377L18.6505 39.0863L17.9732 38.4628L17.2959 39.0863L10.5791 45.27L10.5721 45.2764L10.5653 45.2829C10.4934 45.3516 10.3718 45.4066 10.2113 45.4066C10.0623 45.4066 9.93938 45.3582 9.84351 45.27L9.47338 44.9292L8.79749 45.6634L9.47337 44.9292C9.39131 44.8537 9.36334 44.77 9.36334 44.6978C9.36334 44.6256 9.39131 44.5419 9.47338 44.4664L17.2353 37.3206L17.6054 36.9798L17.6123 36.9734L17.6191 36.9669C17.691 36.8982 17.8127 36.8432 17.9732 36.8432C18.1221 36.8432 18.2451 36.8916 18.3409 36.9798L18.7111 37.3206L20.0718 38.5733L26.473 44.4664L27.112 43.7722L26.473 44.4664L26.7887 44.757L27.466 45.3805L28.1433 44.757L33.4993 39.8261L34.8601 38.5733L35.4146 38.0628L35.4153 38.0622L41.6416 32.3402L41.6422 32.3396L42.4042 31.638L43.2224 30.8847L42.3868 30.1509ZM40.2234 28.1631C40.2234 28.1631 40.2238 28.1636 40.2245 28.1646L40.2234 28.1631Z" stroke="#F41B72" stroke-width="2"/>
<path d="M23.4 11.4C23.9 8.19995 23.1 1.97995 15.9 2.69995C18.1 3.19995 22.68 5.63996 23.4 11.4Z" fill="#F41B72"/>
</g>
<defs>
<clipPath id="clip0">
<rect width="48" height="48" fill="white"/>
</clipPath>
</defs>
</svg>
