<svg width="48" height="48" viewBox="0 0 48 48" fill="none" xmlns="http://www.w3.org/2000/svg">
<g clip-path="url(#clip0)">
<path fill-rule="evenodd" clip-rule="evenodd" d="M19.269 27.6C19.5321 29.2516 18.6376 32.6787 12.9548 33.1742C7.27198 33.6697 6.37746 37.7161 6.64056 39.6774V46.8H21.9H37.1594V39.6774C37.4225 37.7161 36.528 33.6697 30.8452 33.1742C25.1623 32.6787 24.2678 29.2516 24.5309 27.6H21.9H19.269Z" fill="#2A7FFE"/>
<path d="M27.6 47.1L33.9 33.6L37.2 34.2L31.2 47.1H27.6Z" fill="#EAEDF6"/>
<circle cx="9.90002" cy="11.7" r="1.5" fill="#2A7FFE"/>
<path d="M15.6267 7.46672V12C15.6267 12 16.3067 11.32 19.0267 11.32C21.7467 11.32 22.2 12 22.2 12C22.2 12 23.1067 11.32 25.6 11.32C28.0933 11.32 29 12 29 12V7.46672L32.4 6.10672L26.5067 3.61338L22.2 1.80005L12 6.10672L15.6267 7.46672Z" fill="#2A7FFE"/>
<path d="M23.9638 0.000717027C23.8708 0.00457731 23.7792 0.0231769 23.692 0.0559893L9.75813 5.28123C9.30559 5.38336 9.01081 5.82027 9.08538 6.27824V8.92903C8.06837 9.29435 7.33071 10.2698 7.33071 11.4054C7.33071 12.5412 8.06837 13.5166 9.08538 13.8818V16.6694C9.07854 17.1539 9.4658 17.5524 9.95026 17.5592C10.4347 17.5661 10.8332 17.1788 10.8401 16.6943C10.8402 16.6861 10.8402 16.6778 10.8401 16.6696V13.8819C11.8572 13.5168 12.5947 12.5414 12.5947 11.4056C12.5947 10.2698 11.8572 9.29435 10.8401 8.9292V7.40755L14.3494 8.72356V14.9147C14.3496 15.3994 14.7426 15.7921 15.2271 15.7919C15.4596 15.7919 15.6826 15.6994 15.847 15.5352C16.4141 14.9681 18.0049 14.4763 19.6134 14.4763C21.2219 14.4763 22.8127 14.9681 23.3798 15.5352C23.7225 15.8777 24.2779 15.8777 24.6204 15.5352C25.1875 14.9681 26.7783 14.4763 28.3868 14.4763C29.9953 14.4763 31.5861 14.9681 32.1532 15.5352C32.4961 15.8777 33.0516 15.8775 33.3941 15.5347C33.5585 15.3703 33.6508 15.1472 33.6508 14.9147V8.72338L38.3456 6.96291C38.7994 6.79271 39.0291 6.28684 38.8587 5.83308C38.7697 5.59602 38.5827 5.40898 38.3456 5.32001L24.3082 0.0559893C24.1982 0.0147544 24.0812 -0.00402059 23.9638 0.000717027ZM24.0001 1.81435L35.5389 6.14138L24.0001 10.4681L12.4614 6.14138L24.0001 1.81435ZM24.0001 5.26404C23.5156 5.26404 23.1228 5.65691 23.1228 6.14138C23.1228 6.62584 23.5156 7.01871 24.0001 7.01871C24.4846 7.01871 24.8775 6.62584 24.8775 6.14138C24.8775 5.65691 24.4846 5.26404 24.0001 5.26404ZM16.1041 9.38138L23.692 12.2269C23.8906 12.3015 24.1096 12.3015 24.3082 12.2269L31.8961 9.38138V13.3557C30.85 12.9135 29.6249 12.7214 28.3868 12.7214C26.7864 12.7214 25.1787 13.0011 24.0001 13.7961C22.8215 13.0011 21.2139 12.7214 19.6134 12.7214C18.3755 12.7214 17.1502 12.9137 16.1041 13.3557V9.38138ZM9.96272 10.5281C10.4577 10.5281 10.8401 10.9104 10.8401 11.4054C10.8401 11.9004 10.4577 12.2827 9.96272 12.2827C9.46773 12.2827 9.08538 11.9004 9.08538 11.4054C9.08538 10.9106 9.46773 10.5281 9.96272 10.5281ZM32.4854 16.6129C32.0013 16.6359 31.6277 17.047 31.6507 17.5311C31.6521 17.5601 31.6549 17.589 31.6591 17.6178C32.0869 20.8303 30.703 24.0031 28.158 25.7332C25.613 27.4635 22.39 27.4638 19.8445 25.735C17.299 24.0055 15.9144 20.8333 16.3413 17.6206C16.4031 17.14 16.0635 16.7003 15.5829 16.6384C15.1051 16.577 14.667 16.9123 14.6017 17.3895C14.0897 21.2412 15.7363 25.065 18.8586 27.1862C19.213 27.427 19.5797 27.6393 19.9552 27.8255C20.3732 29.2848 19.9426 30.2496 18.9007 31.1036C17.7766 32.0248 15.8146 32.6575 13.5216 32.7589C10.9213 32.8738 8.92097 33.7601 7.58882 35.1177C6.25667 36.4753 5.61639 38.267 5.57603 40.0771C5.57603 40.0836 5.57603 40.0901 5.57603 40.0966V46.238H2.94402C2.45956 46.2311 2.06107 46.6184 2.05423 47.1028C2.04738 47.5873 2.43464 47.9858 2.91911 47.9926C2.92735 47.9928 2.9356 47.9928 2.94385 47.9926H27.8358L27.8509 48.0002L27.8546 47.9926H31.3452L31.3603 48.0002L31.364 47.9926H45.0559C45.5403 47.9995 45.9388 47.6122 45.9456 47.1278C45.9525 46.6433 45.5652 46.2448 45.0808 46.238C45.0725 46.2378 45.0643 46.2378 45.056 46.238H42.424V40.0966C42.424 40.0901 42.424 40.0836 42.424 40.0771C42.3837 38.267 41.7437 36.4755 40.4116 35.1177C39.0794 33.76 37.0791 32.8738 34.4789 32.7589C32.1858 32.6575 30.2238 32.0249 29.0997 31.1036C28.0578 30.2496 27.6274 29.2848 28.0455 27.8251C28.4217 27.6386 28.7891 27.4259 29.1443 27.1847C32.2659 25.0626 33.9112 21.2381 33.3983 17.3866C33.3441 16.9291 32.9454 16.5915 32.4854 16.6134V16.6129ZM21.8194 28.5091C23.2524 28.8637 24.7478 28.8641 26.1806 28.5091C26.1177 30.0911 26.8127 31.4977 27.9871 32.4603C29.1994 33.4539 30.8467 34.069 32.7144 34.3493L26.7704 46.2376H24.8366C24.7223 45.8714 24.3835 45.6219 23.9999 45.6214C23.6162 45.6216 23.277 45.8711 23.1628 46.2376H7.33071V40.1124C7.36335 38.6859 7.8515 37.3549 8.84131 36.346C9.832 35.3362 11.3487 34.611 13.5988 34.5115C16.156 34.3985 18.4466 33.7442 20.013 32.4603C21.1874 31.4977 21.8826 30.0909 21.8194 28.5087V28.5091ZM34.5896 34.5236C35.1126 34.5555 35.5957 34.6213 36.04 34.7178L30.2801 46.2376H28.7325L34.5896 34.5236ZM24.0001 35.0935C23.5156 35.0935 23.1228 35.4864 23.1228 35.9708C23.1228 36.4553 23.5156 36.8482 24.0001 36.8482C24.4846 36.8482 24.8775 36.4553 24.8775 35.9708C24.8775 35.4864 24.4846 35.0935 24.0001 35.0935ZM37.7113 35.2985C38.2853 35.5887 38.7646 35.9442 39.1589 36.3462C40.1496 37.356 40.6378 38.688 40.6695 40.1159V46.2378H32.2416L37.7113 35.2985ZM24.0001 38.6029C23.5156 38.6029 23.1228 38.9957 23.1228 39.4802C23.1228 39.9647 23.5156 40.3575 24.0001 40.3575C24.4846 40.3575 24.8775 39.9647 24.8775 39.4802C24.8775 38.9957 24.4846 38.6029 24.0001 38.6029ZM24.0001 42.1122C23.5156 42.1122 23.1228 42.5051 23.1228 42.9895C23.1228 43.474 23.5156 43.8669 24.0001 43.8669C24.4846 43.8669 24.8775 43.474 24.8775 42.9895C24.8775 42.5051 24.4846 42.1122 24.0001 42.1122Z" fill="#EAEDF6"/>
</g>
<defs>
<clipPath id="clip0">
<rect width="48" height="48" fill="white"/>
</clipPath>
</defs>
</svg>
