<svg width="80" height="80" viewBox="0 0 80 80" fill="none" xmlns="http://www.w3.org/2000/svg">
<path d="M52.8506 37.3252C52.4192 36.5777 51.4636 36.3218 50.7163 36.7533C49.969 37.1847 49.713 38.1403 50.1445 38.8876L56.537 49.9596C56.8291 50.4655 56.9066 51.055 56.7554 51.6194C56.6041 52.1837 56.2423 52.6554 55.7362 52.9476C55.2302 53.2399 54.6407 53.3173 54.0765 53.166C53.5123 53.0148 53.0406 52.6531 52.7484 52.1472L33.374 18.5899C33.082 18.084 33.0045 17.4947 33.1557 16.9305C33.307 16.3661 33.6688 15.8945 34.1749 15.6023C34.681 15.3101 35.2703 15.2326 35.8348 15.3839C36.3992 15.5351 36.8708 15.897 37.163 16.403L43.1135 26.7096C43.5449 27.4569 44.5003 27.7129 45.2477 27.2815C45.995 26.8501 46.2511 25.8945 45.8196 25.1472L39.8691 14.8406C38.4047 12.304 35.1494 11.4316 32.6125 12.8962C31.3836 13.6057 30.5046 14.7512 30.1375 16.1218C29.9344 16.88 29.902 17.6569 30.0331 18.4078L10.3273 42.3604L5.1604 45.3435C2.77506 46.7206 1.06874 48.9444 0.355815 51.6048C-0.357115 54.2653 0.00880268 57.0442 1.38607 59.4297C2.76318 61.8152 4.98697 63.5214 7.64745 64.2343C8.53615 64.4724 9.43735 64.5901 10.3332 64.5901C10.9804 64.5901 11.6244 64.5277 12.2583 64.4057L26.0763 78.3481C27.1495 79.431 28.5833 79.9953 30.0329 79.9953C30.9857 79.9953 31.9452 79.7513 32.8129 79.2502C34.3194 78.3806 35.3159 76.8928 35.5469 75.1687C35.7778 73.4446 35.208 71.747 33.9834 70.5115L31.7525 68.2605L33.2832 67.3766C34.5443 66.6487 35.3784 65.4035 35.572 63.9604C35.7656 62.5172 35.2889 61.096 34.2641 60.0614L32.4723 58.2526L51.2355 55.1315C51.8203 55.6206 52.5092 55.981 53.2676 56.1841C53.7252 56.3068 54.1898 56.3676 54.6511 56.3676C55.5717 56.3676 56.4801 56.126 57.2986 55.6535C58.5275 54.9442 59.4065 53.7986 59.7737 52.4279C60.1408 51.0572 59.9526 49.6256 59.2431 48.3969L52.8506 37.3252ZM4.09217 57.8673C2.11072 54.4353 3.29081 50.0312 6.72281 48.0496L10.7821 45.7059L17.9692 58.1545L13.9082 60.499C10.4765 62.4793 6.07347 61.2988 4.09217 57.8673ZM32.4498 74.7539C32.3486 75.5103 31.9114 76.1627 31.2507 76.5441C30.2909 77.0986 29.076 76.9353 28.2958 76.1485L15.4691 63.2062L19.8416 60.6817L31.7641 72.7112C32.3011 73.253 32.5511 73.9977 32.4498 74.7539ZM32.0441 62.2605C32.3817 62.6014 32.5389 63.0697 32.475 63.5453C32.4113 64.0207 32.1364 64.4309 31.721 64.6707L29.4781 65.9656L23.3396 59.7719L28.6965 58.8809L32.0441 62.2605ZM20.9153 57.0074L13.2485 43.7282L31.4829 21.564L49.2272 52.2981L20.9153 57.0074Z" fill="#767691"/>
<path d="M50.2186 15.9589C50.4802 16.1272 50.773 16.2075 51.0627 16.2075C51.5764 16.2075 52.0793 15.9544 52.3779 15.4903L60.7929 2.41294C61.2599 1.68735 61.0501 0.720529 60.3245 0.253679C59.5989 -0.213483 58.6319 -0.00349401 58.1652 0.722091L49.7502 13.7995C49.2832 14.5251 49.4929 15.4919 50.2186 15.9589Z" fill="#767691"/>
<path d="M78.436 37.2156H61.0932C60.2303 37.2156 59.5308 37.9151 59.5308 38.778C59.5308 39.6409 60.2303 40.3404 61.0932 40.3404H78.436C79.2989 40.3404 79.9984 39.6409 79.9984 38.778C79.9984 37.9151 79.2989 37.2156 78.436 37.2156Z" fill="#767691"/>
</svg>
