<svg width="148" height="148" viewBox="0 0 148 148" fill="none" xmlns="http://www.w3.org/2000/svg">
<g clip-path="url(#clip0)">
<path d="M67.9074 25.846L71.7213 23.9392C73.0202 23.2893 74.6967 23.4279 76.5274 24.5124C80.6522 26.9546 83.9961 33.2748 83.9961 38.6282C83.9961 41.6057 82.9615 43.6575 81.3334 44.4719L77.5196 46.3786C76.221 47.0285 74.5441 46.8903 72.7132 45.807C68.5887 43.3636 65.2451 37.043 65.2451 31.6897C65.2454 28.7118 66.2793 26.6598 67.9074 25.846Z" fill="#627687"/>
<path d="M67.9088 25.8469C66.2807 26.6607 65.2467 28.7124 65.2467 31.6906C65.2467 37.0439 68.5904 43.3645 72.7149 45.8079C74.5458 46.8912 76.2226 47.0297 77.5212 46.3795C79.15 45.5655 80.1836 43.5146 80.1836 40.5362C80.1836 35.1831 76.84 28.8625 72.7152 26.4194C70.8845 25.3362 69.2077 25.1979 67.9088 25.8469Z" fill="#424D57"/>
<path d="M90.7344 68.6892L90.7313 100.269L36.7118 131.081L9.58328 115.377L9.62988 84.1697L63.7316 53.0439L90.7344 68.6892Z" fill="#FFA511"/>
<path d="M90.7344 68.6885L36.7593 99.8142L36.7118 131.08L90.7313 100.268L90.7344 68.6885Z" fill="#EB6B24"/>
<path d="M9.63228 84.1689L36.7617 99.8142L36.7142 131.08L9.58569 115.376L9.63228 84.1689Z" fill="#9E2D00"/>
<path d="M77.2109 76.4692L50.2088 60.8242L23.1576 76.3869L50.1598 92.0325L77.2109 76.4692Z" fill="white"/>
<path d="M60.625 56.833L60.5796 75.7415L49.0924 82.3368L49.1365 63.5891L60.625 56.833Z" fill="#E0904A"/>
<path d="M49.1367 63.589L37.5298 56.7793L37.6358 75.6872L49.0926 82.3367L49.1367 63.589Z" fill="#BF6A3F"/>
<path d="M78.8707 24.1901L78.9219 58.6811L49.0768 75.9696L19.1817 58.7678L19.1297 23.8487L48.9745 6.98828L78.8707 24.1901Z" fill="#FFD97D"/>
<path d="M49.0279 41.4796L49.0781 75.9706L19.1831 58.7688L19.131 23.8496L49.0279 41.4796Z" fill="#E0904A"/>
<path d="M16.3889 22.2948L48.872 3.48438L81.8579 22.3402L81.875 34.3122C81.875 34.3122 72.5159 40.1581 61.1767 34.3987C61.1767 34.3987 58.5795 43.6019 49.0679 51.1401L38.5345 44.8944C38.5357 47.0606 38.5476 69.9215 38.5476 69.9215L16.36 57.1543L16.3889 22.2948Z" fill="#24170C"/>
<path d="M81.8555 22.3402L49.027 41.4786L16.3865 22.2948L48.8696 3.48438L81.8555 22.3402Z" fill="#3B2F25"/>
<path d="M77.2109 76.4697L63.6381 115.525L50.1597 92.033L77.2109 76.4697Z" fill="#D6D6D6"/>
<path d="M25.3804 48.6233L29.1942 46.7165C30.4928 46.0669 32.17 46.2049 34.0003 47.2897C38.1254 49.7322 41.4688 56.0521 41.4688 61.4055C41.4688 64.3831 40.4345 66.4348 38.8067 67.2495L34.9928 69.1559C33.6939 69.8055 32.0171 69.6673 30.1865 68.584C26.0617 66.1406 22.718 59.8203 22.718 54.4673C22.718 51.4888 23.7526 49.4371 25.3804 48.6233Z" fill="#627687"/>
<path d="M25.3817 48.6243C23.7536 49.4381 22.7194 51.4898 22.7194 54.4683C22.7194 59.8213 26.063 66.1416 30.1878 68.585C32.0188 69.6683 33.6956 69.8069 34.9942 69.157C36.6229 68.3426 37.6562 66.2918 37.6562 63.3133C37.6562 57.9606 34.3126 51.64 30.1878 49.1963C28.3575 48.1139 26.6812 47.975 25.3817 48.6243Z" fill="#424D57"/>
<path d="M69.4766 15.271L68.848 14.9147L69.4766 14.5459V15.271Z" fill="#EB3400"/>
<path d="M33.2606 33.007L28.4822 30.1522L64.696 8.73299V8.62853L64.7841 8.68091L67.2871 7.2002L72.0664 9.95879L33.2606 33.007Z" fill="#EB3400"/>
<path d="M33.2617 33.0072V50.2257L28.4834 47.4665V30.1523L33.2617 33.0072Z" fill="#821D00"/>
<path d="M72.0664 9.95801V16.7412L69.4753 15.2699V14.5448L68.8467 14.9136L35.8523 34.2728V48.7285L33.2606 50.2247V33.0062L72.0664 9.95801Z" fill="#FF5500"/>
<path d="M125.676 129.972L100.312 144.615L85.3969 136.005L110.921 121.453L125.676 129.972Z" fill="#627687"/>
<path d="M125.676 129.973V133.035L100.312 148.001V144.616L125.676 129.973Z" fill="#2E373D"/>
<path d="M100.312 148L85.397 138.989V136.005L100.312 144.615V148Z" fill="#424D57"/>
<path d="M133 62.9346V112.33L75.4965 145.53V96.1334L133 62.9346Z" fill="#2E373D"/>
<path d="M75.4964 96.1331L71.139 93.5672L128.272 60.5947L133 62.9343L75.4964 96.1331Z" fill="#627687"/>
<path d="M75.4961 145.53L71.1386 142.656V93.5674L75.4961 96.1332V145.53Z" fill="#424D57"/>
<path d="M119.445 101.18V118.239L99.5873 129.704V112.645L119.445 101.18Z" fill="#2E373D"/>
<path d="M99.5873 112.645L97.171 111.315L116.903 99.9209L119.445 101.179L99.5873 112.645Z" fill="#627687"/>
<path d="M99.5859 129.703L97.1697 128.372V111.314L99.5859 112.644V129.703Z" fill="#424D57"/>
<path d="M115.145 118.933V132.648L107.193 137.341V123.626L115.145 118.933Z" fill="#2E373D"/>
<path d="M107.191 137.341L103.888 135.39V121.962L107.191 123.626V137.341Z" fill="#424D57"/>
<path d="M103.889 121.961L112.185 117.172L115.145 118.932L107.193 123.625L103.889 121.961Z" fill="#627687"/>
<path d="M97.1685 5.03029C97.1685 3.22889 98.1318 1.56453 99.6938 0.667944C101.256 -0.22895 103.179 -0.22225 104.735 0.685912L132.179 16.7067C136.04 18.9615 138.414 23.0955 138.414 27.5665V45.847C138.414 47.921 137.305 49.8369 135.507 50.8696C133.708 51.9027 131.494 51.8944 129.703 50.8483L114.231 41.817L105.597 44.4333L109.298 38.9371L102.658 35.0606C99.2586 33.0755 97.1685 29.4352 97.1685 25.4984V5.03029Z" fill="#3CA5AF"/>
<path d="M104.147 10.8945L130.859 26.7731V28.8939L104.147 13.101V10.8945Z" fill="white"/>
<path d="M104.147 17.6143L130.859 33.4931V35.614L104.147 19.8207V17.6143Z" fill="white"/>
<path d="M103.568 23.7871L130.281 39.6659V41.7865L103.568 25.9933V23.7871Z" fill="white"/>
</g>
<defs>
<clipPath id="clip0">
<rect width="148" height="148" fill="white" transform="matrix(-1 0 0 1 148 0)"/>
</clipPath>
</defs>
</svg>
