<svg width="148" height="148" viewBox="0 0 148 148" fill="none" xmlns="http://www.w3.org/2000/svg">
<path d="M141.541 93.9265C141.541 93.288 141.135 92.6496 140.293 92.1562L92.1787 64.1814L92.0916 40.008L94.0069 36.6997L112.289 26.1366C112.812 25.8464 113.247 25.121 113.247 24.5115L113.189 6.83863C113.189 6.51944 113.073 6.31631 112.899 6.22916C112.87 6.22916 112.87 6.22916 112.841 6.20011L110.722 4.98135C110.548 4.86532 110.287 4.89437 110.026 5.03944L92.0336 15.4285L92.0046 8.55067C92.0046 7.59314 91.6563 6.92557 91.134 6.60641C91.105 6.60641 91.105 6.57737 91.105 6.57737H91.0759L87.6226 4.54614C87.0712 4.22678 86.2876 4.28487 85.4461 4.77818L9.44376 48.6558C7.76057 49.6135 6.42578 51.9641 6.42578 53.8795L6.57085 109.539L10.0823 111.599L10.1112 117.258L58.2548 142.912C59.9089 143.898 62.6368 143.898 64.3198 142.912L140.322 98.4245C141.164 97.9312 141.57 97.2927 141.57 96.6543L141.541 93.9265ZM112.231 6.28726C112.318 6.22916 112.376 6.22916 112.434 6.20011C112.376 6.25821 112.289 6.28726 112.231 6.31631L103.525 11.3366L112.231 6.28726Z" fill="#5B5E71"/>
<path d="M10.0898 111.588L10.1147 117.267L58.2524 142.915C59.9223 143.887 62.6265 143.887 64.3089 142.915L140.313 98.4302C141.16 97.9441 141.584 97.2962 141.584 96.6606L141.536 93.917C141.536 94.5526 141.112 95.1881 140.265 95.674L64.2732 139.552C62.5908 140.511 59.8742 140.511 58.2169 139.552L10.0898 111.588Z" fill="#5B5E71"/>
<path d="M91.1286 6.60007C90.5803 6.27607 89.8077 6.31347 88.9603 6.81188L12.9565 50.6895C11.2742 51.6615 9.92828 54.0043 9.92828 55.9358L10.0903 111.59L6.57608 109.546L6.41406 53.8922C6.41406 51.9606 7.75993 49.6179 9.44226 48.6458L85.4461 4.76824C86.2935 4.28222 87.0661 4.23239 87.6144 4.55633L91.1286 6.60007Z" fill="#D4D6D6"/>
<path d="M88.9663 6.80667C90.6451 5.83739 92.0101 6.61526 92.0155 8.54431L92.1733 64.1945L10.0875 111.587L9.9297 55.9366C9.92425 54.0076 11.2803 51.6587 12.9591 50.6894L88.9663 6.80667Z" fill="#5B5E71"/>
<path d="M88.432 62.0455L13.8058 105.118L13.668 55.9278C13.668 55.3354 14.3156 54.233 14.8254 53.9299L88.2943 11.5186L88.432 62.0455Z" fill="white"/>
<path d="M20.5625 58.5711L81.4344 23.4316L81.5299 58.0732L20.6594 93.2066L20.5625 58.5711Z" fill="#ECF0F1"/>
<path d="M20.5625 58.5711L81.4343 23.4316L81.442 26.646L20.5715 61.7794L20.5625 58.5711Z" fill="#E74C3C"/>
<path d="M10.0938 111.585L58.2094 139.546C59.8772 140.516 62.5895 140.516 64.2682 139.546L140.267 95.6683C141.954 94.6944 141.963 93.1234 140.295 92.1541L92.1795 64.1924L10.0938 111.585Z" fill="#ECF0F1"/>
<path d="M92.5393 73.1013L88.7148 70.8357L92.7145 68.5068L92.8913 68.5471L96.7171 70.8127L92.7835 73.1013H92.5393Z" fill="#5B5E71"/>
<path d="M87.5251 75.9975L83.6992 73.7318L87.686 71.4102L87.8857 71.4418L91.6871 73.6973L87.7693 75.9975H87.5251Z" fill="#5B5E71"/>
<path d="M26.7974 116.813L22.9414 114.529L30.2325 110.319L30.438 110.36L34.2466 112.615L27.0417 116.813H26.7974Z" fill="#5B5E71"/>
<path d="M41.6879 125.465L37.8477 123.189L43.1317 120.138L43.3084 120.178L47.1329 122.444L41.9321 125.465H41.6879Z" fill="#5B5E71"/>
<path d="M36.719 122.579L32.8945 120.313L45.6565 112.926L45.8332 112.966L49.6577 115.232L36.9632 122.579H36.719Z" fill="#5B5E71"/>
<path d="M75.598 100.131L71.7578 97.8549L75.7733 95.5361L75.95 95.5764L79.7903 97.8521L75.8423 100.131H75.598Z" fill="#5B5E71"/>
<path d="M47.986 121.829L44.1602 119.563L49.4443 116.493L49.621 116.533L53.4626 118.809L48.2302 121.829H47.986Z" fill="#5B5E71"/>
<path d="M94.7647 77.5725L90.9102 75.2896L97.6697 71.3848L97.8536 71.4336L101.702 73.7093L95.009 77.5725H94.7647Z" fill="#5B5E71"/>
<path d="M82.5121 78.8925L78.6719 76.6168L82.673 74.3066L82.8713 74.3382L86.6727 76.5938L82.7549 78.8925H82.5121Z" fill="#5B5E71"/>
<path d="M89.839 80.4166L85.9844 78.1337L89.9999 75.8135L90.1852 75.8623L94.0168 78.128L90.0832 80.4166H89.839Z" fill="#5B5E71"/>
<path d="M77.4963 81.787L73.6719 79.5214L77.6572 77.2012L77.8339 77.2414L81.6742 79.5171L77.7405 81.787H77.4963Z" fill="#5B5E71"/>
<path d="M84.9766 83.3044L81.043 81.0186L85.0268 78.6826L85.2122 78.7315L89.0438 80.9971L85.0585 83.3173L84.9766 83.3044Z" fill="#5B5E71"/>
<path d="M72.5765 84.7089L68.6602 82.4346L72.6412 80.0957L72.8193 80.1359L76.6438 82.4015L72.6584 84.7218L72.5765 84.7089Z" fill="#5B5E71"/>
<path d="M100.592 85.7825L96.6758 83.5068L107.603 77.1582L107.781 77.1984L111.606 79.4641L100.673 85.7955L100.592 85.7825Z" fill="#5B5E71"/>
<path d="M79.9107 86.1472L76.0547 83.8629L80.0573 81.5527L80.2627 81.593L84.0713 83.8485L80.1535 86.1472H79.9107Z" fill="#5B5E71"/>
<path d="M88.4097 86.9822L84.5781 84.7165L88.5793 82.3877L88.756 82.4279L92.6106 84.7108L88.6669 86.9894L88.4097 86.9822Z" fill="#5B5E71"/>
<path d="M67.4509 87.5867L63.625 85.321L67.6261 82.9922L67.8028 83.0324L71.6273 85.2966L67.6951 87.5867H67.4509Z" fill="#5B5E71"/>
<path d="M95.5921 88.6698L91.6758 86.3941L95.6568 84.0566L95.835 84.0969L99.6594 86.3611L95.674 88.6827L95.5921 88.6698Z" fill="#5B5E71"/>
<path d="M74.942 89.0176L71.0859 86.7333L75.1029 84.4131L75.2868 84.4619L79.1356 86.7376L75.1862 89.0176H74.942Z" fill="#5B5E71"/>
<path d="M83.4254 89.8601L79.5938 87.5959L83.5934 85.2656L83.7716 85.3058L87.6262 87.5887L83.6825 89.8673L83.4254 89.8601Z" fill="#5B5E71"/>
<path d="M62.4377 90.4824L58.6133 88.2167L62.5986 85.8965L62.7969 85.9281L66.5983 88.1837L62.6805 90.4824H62.4377Z" fill="#5B5E71"/>
<path d="M90.6195 91.5389L86.7031 89.2633L90.6856 86.9258L90.8623 86.966L94.6867 89.2317L90.7014 91.5519L90.6195 91.5389Z" fill="#5B5E71"/>
<path d="M70.082 91.906L66.1484 89.6202L70.1323 87.2842L70.3162 87.333L74.1493 89.5987L70.1639 91.9189L70.082 91.906Z" fill="#5B5E71"/>
<path d="M78.441 92.739L74.6094 90.4734L78.6091 88.1445L78.7858 88.1847L82.6418 90.4676L78.6967 92.7462L78.441 92.739Z" fill="#5B5E71"/>
<path d="M57.4221 93.3769L53.5977 91.1113L57.583 88.791L57.7827 88.8226L61.5841 91.0782L57.6649 93.3769H57.4221Z" fill="#5B5E71"/>
<path d="M97.5701 93.2858L93.6523 91.0101L98.7238 88.042L98.922 88.0736L102.723 90.3292L97.6477 93.2988L97.5701 93.2858Z" fill="#5B5E71"/>
<path d="M85.6507 94.41L81.7344 92.1343L85.7154 89.7969L85.8921 89.8371L89.7165 92.1027L85.7312 94.423L85.6507 94.41Z" fill="#5B5E71"/>
<path d="M65.0162 94.7488L61.1602 92.4659L65.1613 90.1543L65.3481 90.2017L69.1782 92.4673L65.2604 94.7488H65.0162Z" fill="#5B5E71"/>
<path d="M73.4566 95.617L69.625 93.3513L73.6247 91.0225L73.8014 91.0627L77.6574 93.347L73.7124 95.6241L73.4566 95.617Z" fill="#5B5E71"/>
<path d="M52.4079 96.2729L48.582 94.0072L52.5688 91.6855L52.7455 91.7258L56.5714 93.9914L52.6521 96.2729H52.4079Z" fill="#5B5E71"/>
<path d="M80.682 97.2782L76.7656 95.004L80.7467 92.665L80.9233 92.7053L84.7478 94.9709L80.7625 97.2911L80.682 97.2782Z" fill="#5B5E71"/>
<path d="M60.0435 97.6177L56.1875 95.3334L60.2045 93.0146L60.3883 93.0635L64.22 95.3291L60.2878 97.6177H60.0435Z" fill="#5B5E71"/>
<path d="M68.4724 98.4949L64.625 96.2192L68.6405 93.9004L68.8172 93.9406L72.6732 96.2249L68.7281 98.5021L68.4724 98.4949Z" fill="#5B5E71"/>
<path d="M47.4867 99.1952L43.5703 96.9195L47.5513 94.582L47.728 94.6223L51.5524 96.8879L47.5671 99.2081L47.4867 99.1952Z" fill="#5B5E71"/>
<path d="M55.1825 100.507L51.2188 98.2021L55.2328 95.8848L55.4167 95.9336L59.2641 98.2093L55.263 100.519L55.1825 100.507Z" fill="#5B5E71"/>
<path d="M63.4766 101.373L59.668 99.1172L63.6519 96.7783L63.8286 96.8185L67.6846 99.1028L63.7496 101.373H63.4766Z" fill="#5B5E71"/>
<path d="M42.3635 102.072L38.5391 99.8064L42.5388 97.4775L42.7155 97.5178L46.5413 99.7834L42.6077 102.072H42.3635Z" fill="#5B5E71"/>
<path d="M70.6266 103.001L66.8008 100.736L70.8019 98.4053L70.9786 98.4455L74.8203 100.721L70.8709 103.001H70.6266Z" fill="#5B5E71"/>
<path d="M50.1178 103.348L46.2617 101.066L50.2643 98.7539L50.4482 98.8027L54.297 101.078L50.362 103.348H50.1178Z" fill="#5B5E71"/>
<path d="M58.4936 104.253L54.6836 101.997L58.6689 99.6582L58.8456 99.6984L62.7017 101.983L58.7666 104.253H58.4936Z" fill="#5B5E71"/>
<path d="M37.344 104.968L33.5195 102.702L37.5207 100.372L37.6974 100.412L41.5233 102.678L37.5896 104.968H37.344Z" fill="#5B5E71"/>
<path d="M65.6565 105.871L61.832 103.605L65.8317 101.276L66.0085 101.317L69.8343 103.582L65.9007 105.871H65.6565Z" fill="#5B5E71"/>
<path d="M45.1476 106.219L41.293 103.937L45.2941 101.625L45.501 101.665L49.3096 103.921L45.3918 106.219H45.1476Z" fill="#5B5E71"/>
<path d="M53.5093 107.13L49.6992 104.874L53.6846 102.535L53.8613 102.575L57.7159 104.858L53.7822 107.13H53.5093Z" fill="#5B5E71"/>
<path d="M32.3324 107.863L28.4922 105.588L32.4933 103.277L32.6916 103.309L36.493 105.565L32.5752 107.863H32.3324Z" fill="#5B5E71"/>
<path d="M60.6852 108.74L56.8594 106.475L60.8605 104.145L61.0387 104.185L64.8631 106.45L60.9295 108.74H60.6852Z" fill="#5B5E71"/>
<path d="M40.1778 109.09L36.3203 106.806L40.3373 104.485L40.5226 104.534L44.3542 106.8L40.422 109.09H40.1778Z" fill="#5B5E71"/>
<path d="M48.5196 110.01L44.7109 107.754L48.6963 105.415L48.873 105.455L52.729 107.738L48.794 110.01H48.5196Z" fill="#5B5E71"/>
<path d="M67.2836 110.769L63.3672 108.493L92.5546 91.6006L92.7544 91.6322L96.5543 93.8863L67.364 110.782L67.2836 110.769Z" fill="#5B5E71"/>
<path d="M55.715 111.609L51.8906 109.344L55.8918 107.015L56.0685 107.055L59.8929 109.321L55.9607 111.609H55.715Z" fill="#5B5E71"/>
<path d="M35.3178 111.977L31.3828 109.692L35.3681 107.355L35.552 107.404L39.3836 109.67L35.3983 111.99L35.3178 111.977Z" fill="#5B5E71"/>
<path d="M43.5352 112.886L39.7266 110.631L43.7105 108.292L43.8886 108.332L47.7432 110.615L43.8096 112.886H43.5352Z" fill="#5B5E71"/>
<path d="M21.8283 113.926L18.0039 111.66L27.4759 106.172L27.6526 106.212L31.4928 108.488L22.0725 113.926H21.8283Z" fill="#5B5E71"/>
<path d="M50.7477 114.48L46.9219 112.214L50.923 109.884L51.0997 109.924L54.9256 112.19L50.992 114.48H50.7477Z" fill="#5B5E71"/>
<path d="M60.5954 114.547L56.7695 112.282L62.216 109.118L62.4142 109.15L66.2157 111.405L60.8396 114.547H60.5954Z" fill="#5B5E71"/>
<path d="M54.2973 118.184L50.457 115.908L55.7411 112.856L55.9178 112.897L59.7422 115.162L54.5415 118.184H54.2973Z" fill="#5B5E71"/>
<path d="M31.7574 119.69L27.9258 117.425L38.6822 111.195L38.8589 111.236L42.7149 113.52L32.0146 119.698L31.7574 119.69Z" fill="#5B5E71"/>
<path d="M103.731 89.7262L99.8164 87.4505L112.573 80.0459L112.749 80.0861L116.59 82.3618L103.813 89.7391L103.731 89.7262Z" fill="#5B5E71"/>
<path d="M93.398 84.1025L89.5664 81.8383L93.5517 79.5166L93.7514 79.5482L97.5701 81.8139L93.6537 84.1097L93.398 84.1025Z" fill="#5B5E71"/>
<path d="M98.2652 81.2925L94.4336 79.0283L102.638 74.2715L102.815 74.3117L106.67 76.5946L98.5224 81.2997L98.2652 81.2925Z" fill="#5B5E71"/>
<path d="M101.024 112.433L85.1899 121.634C84.3357 122.131 83.2811 122.132 82.4255 121.638L72.3222 115.805C71.4045 115.275 71.4026 113.951 72.3188 113.419L88.1528 104.217C89.007 103.721 90.0616 103.719 90.9172 104.213L101.02 110.046C101.938 110.576 101.94 111.9 101.024 112.433Z" fill="#5B5E71"/>
<path d="M23.2087 57.9013C23.5811 57.6862 23.8827 57.8581 23.8839 58.2861C23.8851 58.714 23.5855 59.2405 23.2131 59.4555C22.8406 59.6706 22.5324 59.495 22.5313 59.067C22.53 58.639 22.8362 58.1163 23.2087 57.9013Z" fill="white"/>
<path d="M25.5251 56.5624C25.8975 56.3474 26.1991 56.5192 26.2003 56.9472C26.2015 57.3752 25.9019 57.9016 25.5295 58.1166C25.1505 58.3355 24.8488 58.1561 24.8477 57.7281C24.8464 57.3002 25.146 56.7812 25.5251 56.5624Z" fill="white"/>
<path d="M27.8388 55.2269C28.2178 55.0081 28.5194 55.18 28.5206 55.608C28.5218 56.036 28.2222 56.5624 27.8432 56.7812C27.4708 56.9963 27.1692 56.8169 27.168 56.3889C27.1667 55.9609 27.4664 55.442 27.8388 55.2269Z" fill="white"/>
<path d="M79.7326 25.7051L79.7362 26.4491L37.6208 50.7644L37.6172 50.0204L79.7326 25.7051Z" fill="white"/>
<path d="M44.7772 52.7866C45.28 52.4963 45.6925 52.7314 45.6941 53.3089C45.6957 53.8865 45.2859 54.5965 44.7831 54.8868L24.4755 66.6114C23.9637 66.9069 23.5602 66.6665 23.5586 66.0889C23.557 65.5113 23.9577 64.8067 24.4696 64.5112L44.7772 52.7866Z" fill="#D4D6D6"/>
<path d="M44.7928 57.9418C45.2956 57.6515 45.7081 57.8868 45.7097 58.4643C45.7113 59.0419 45.3015 59.7519 44.7987 60.0422L24.4912 71.7668C23.9793 72.0623 23.5758 71.8219 23.5742 71.2443C23.5726 70.6667 23.9734 69.9619 24.4852 69.6664L44.7928 57.9418Z" fill="#9B59B6"/>
<path d="M44.8045 63.099C45.3073 62.8088 45.7198 63.044 45.7214 63.6216C45.7231 64.1992 45.3132 64.9092 44.8104 65.1994L24.5029 76.924C23.9911 77.2195 23.5876 76.9791 23.5859 76.4015C23.5843 75.8239 23.9851 75.1191 24.4969 74.8236L44.8045 63.099Z" fill="#D4D6D6"/>
<path d="M44.8201 68.2553C45.3229 67.965 45.7354 68.2002 45.7371 68.7778C45.7387 69.3554 45.3289 70.0653 44.8261 70.3556L24.5185 82.0801C24.0067 82.3756 23.6032 82.1354 23.6016 81.5578C23.5999 80.9802 24.0007 80.2754 24.5126 79.9799L44.8201 68.2553Z" fill="#9B59B6"/>
<path d="M51.9649 64.1293C52.4675 63.8391 52.8802 64.0742 52.8818 64.6518C52.8834 65.2294 52.4735 65.9394 51.9708 66.2295L49.0107 67.9386C48.4988 68.2341 48.0954 67.9938 48.0938 67.4162C48.0921 66.8386 48.4929 66.1338 49.0047 65.8383L51.9649 64.1293Z" fill="#9B59B6"/>
<path d="M54.0654 57.7533C54.568 57.4631 54.9807 57.6982 54.9823 58.2758C54.9839 58.8534 54.574 59.5635 54.0713 59.8537L48.999 62.7822C48.4871 63.0777 48.0837 62.8373 48.082 62.2597C48.0804 61.6821 48.4812 60.9773 48.993 60.6818L54.0654 57.7533Z" fill="#D4D6D6"/>
<path d="M44.8045 73.4115C45.3073 73.1213 45.7198 73.3565 45.7214 73.9341C45.7231 74.5117 45.3132 75.2217 44.8104 75.5119L24.5029 87.2365C23.9911 87.532 23.5876 87.2916 23.5859 86.714C23.5843 86.1364 23.9851 85.4316 24.4969 85.1361L44.8045 73.4115Z" fill="#D4D6D6"/>
<path d="M54.0654 68.0668C54.568 67.7766 54.9807 68.0117 54.9823 68.5893C54.9839 69.1669 54.574 69.877 54.0713 70.1672L48.999 73.0957C48.4871 73.3912 48.0837 73.1507 48.082 72.5732C48.0804 71.9956 48.4812 71.2908 48.993 70.9953L54.0654 68.0668Z" fill="#D4D6D6"/>
<path d="M51.9375 53.8168C52.4402 53.5266 52.8528 53.7617 52.8544 54.3393C52.8561 54.9169 52.4461 55.627 51.9435 55.9172L48.9833 57.6262C48.4715 57.9217 48.068 57.6813 48.0664 57.1037C48.0648 56.5261 48.4656 55.8213 48.9774 55.5258L51.9375 53.8168Z" fill="#9B59B6"/>
<path d="M54.0341 47.4408C54.5368 47.1506 54.9494 47.3856 54.951 47.9632C54.9527 48.5408 54.5427 49.2509 54.0401 49.5411L48.9677 52.4696C48.4559 52.7651 48.0524 52.5247 48.0508 51.9471C48.0492 51.3695 48.4499 50.6648 48.9618 50.3693L54.0341 47.4408Z" fill="#D4D6D6"/>
<path d="M87.0309 48.8008L85.4877 47.9014L85.4648 39.8457L87.0081 40.7451L87.0309 48.8008Z" fill="#2EBF69"/>
<path d="M112.905 6.22892C112.734 6.14355 112.495 6.14355 112.238 6.29721L83.8397 22.708C83.3274 22.9984 82.9005 23.7327 82.9005 24.3303L82.9518 42.0049C82.9518 42.3123 83.0542 42.5172 83.225 42.6026L81.0149 41.3487C80.8612 41.2462 80.7587 41.0413 80.7416 40.7339L80.7075 23.0595C80.6904 22.4617 81.1173 21.7274 81.6296 21.4371L110.028 5.02632C110.302 4.88967 110.541 4.87258 110.712 4.97504L112.905 6.22892Z" fill="#2ECC71"/>
<path d="M112.235 6.30272C112.759 6.00057 113.185 6.24367 113.187 6.84504L113.237 24.5225C113.239 25.1239 112.815 25.8455 112.292 26.1476L93.9963 36.7104L87.0303 48.8011L87.0075 40.7454L83.8893 42.5457C83.3768 42.8415 82.9502 42.611 82.9486 42.0096L82.8984 24.3321C82.8967 23.7307 83.3206 22.9967 83.833 22.7008L112.235 6.30272Z" fill="#2EBF69"/>
<path d="M110.697 10.0234L110.7 11.9481L85.4406 26.5314L85.4375 24.6067L110.697 10.0234Z" fill="white"/>
<path d="M110.697 15.4004L110.7 17.3251L85.4406 31.9084L85.4375 29.9837L110.697 15.4004Z" fill="white"/>
<path d="M98.2329 27.9727L85.4375 35.3601L85.4406 37.2848L98.2329 29.8992V27.9727Z" fill="white"/>
<path d="M77.3844 34.4474C78.0529 34.0614 78.6135 34.3694 78.6157 35.1491L78.6694 54.0896C78.6716 54.8691 78.1146 55.8338 77.4461 56.2198L60.953 65.7421C60.2845 66.1281 59.7239 65.8086 59.7217 65.0291L59.668 46.0886C59.6658 45.3089 60.2228 44.3557 60.8913 43.9697L77.3844 34.4474Z" fill="#3498DB"/>
<path d="M64.4105 57.6344C63.7286 58.0281 63.1333 58.8731 62.9176 59.739L61.5391 65.3967L77.441 56.2157L76.035 52.1656C75.8245 51.5458 75.217 51.3952 74.5445 51.7835L71.7459 53.3993C71.9763 53.6149 72.0937 53.9924 72.0571 54.4732L71.9185 55.7631C71.8979 55.953 71.7677 56.146 71.6281 56.2266C71.5797 56.2546 71.5301 56.2691 71.4836 56.265L69.4814 56.091L67.4868 58.5725C67.4381 58.6316 67.3866 58.6754 67.3368 58.7042C67.1934 58.787 67.0625 58.7447 67.0409 58.5792L66.9049 57.4479C66.8604 57.0139 66.9761 56.5018 67.2044 56.0213L64.4105 57.6344Z" fill="#37617B"/>
<path d="M67.8195 55.1115C67.571 55.3763 67.3605 55.6918 67.2035 56.0223C66.9751 56.5027 66.8594 57.0148 66.9039 57.4488L67.04 58.5801C67.0615 58.7457 67.1925 58.7879 67.3358 58.7052C67.3857 58.6764 67.4371 58.6325 67.4858 58.5735L69.4804 56.092L71.4826 56.2659C71.5291 56.27 71.5787 56.2555 71.6271 56.2276C71.7667 56.147 71.897 55.9539 71.9176 55.764L72.0562 54.4741C72.0927 53.9934 71.9753 53.6158 71.7449 53.4002C71.5881 53.2536 71.3791 53.1821 71.1303 53.2041C71.0909 54.3021 70.3906 55.5664 69.5278 56.0646L69.433 56.1193C68.5692 56.6181 67.8634 56.1633 67.8195 55.1115Z" fill="#4C7891"/>
<path d="M67.8164 53.5091L67.8207 55.0132C67.8208 55.0465 67.8216 55.079 67.8229 55.111C67.8668 56.1627 68.5726 56.6175 69.4365 56.1188L69.5312 56.0641C70.394 55.5659 71.0943 54.3016 71.1338 53.2036C71.135 53.1688 71.1356 53.134 71.1355 53.0994L71.1315 51.6611C70.6423 52.2731 70.0978 52.772 69.5229 53.1039C68.9105 53.4574 68.3317 53.5827 67.8164 53.5091Z" fill="#F9BB4A"/>
<path d="M68.8898 41.2485C66.7778 42.4679 65.0596 45.422 65.0664 47.8272L65.0766 48.0394L65.0767 48.083C65.0786 48.7742 65.2397 49.4047 65.3964 49.8558C65.5456 50.2849 65.6836 50.5383 65.6908 50.5516C65.6938 50.5652 65.7507 50.8228 65.8268 50.7789C65.8471 50.7671 65.8686 50.733 65.8904 50.6653C65.9844 50.3712 66.0782 49.9792 66.1338 49.5328C66.2173 48.885 66.4335 48.1826 66.8302 47.5502C67.463 46.5417 68.2669 45.7178 69.1288 45.2202L69.7539 44.8593C70.5211 44.4164 71.2684 43.6905 71.8731 42.8073C71.8797 42.8127 72.0062 42.9158 72.1869 43.0949C72.8625 43.784 73.2432 44.2291 73.228 45.5678C73.2286 45.7746 73.2197 45.9759 73.1917 46.1338C73.2528 45.8854 73.3383 45.4741 73.4198 45.045C73.4509 44.8816 73.4814 44.7155 73.5097 44.5548C73.7059 43.4714 73.7314 42.443 73.5581 41.5619C73.4908 41.241 73.4047 40.9746 73.3093 40.7899C73.219 40.6186 73.0271 40.6114 72.8394 40.7198C72.6698 40.8177 72.5037 41.0097 72.4189 41.2603C71.7521 40.3154 70.3389 40.4118 68.8898 41.2485Z" fill="#525566"/>
<path d="M71.8701 42.8076C71.2655 43.6909 70.5181 44.4168 69.7509 44.8597L69.1258 45.2206C68.2639 45.7182 67.46 46.5421 66.8272 47.5506C66.4306 48.1829 66.2143 48.8854 66.1308 49.5332C66.0752 49.9796 65.9814 50.3715 65.8874 50.6656C65.8656 50.7334 65.8441 50.7675 65.8238 50.7792C65.7477 50.8232 65.6908 50.5655 65.6878 50.552C65.6806 50.5387 65.5426 50.2853 65.3935 49.8561C65.2064 50.1955 65.0982 50.6202 65.1199 51.0107C65.1596 51.6419 65.5305 51.951 65.9568 51.7376C66.3273 52.7641 66.988 53.3916 67.8117 53.5094C68.327 53.583 68.9058 53.4577 69.5182 53.1042C70.0931 52.7723 70.6376 52.2733 71.1267 51.6614C71.9914 50.5795 72.6827 49.1423 73.0601 47.6365C73.4862 47.3686 73.8541 46.6222 73.8901 45.9472C73.9158 45.4009 73.7163 45.055 73.4168 45.0454C73.3353 45.4745 73.2498 45.8858 73.1886 46.1342C73.2166 45.9764 73.2256 45.775 73.225 45.5682C73.2402 44.2295 72.8595 43.7844 72.1839 43.0953C72.0032 42.9161 71.8767 42.813 71.8701 42.8076Z" fill="#FED57A"/>
<path d="M112.869 6.2002H112.84C112.869 6.22924 112.869 6.22924 112.898 6.22924C112.898 6.22924 112.898 6.22924 112.869 6.2002Z" fill="#FED57A"/>
</svg>
