<svg width="102" height="102" viewBox="0 0 102 102" fill="none" xmlns="http://www.w3.org/2000/svg">
<path d="M15.684 36.6741C15.684 36.6741 -1.32932 39.001 1.2702 54.5653C3.69367 69.0765 18.2835 66.1286 22.0307 65.402C25.7779 64.6753 15.684 36.6741 15.684 36.6741Z" fill="white" stroke="#6B7EC1" stroke-width="2"/>
<path d="M25.4713 68.0932C25.4713 68.0932 29.2085 80.7403 28.2235 90.5662C27.3065 99.7299 28.6826 101.257 32.276 100.967C35.8694 100.676 44.5872 98.6399 44.7399 95.3667C44.8925 92.0935 43.2869 75.2934 37.2466 66.2755C31.2063 57.2565 25.4713 68.0932 25.4713 68.0932Z" fill="white" stroke="#6B7EC1" stroke-width="2"/>
<path d="M31.2787 62.8195C28.8831 64.3447 25.4713 68.0942 25.4713 68.0942C25.4713 68.0942 29.2085 80.7413 28.2235 90.5672C27.3065 99.7309 28.6826 101.258 32.276 100.968C33.5941 100.861 35.6009 100.519 37.6221 99.9685C39.0561 77.4449 32.9278 65.3671 31.2787 62.8195Z" fill="#EAEDF6" stroke="#6B7EC1" stroke-width="2"/>
<path d="M67.2209 6.01978C67.2209 6.01978 39.0061 25.4931 29.8872 31.3836L24.5533 38.9112L28.3384 60.8392L37.4562 65.0936L82.0158 73.4387L80.984 68.6931L72.8991 47.42L68.7697 23.2011L67.5652 8.31069L67.2209 6.01978Z" fill="white" stroke="#6B7EC1" stroke-width="2"/>
<path d="M29.8875 31.3836C29.8875 31.3836 26.1604 49.9845 37.4577 65.0936C37.4577 65.0936 38.0883 66.4941 36.7122 67.3666L28.3009 69.4029C28.3009 69.4029 24.401 70.7116 21.1129 65.4031C17.8259 60.0935 12.014 48.1657 15.4548 35.0022C15.4548 35.0022 16.296 31.4385 20.8834 30.7837L27.0005 29.6926C27.0017 29.6926 29.7159 29.2923 29.8875 31.3836Z" fill="#1E3174"/>
<path d="M67.2208 6.01976C67.2208 6.01976 74.5614 0.892918 78.8056 1.00171C83.0497 1.1105 87.2927 6.45597 90.046 10.8202C92.7993 15.1834 100.025 32.312 100.713 43.8754C101.401 55.4387 101.286 71.9124 95.3219 73.8759C89.3574 75.8394 82.0168 73.4397 82.0168 73.4397C82.0168 73.4397 72.382 65.5847 66.7617 41.1482C61.1415 16.7107 67.2208 6.01976 67.2208 6.01976Z" fill="#1E3174" stroke="#1E3174" stroke-width="2"/>
<path d="M91.0972 74.5297C91.0972 74.5297 97.9587 66.0758 94.4611 43.249C88.9567 7.30939 75.0777 1.87413 75.0777 1.87413C75.0777 1.87413 64.8056 9.294 74.6187 44.0253C82.7058 72.6444 91.0972 74.5297 91.0972 74.5297Z" fill="white" stroke="#1E3174" stroke-width="2"/>
<path d="M72.2438 29.4106C72.9101 33.6418 73.9631 38.4845 75.5286 44.0254C76.3119 46.7979 77.0985 49.318 77.8796 51.6111C82.146 50.2052 89.0476 46.6849 86.1005 37.7525C83.3695 29.4761 76.2606 28.9702 72.2438 29.4106Z" fill="#FFBA00"/>
<path d="M75.5274 44.0253C76.3107 46.7979 77.0973 49.318 77.8784 51.611C82.0869 50.2253 88.8548 46.781 86.2152 38.119L74.6182 40.6613C74.9001 41.7534 75.202 42.8741 75.5274 44.0253Z" fill="#FFDD80"/>
<path opacity="0.3" d="M37.4574 65.0936C33.9163 60.3586 31.8516 55.2803 30.6861 50.54L15.7798 53.2154C17.215 58.4753 19.4769 62.7593 21.1137 65.403C24.4018 70.7126 28.3017 69.4029 28.3017 69.4029L36.713 67.3665C38.088 66.493 37.4574 65.0936 37.4574 65.0936Z" fill="#6B7EC1"/>
</svg>
