<svg width="148" height="148" viewBox="0 0 148 148" fill="none" xmlns="http://www.w3.org/2000/svg">
<g clip-path="url(#clip0)">
<path d="M103.598 43.6748H138.132C143.581 43.6748 147.998 48.0922 147.998 53.5414V112.742C147.998 118.191 143.581 122.609 138.132 122.609H125.798C124.436 122.609 123.332 123.713 123.332 125.075V136.387C123.332 138.585 120.675 139.685 119.121 138.131L104.321 123.331C103.858 122.868 103.231 122.608 102.577 122.608H54.2647C48.8158 122.608 44.3984 118.191 44.3984 112.742V86.8467L103.598 43.6748Z" fill="#24AB5D"/>
<path d="M93.7334 9.1416H9.86657C4.41737 9.1416 0 13.559 0 19.0082V78.2088C0 83.6577 4.41737 88.075 9.86627 88.075H22.1997C23.5621 88.075 24.6663 89.1795 24.6663 90.5416V101.853C24.6663 104.051 27.3231 105.152 28.8773 103.597L43.6773 88.7972C44.1397 88.3347 44.7672 88.0747 45.4214 88.0747H93.7334C99.1823 88.0747 103.6 83.6574 103.6 78.2085V19.0082C103.6 13.559 99.1826 9.1416 93.7334 9.1416Z" fill="#FFA511"/>
<path d="M78.8483 103.653C79.2842 100.964 77.4575 98.4301 74.7683 97.9941C72.0791 97.5582 69.5456 99.3848 69.1097 102.074C68.6737 104.763 70.5004 107.297 73.1896 107.733C75.8789 108.169 78.4123 106.342 78.8483 103.653Z" fill="#FFA511"/>
<path d="M55.2763 76.7604C57.2026 74.8341 57.2026 71.7109 55.2763 69.7845C53.35 67.8582 50.2268 67.8582 48.3004 69.7845C46.3741 71.7109 46.3741 74.8341 48.3004 76.7604C50.2268 78.6867 53.35 78.6867 55.2763 76.7604Z" fill="white"/>
<path d="M51.8003 58.4751C49.0755 58.4751 46.8669 56.2665 46.8669 53.5417V48.6083C46.8669 44.0897 49.5383 40.0728 53.6722 38.3751C55.6432 37.5657 56.8683 35.5858 56.7209 33.4479C56.556 31.0552 54.553 29.052 52.1606 28.887C50.7729 28.7932 49.4457 29.2575 48.4356 30.2003C47.424 31.1443 46.8669 32.4256 46.8669 33.8083C46.8669 36.533 44.6582 38.7417 41.9334 38.7417C39.2087 38.7417 37 36.533 37 33.8083C37 29.7211 38.7144 25.7773 41.7029 22.9873C44.6903 20.1991 48.7468 18.7605 52.8396 19.044C60.1589 19.549 66.0592 25.4494 66.5637 32.769C67.0044 39.1541 63.3297 45.0753 57.4198 47.5023C57.0092 47.6708 56.7328 48.1154 56.7328 48.6083V53.5417C56.7334 56.2665 54.525 58.4751 51.8003 58.4751Z" fill="white"/>
<path d="M123.204 104.065C123.831 101.414 122.189 98.7566 119.538 98.1299C116.887 97.5033 114.23 99.1444 113.603 101.795C112.977 104.447 114.618 107.104 117.269 107.73C119.92 108.357 122.577 106.716 123.204 104.065Z" fill="#FFA511"/>
<path d="M101.044 103.655C101.48 100.965 99.6529 98.432 96.9636 97.9961C94.2744 97.5601 91.7409 99.3868 91.305 102.076C90.869 104.765 92.6957 107.299 95.3849 107.735C98.0742 108.171 100.608 106.344 101.044 103.655Z" fill="#FFA511"/>
<path d="M36.5872 88.7979L24.668 100.717V101.854C24.668 104.051 27.3248 105.152 28.879 103.598L43.679 88.7976C44.1417 88.3352 44.7689 88.0752 45.4231 88.0752H38.3313C37.6771 88.0752 37.0496 88.3352 36.5872 88.7979Z" fill="#EF9500"/>
<path d="M93.7363 9.1416H86.6445C92.0937 9.1416 96.5111 13.559 96.5111 19.0082V78.2088C96.5111 83.658 92.0937 88.075 86.6448 88.075H93.7366C99.1858 88.075 103.603 83.6577 103.603 78.2088V19.0082C103.603 13.559 99.1855 9.1416 93.7363 9.1416Z" fill="#EF9500"/>
<path d="M116.242 125.075V135.25L119.123 138.131C120.677 139.685 123.334 138.584 123.334 136.387V125.075C123.334 123.713 124.438 122.608 125.801 122.608H118.709C117.346 122.608 116.242 123.713 116.242 125.075Z" fill="#1A9E52"/>
<path d="M138.135 43.6748H131.043C136.492 43.6748 140.91 48.0922 140.91 53.5414V112.742C140.91 118.191 136.492 122.608 131.043 122.608H138.135C143.584 122.608 148.001 118.191 148.001 112.742V53.5414C148.001 48.0922 143.584 43.6748 138.135 43.6748Z" fill="#1A9E52"/>
</g>
<defs>
<clipPath id="clip0">
<rect width="148" height="148" fill="white"/>
</clipPath>
</defs>
</svg>
