<svg width="120" height="120" viewBox="0 0 120 120" fill="none" xmlns="http://www.w3.org/2000/svg">
<g clip-path="url(#clip0)">
<path d="M61.4569 0.262356L57.5524 1.38427L9.44702 15.2065L5.54243 16.3285C3.64719 16.8756 2.02411 18.238 1.02928 20.1168C0.034453 21.9956 -0.250882 24.2374 0.235876 26.3503L17.167 99.5043C17.6581 101.616 18.8808 103.424 20.567 104.533C22.2533 105.641 24.2652 105.959 26.1616 105.417L26.1717 105.414L82.066 89.3537L82.0761 89.3508C83.9713 88.8037 85.5944 87.4413 86.5892 85.5625C87.5841 83.6837 87.8694 81.4419 87.3827 79.329L70.4515 6.17503C69.9605 4.06332 68.7377 2.25486 67.0515 1.1464C65.3653 0.0379386 63.3533 -0.279993 61.4569 0.262356Z" fill="#6B7EC1"/>
<path d="M61.9869 2.55522L57.3622 3.88405L10.697 17.2925L6.07231 18.6213C4.72267 19.0109 3.56683 19.9811 2.85838 21.3191C2.14994 22.657 1.94674 24.2535 2.29337 25.7581L19.2245 98.912C19.5742 100.416 20.4449 101.704 21.6457 102.493C22.8465 103.282 24.2793 103.509 25.6298 103.123L25.6398 103.12L81.5342 87.0594L81.5443 87.0565C82.8939 86.6669 84.0498 85.6966 84.7582 84.3587C85.4666 83.0208 85.6698 81.4244 85.3232 79.9197L68.392 6.76577C68.0424 5.26199 67.1716 3.97415 65.9708 3.18479C64.7701 2.39543 63.3373 2.16902 61.9869 2.55522Z" fill="white"/>
<path d="M58.4947 26.2444L30.2191 34.3689C29.9033 34.4596 29.5681 34.4069 29.2872 34.2222C29.0063 34.0376 28.8027 33.7361 28.7213 33.3843C28.6399 33.0324 28.6872 32.6589 28.8529 32.3459C29.0187 32.0329 29.2892 31.8061 29.605 31.7154L57.8806 23.5908C58.1963 23.5005 58.5313 23.5534 58.8119 23.7381C59.0926 23.9228 59.296 24.2241 59.3773 24.5758C59.4587 24.9274 59.4115 25.3007 59.246 25.6136C59.0805 25.9265 58.8103 26.1534 58.4947 26.2444Z" fill="#6B7EC1"/>
<path d="M64.4429 29.3108L31.2554 38.8467C30.9396 38.9374 30.6044 38.8846 30.3235 38.7C30.0426 38.5153 29.8391 38.2139 29.7576 37.862C29.6762 37.5102 29.7235 37.1366 29.8893 36.8237C30.055 36.5107 30.3255 36.2839 30.6413 36.1931L63.8288 26.6573C64.1446 26.5665 64.4798 26.6193 64.7607 26.8039C65.0416 26.9886 65.2452 27.29 65.3266 27.6419C65.408 27.9938 65.3607 28.3673 65.195 28.6803C65.0292 28.9932 64.7587 29.22 64.4429 29.3108Z" fill="#6B7EC1"/>
<path d="M63.1392 46.3116L34.8636 54.4362C34.7072 54.4811 34.5444 54.4913 34.3845 54.4661C34.2246 54.4409 34.0708 54.3809 33.9317 54.2895C33.7926 54.1981 33.671 54.077 33.5739 53.9332C33.4768 53.7895 33.4061 53.6258 33.3658 53.4515C33.3254 53.2773 33.3163 53.0959 33.3389 52.9178C33.3615 52.7396 33.4153 52.5681 33.4974 52.4132C33.5795 52.2582 33.6881 52.1228 33.8171 52.0146C33.9462 51.9064 34.0931 51.8276 34.2495 51.7826L62.525 43.6581C62.6814 43.6132 62.8442 43.603 63.0041 43.6282C63.164 43.6533 63.3179 43.7134 63.457 43.8048C63.5961 43.8962 63.7176 44.0173 63.8147 44.1611C63.9118 44.3048 63.9825 44.4685 64.0229 44.6427C64.0632 44.817 64.0723 44.9983 64.0497 45.1765C64.0272 45.3547 63.9733 45.5261 63.8912 45.6811C63.8092 45.8361 63.7005 45.9715 63.5715 46.0797C63.4425 46.1879 63.2956 46.2667 63.1392 46.3116Z" fill="#6B7EC1"/>
<path d="M69.0874 49.3781L35.9 58.914C35.7436 58.9589 35.5808 58.9691 35.4209 58.9439C35.261 58.9188 35.1071 58.8588 34.968 58.7673C34.8289 58.6759 34.7074 58.5548 34.6103 58.4111C34.5132 58.2673 34.4424 58.1036 34.4021 57.9294C34.3618 57.7551 34.3527 57.5738 34.3752 57.3956C34.3978 57.2174 34.4517 57.046 34.5337 56.891C34.6158 56.736 34.7245 56.6006 34.8535 56.4924C34.9825 56.3842 35.1294 56.3054 35.2858 56.2605L68.4733 46.7246C68.7891 46.6339 69.1243 46.6866 69.4052 46.8713C69.6861 47.0559 69.8897 47.3573 69.9711 47.7092C70.0526 48.0611 70.0052 48.4346 69.8395 48.7476C69.6738 49.0606 69.4032 49.2874 69.0874 49.3781Z" fill="#6B7EC1"/>
<path d="M67.7837 66.3789L39.5081 74.5034C39.1924 74.5939 38.8573 74.541 38.5766 74.3563C38.2959 74.1716 38.0925 73.8703 38.0111 73.5186C37.9297 73.1669 37.977 72.7935 38.1425 72.4806C38.3081 72.1677 38.5784 71.9409 38.894 71.8499L67.1696 63.7254C67.4854 63.6346 67.8206 63.6874 68.1015 63.8721C68.3824 64.0567 68.586 64.3581 68.6674 64.71C68.7488 65.0619 68.7015 65.4354 68.5358 65.7484C68.37 66.0614 68.0995 66.2882 67.7837 66.3789Z" fill="#6B7EC1"/>
<path d="M73.732 69.4454L40.5445 78.9812C40.3881 79.0263 40.2252 79.0367 40.0652 79.0116C39.9052 78.9866 39.7512 78.9266 39.612 78.8352C39.4728 78.7438 39.3511 78.6227 39.2539 78.4789C39.1567 78.335 39.086 78.1713 39.0456 77.9969C39.0053 77.8226 38.9961 77.6411 39.0188 77.4628C39.0414 77.2846 39.0954 77.113 39.1775 76.958C39.2597 76.803 39.3685 76.6675 39.4976 76.5594C39.6268 76.4512 39.7739 76.3725 39.9304 76.3277L73.1178 66.7919C73.4336 66.7011 73.7689 66.7539 74.0498 66.9385C74.3307 67.1232 74.5342 67.4246 74.6157 67.7765C74.6971 68.1283 74.6498 68.5019 74.484 68.8148C74.3183 69.1278 74.0478 69.3546 73.732 69.4454Z" fill="#6B7EC1"/>
<path d="M25.3922 42.6994L15.3857 45.5746C15.2343 45.6179 15.0736 45.5925 14.939 45.504C14.8043 45.4155 14.7067 45.2711 14.6675 45.1024L12.3705 35.178C12.3317 35.0093 12.3544 34.8302 12.4339 34.6802C12.5133 34.5302 12.6429 34.4214 12.7943 34.3777L22.8007 31.5025C22.9521 31.4592 23.1128 31.4846 23.2474 31.5731C23.3821 31.6616 23.4797 31.806 23.5189 31.9747L25.8159 41.8991C25.8548 42.0678 25.832 42.2468 25.7526 42.3969C25.6731 42.5469 25.5435 42.6557 25.3922 42.6994Z" fill="#EAEDF6"/>
<path d="M30.0365 62.7667L20.03 65.6419C19.8786 65.6852 19.7179 65.6598 19.5833 65.5713C19.4486 65.4828 19.351 65.3384 19.3118 65.1697L17.0148 55.2453C16.9759 55.0766 16.9987 54.8976 17.0782 54.7475C17.1576 54.5975 17.2872 54.4887 17.4385 54.445L27.445 51.5699C27.5964 51.5265 27.7571 51.5519 27.8917 51.6404C28.0264 51.7289 28.124 51.8734 28.1632 52.042L30.4602 61.9664C30.4991 62.1352 30.4763 62.3142 30.3968 62.4642C30.3174 62.6142 30.1878 62.723 30.0365 62.7667Z" fill="#EAEDF6"/>
<path d="M34.6809 82.8339L24.6744 85.7091C24.523 85.7524 24.3623 85.727 24.2277 85.6385C24.093 85.55 23.9954 85.4056 23.9562 85.237L21.6592 75.3125C21.6204 75.1438 21.6431 74.9648 21.7226 74.8148C21.802 74.6647 21.9316 74.556 22.083 74.5123L32.0894 71.6371C32.2408 71.5938 32.4015 71.6192 32.5361 71.7077C32.6708 71.7962 32.7684 71.9406 32.8076 72.1092L35.1046 82.0337C35.1435 82.2024 35.1207 82.3814 35.0412 82.5314C34.9618 82.6815 34.8322 82.7902 34.6809 82.8339Z" fill="#EAEDF6"/>
<path d="M100.453 18.8052H42.7095C40.7517 18.8077 38.8747 19.6753 37.4903 21.2178C36.1059 22.7603 35.3272 24.8517 35.325 27.0331V102.58C35.3272 104.762 36.1059 106.853 37.4903 108.396C38.8747 109.938 40.7517 110.806 42.7095 110.808H100.453C102.411 110.806 104.288 109.938 105.672 108.396C107.057 106.853 107.836 104.762 107.838 102.58V27.0331C107.836 24.8517 107.057 22.7603 105.672 21.2178C104.288 19.6753 102.411 18.8077 100.453 18.8052Z" fill="#6B7EC1"/>
<path d="M100.454 21.1739H42.7098C41.3156 21.1756 39.979 21.7935 38.9931 22.8919C38.0072 23.9904 37.4527 25.4797 37.4511 27.0331V102.58C37.4527 104.134 38.0072 105.623 38.9931 106.722C39.979 107.82 41.3156 108.438 42.7098 108.44H100.454C101.848 108.438 103.185 107.82 104.17 106.722C105.156 105.623 105.711 104.134 105.712 102.58V27.0331C105.711 25.4797 105.156 23.9904 104.17 22.892C103.185 21.7935 101.848 21.1756 100.454 21.1739Z" fill="white"/>
<path d="M106.52 120C113.965 120 120 113.275 120 104.98C120 96.6851 113.965 89.9606 106.52 89.9606C99.075 89.9606 93.0398 96.6851 93.0398 104.98C93.0398 113.275 99.075 120 106.52 120Z" fill="#FFBA00"/>
<path d="M112.967 103.021H108.278V97.7969C108.278 97.2773 108.093 96.779 107.763 96.4116C107.433 96.0442 106.986 95.8378 106.52 95.8378C106.054 95.8378 105.606 96.0442 105.277 96.4116C104.947 96.779 104.762 97.2773 104.762 97.7969V103.021H100.073C99.6066 103.021 99.1594 103.228 98.8296 103.595C98.4999 103.962 98.3146 104.461 98.3146 104.98C98.3146 105.5 98.4999 105.998 98.8296 106.366C99.1594 106.733 99.6066 106.939 100.073 106.939H104.762V112.164C104.762 112.683 104.947 113.181 105.277 113.549C105.606 113.916 106.054 114.123 106.52 114.123C106.986 114.123 107.433 113.916 107.763 113.549C108.093 113.181 108.278 112.683 108.278 112.164V106.939H112.967C113.433 106.939 113.88 106.733 114.21 106.366C114.54 105.998 114.725 105.5 114.725 104.98C114.725 104.461 114.54 103.962 114.21 103.595C113.88 103.228 113.433 103.021 112.967 103.021Z" fill="white"/>
<path d="M91.763 62.6869H62.5623C62.4007 62.6871 62.2407 62.6518 62.0913 62.583C61.942 62.5142 61.8062 62.4134 61.6919 62.2861C61.5776 62.1589 61.4869 62.0077 61.425 61.8414C61.3631 61.6751 61.3312 61.4968 61.3312 61.3167C61.3312 61.1366 61.3631 60.9583 61.425 60.792C61.4869 60.6257 61.5776 60.4746 61.6919 60.3473C61.8062 60.2201 61.942 60.1192 62.0913 60.0504C62.2407 59.9816 62.4007 59.9463 62.5623 59.9465H91.763C92.0889 59.9469 92.4013 60.0915 92.6316 60.3484C92.8619 60.6053 92.9913 60.9536 92.9913 61.3167C92.9913 61.6798 92.8619 62.0281 92.6316 62.285C92.4013 62.5419 92.0889 62.6865 91.763 62.6869Z" fill="#EAEDF6"/>
<path d="M96.8355 67.3112H62.5623C62.4007 67.3114 62.2407 67.2761 62.0913 67.2073C61.942 67.1386 61.8062 67.0377 61.6919 66.9104C61.5776 66.7832 61.4869 66.6321 61.425 66.4657C61.3631 66.2994 61.3312 66.1211 61.3312 65.941C61.3312 65.761 61.3631 65.5827 61.425 65.4163C61.4869 65.25 61.5776 65.0989 61.6919 64.9716C61.8062 64.8444 61.942 64.7435 62.0913 64.6747C62.2407 64.606 62.4007 64.5707 62.5623 64.5709H96.8355C97.1617 64.5709 97.4745 64.7152 97.7051 64.9722C97.9357 65.2291 98.0652 65.5776 98.0652 65.941C98.0652 66.3044 97.9357 66.6529 97.7051 66.9099C97.4745 67.1668 97.1617 67.3112 96.8355 67.3112Z" fill="#EAEDF6"/>
<path d="M91.7629 83.4107H62.5623C62.4007 83.4109 62.2407 83.3756 62.0913 83.3068C61.942 83.2381 61.8062 83.1372 61.6919 83.0099C61.5776 82.8827 61.4869 82.7315 61.425 82.5652C61.3631 82.3989 61.3312 82.2206 61.3312 82.0405C61.3312 81.8604 61.3631 81.6822 61.425 81.5158C61.4869 81.3495 61.5776 81.1984 61.6919 81.0711C61.8062 80.9439 61.942 80.843 62.0913 80.7742C62.2407 80.7054 62.4007 80.6701 62.5623 80.6703H91.7629C92.0891 80.6703 92.4019 80.8147 92.6325 81.0717C92.8631 81.3286 92.9927 81.6771 92.9927 82.0405C92.9927 82.4039 92.8631 82.7524 92.6325 83.0094C92.4019 83.2663 92.0891 83.4107 91.7629 83.4107Z" fill="#EAEDF6"/>
<path d="M96.8355 88.035H62.5623C62.4007 88.0352 62.2407 87.9999 62.0913 87.9311C61.942 87.8624 61.8062 87.7615 61.6919 87.6342C61.5776 87.507 61.4869 87.3559 61.425 87.1895C61.3631 87.0232 61.3312 86.8449 61.3312 86.6648C61.3312 86.4848 61.3631 86.3065 61.425 86.1401C61.4869 85.9738 61.5776 85.8227 61.6919 85.6954C61.8062 85.5682 61.942 85.4673 62.0913 85.3985C62.2407 85.3297 62.4007 85.2944 62.5623 85.2946H96.8355C96.9971 85.2944 97.1572 85.3297 97.3065 85.3985C97.4559 85.4673 97.5916 85.5682 97.706 85.6954C97.8203 85.8227 97.911 85.9738 97.9729 86.1401C98.0348 86.3065 98.0666 86.4848 98.0666 86.6648C98.0666 86.8449 98.0348 87.0232 97.9729 87.1895C97.911 87.3559 97.8203 87.507 97.706 87.6342C97.5916 87.7615 97.4559 87.8624 97.3065 87.9311C97.1572 87.9999 96.9971 88.0352 96.8355 88.035Z" fill="#EAEDF6"/>
<path d="M56.0213 69.4104H45.6875C45.5312 69.4102 45.3813 69.341 45.2707 69.2178C45.1602 69.0946 45.098 68.9276 45.0978 68.7534V58.5043C45.098 58.3301 45.1602 58.1631 45.2707 58.0399C45.3813 57.9168 45.5312 57.8475 45.6875 57.8473H56.0213C56.1776 57.8475 56.3275 57.9168 56.4381 58.0399C56.5486 58.1631 56.6108 58.3301 56.611 58.5043V68.7534C56.6108 68.9276 56.5486 69.0946 56.4381 69.2178C56.3275 69.341 56.1776 69.4102 56.0213 69.4104Z" fill="#EAEDF6"/>
<path d="M56.0213 90.1342H45.6875C45.5312 90.134 45.3813 90.0648 45.2707 89.9416C45.1602 89.8184 45.098 89.6514 45.0978 89.4772V79.2281C45.098 79.0539 45.1602 78.8869 45.2707 78.7637C45.3813 78.6405 45.5312 78.5713 45.6875 78.5711H56.0213C56.1776 78.5713 56.3275 78.6405 56.4381 78.7637C56.5486 78.8869 56.6108 79.0539 56.611 79.2281V89.4772C56.6108 89.6514 56.5486 89.8184 56.4381 89.9416C56.3275 90.0648 56.1776 90.134 56.0213 90.1342Z" fill="#EAEDF6"/>
<path d="M91.7955 39.6172H70.267C69.9409 39.6172 69.6281 39.4729 69.3975 39.2159C69.1669 38.959 69.0373 38.6105 69.0373 38.2471C69.0373 37.8837 69.1669 37.5352 69.3975 37.2782C69.6281 37.0212 69.9409 36.8769 70.267 36.8769H91.7955C92.1216 36.8769 92.4344 37.0212 92.665 37.2782C92.8956 37.5352 93.0252 37.8837 93.0252 38.2471C93.0252 38.6105 92.8956 38.959 92.665 39.2159C92.4344 39.4729 92.1216 39.6172 91.7955 39.6172Z" fill="#EAEDF6"/>
<path d="M96.868 44.2416H70.267C70.1055 44.2416 69.9456 44.2061 69.7964 44.1373C69.6472 44.0684 69.5117 43.9675 69.3975 43.8402C69.2833 43.713 69.1927 43.562 69.1309 43.3957C69.0691 43.2295 69.0373 43.0513 69.0373 42.8714C69.0373 42.6915 69.0691 42.5133 69.1309 42.347C69.1927 42.1808 69.2833 42.0298 69.3975 41.9025C69.5117 41.7753 69.6472 41.6744 69.7964 41.6055C69.9456 41.5367 70.1055 41.5012 70.267 41.5012H96.868C97.1942 41.5012 97.507 41.6456 97.7376 41.9025C97.9682 42.1595 98.0978 42.508 98.0978 42.8714C98.0978 43.2348 97.9682 43.5833 97.7376 43.8402C97.507 44.0972 97.1942 44.2416 96.868 44.2416Z" fill="#EAEDF6"/>
<path d="M65.5022 49.8456H45.6549C45.4985 49.8454 45.3487 49.7761 45.2381 49.653C45.1276 49.5298 45.0654 49.3628 45.0652 49.1886V31.9297C45.0654 31.7555 45.1276 31.5885 45.2381 31.4654C45.3487 31.3422 45.4985 31.2729 45.6549 31.2727H65.5022C65.6586 31.2729 65.8084 31.3422 65.919 31.4654C66.0295 31.5885 66.0917 31.7555 66.0919 31.9297V49.1886C66.0917 49.3628 66.0295 49.5298 65.919 49.653C65.8084 49.7761 65.6586 49.8454 65.5022 49.8456Z" fill="#FFBA00"/>
</g>
<defs>
<clipPath id="clip0">
<rect width="120" height="120" fill="white"/>
</clipPath>
</defs>
</svg>
