<svg width="122" height="122" viewBox="0 0 122 122" fill="none" xmlns="http://www.w3.org/2000/svg">
<path d="M74.2427 45.8085L82.984 46.7325L116.344 50.2753L116.421 50.2836L116.531 50.3019C118.842 50.6691 120.414 53.17 120.112 55.9949L113.958 113.462C113.836 114.751 113.294 115.965 112.415 116.919C111.581 117.798 110.526 118.282 109.448 118.282H109.253H109.175L109.065 118.27L75.706 114.719L66.9646 113.792L74.2427 45.8085ZM73.9907 45.4978L66.6493 114.042L75.6743 115L109.033 118.542L109.235 118.564H109.445C111.826 118.564 113.928 116.385 114.237 113.492L120.39 56.0282C120.709 53.0504 119.012 50.4132 116.573 50.026L116.371 50.0044L83.0141 46.455L73.9907 45.4978Z" fill="#1A1A4B" stroke="#6B7EC1" stroke-width="2"/>
<path d="M45.5866 110.391C44.7958 110.388 44.0326 110.101 43.4382 109.582C42.8437 109.062 42.4582 108.346 42.353 107.566L29.4037 10.5073C29.2889 9.65215 29.52 8.78659 30.0459 8.10102C30.5719 7.41544 31.3498 6.96601 32.2084 6.85154L75.2443 1.1701C75.3865 1.15159 75.5297 1.14215 75.6731 1.14185C76.4641 1.14403 77.2275 1.43132 77.8222 1.95063C78.4169 2.46993 78.8028 3.18612 78.9084 3.96678L91.856 101.022C91.9699 101.876 91.7387 102.741 91.2133 103.427C90.6878 104.112 89.9109 104.562 89.0529 104.677L46.0154 110.362C45.8732 110.381 45.73 110.39 45.5866 110.391Z" fill="white"/>
<path d="M75.6731 1.28249C76.429 1.2845 77.1587 1.55886 77.7273 2.0549C78.2959 2.55094 78.665 3.23514 78.7666 3.98114L91.7159 101.038C91.8217 101.854 91.599 102.679 91.0964 103.333C90.5938 103.987 89.852 104.416 89.0329 104.527L45.997 110.222C45.8609 110.24 45.7238 110.249 45.5865 110.249C44.8309 110.247 44.1015 109.973 43.5329 109.477C42.9644 108.981 42.595 108.297 42.4931 107.552L29.5455 10.4951C29.4383 9.67856 29.6602 8.85297 30.1627 8.19899C30.6652 7.545 31.4074 7.11587 32.2268 7.00549L75.2627 1.31074C75.3987 1.2923 75.5358 1.28286 75.6731 1.28249ZM75.6731 1C75.5236 1.00014 75.3742 1.01013 75.226 1.02991L32.1901 6.72465C31.2962 6.84539 30.4866 7.31357 29.9383 8.02691C29.3899 8.74025 29.1473 9.64076 29.2635 10.5317L42.2128 107.588C42.3236 108.402 42.7263 109.148 43.3464 109.689C43.9665 110.23 44.7622 110.529 45.5865 110.531C45.7361 110.531 45.8855 110.521 46.0337 110.501L89.0713 104.807C89.9649 104.685 90.774 104.217 91.322 103.504C91.8701 102.79 92.1124 101.89 91.9962 100.999L79.0485 3.94292C78.937 3.12938 78.534 2.38341 77.9136 1.84257C77.2933 1.30173 76.4976 1.00248 75.6731 1Z" fill="#FFBA00" stroke="#6B7EC1" stroke-width="2"/>
<path d="M85.167 105.323L89.0713 104.807C89.9649 104.686 90.774 104.217 91.3221 103.504C91.8701 102.791 92.1124 101.89 91.9962 101L79.0486 3.94307C78.9258 3.05403 78.455 2.24942 77.7389 1.70466C77.0228 1.15991 76.1196 0.91921 75.226 1.03505L71.3217 1.55184L85.167 105.323Z" fill="#6B7EC1"/>
<path d="M78.8149 36.2601L33.4965 42.2573" stroke="#6B7EC1" stroke-width="2" stroke-miterlimit="10"/>
<path d="M53.0712 33.4471C59.5216 33.4471 64.7508 28.2392 64.7508 21.815C64.7508 15.3907 59.5216 10.1829 53.0712 10.1829C46.6207 10.1829 41.3916 15.3907 41.3916 21.815C41.3916 28.2392 46.6207 33.4471 53.0712 33.4471Z" fill="#FFBA00"/>
<path d="M76.5659 94.8189L69.7074 42.8021L66.4682 43.2257L73.3266 95.2425L76.5659 94.8189Z" fill="#EAEDF6"/>
<path d="M66.9068 76.68L62.5373 43.9344L59.2938 44.3637L63.6633 77.1093L66.9068 76.68Z" fill="#EAEDF6"/>
<path d="M51.5798 42.9819L59.9473 105.696" stroke="#6B7EC1" stroke-width="2" stroke-miterlimit="10" stroke-linecap="round"/>
<path d="M46.4823 47.0469L46.3528 46.0767L40.6797 46.8275L40.8092 47.7977L46.4823 47.0469Z" fill="#1A1A4B"/>
<path d="M47.8417 57.2379L47.7122 56.2677L42.0391 57.0185L42.1685 57.9888L47.8417 57.2379Z" fill="#1A1A4B"/>
<path d="M48.6005 62.9279L48.471 61.9576L42.7979 62.7085L42.9274 63.6787L48.6005 62.9279Z" fill="#1A1A4B"/>
<path d="M49.7359 71.4412L49.6064 70.4709L43.9333 71.2218L44.0628 72.192L49.7359 71.4412Z" fill="#1A1A4B"/>
<path d="M47.1267 51.8759L46.7475 49.0344L41.0744 49.7853L41.4536 52.6268L47.1267 51.8759Z" fill="#1A1A4B"/>
<path d="M48.2684 60.4404L47.8892 57.5989L42.2161 58.3498L42.5953 61.1913L48.2684 60.4404Z" fill="#1A1A4B"/>
<path d="M49.5093 69.7407L49.1302 66.8992L43.4571 67.65L43.8362 70.4915L49.5093 69.7407Z" fill="#1A1A4B"/>
<path d="M50.2914 75.604L50.102 74.1841L44.4289 74.9349L44.6183 76.3549L50.2914 75.604Z" fill="#1A1A4B"/>
<path d="M46.6545 48.3372L46.6044 47.9617L40.9312 48.7126L40.9814 49.0881L46.6545 48.3372Z" fill="#1A1A4B"/>
<path d="M50.9517 80.554L50.8223 79.5837L45.1491 80.3346L45.2786 81.3048L50.9517 80.554Z" fill="#1A1A4B"/>
<path d="M51.5526 85.0544L51.1734 82.2129L45.5003 82.9638L45.8795 85.8053L51.5526 85.0544Z" fill="#1A1A4B"/>
<path d="M51.0821 81.5152L51.032 81.1396L45.3589 81.8905L45.409 82.2661L51.0821 81.5152Z" fill="#1A1A4B"/>
<path d="M49.8391 72.2092L49.7889 71.8336L44.1158 72.5845L44.1659 72.9601L49.8391 72.2092Z" fill="#1A1A4B"/>
<path d="M50.0552 73.6021L50.0057 73.2271L44.34 73.9681L44.3894 74.3431L50.0552 73.6021Z" fill="#1A1A4B"/>
<path d="M19.7212 120.857C18.8619 120.855 18.0269 120.573 17.344 120.054C16.6611 119.534 16.1681 118.806 15.9404 117.981L1.28086 64.6392C1.00689 63.6403 1.14248 62.574 1.65781 61.6746C2.17315 60.7753 3.02603 60.1166 4.0289 59.8435L10.5361 58.0704C11.1735 60.2224 12.6329 62.0396 14.6008 63.1317C16.5688 64.2237 18.8883 64.5036 21.0611 63.9111C23.234 63.3187 25.0869 61.9011 26.2218 59.963C27.3568 58.0249 27.6832 55.7207 27.1311 53.5455L33.6383 51.7724C34.1351 51.6364 34.654 51.5993 35.1653 51.6632C35.6766 51.7272 36.1701 51.891 36.6177 52.1452C37.0654 52.3995 37.4582 52.7391 37.7738 53.1448C38.0894 53.5505 38.3216 54.0142 38.457 54.5093L53.1165 107.851C53.3901 108.85 53.2544 109.917 52.7392 110.816C52.224 111.716 51.3713 112.376 50.3685 112.65L43.8613 114.423C43.2336 112.26 41.7762 110.429 39.8041 109.327C37.832 108.226 35.5038 107.942 33.323 108.536C31.1421 109.131 29.2839 110.556 28.1502 112.505C27.0165 114.453 26.6983 116.768 27.2646 118.948L20.7574 120.721C20.4197 120.812 20.0712 120.858 19.7212 120.857Z" fill="white"/>
<path d="M34.6727 51.7742C35.5003 51.776 36.3046 52.0476 36.9626 52.5475C37.6207 53.0474 38.0962 53.7482 38.3167 54.5426L52.9763 107.884C53.1074 108.361 53.1429 108.859 53.0808 109.349C53.0186 109.84 52.8601 110.313 52.6142 110.743C52.3683 111.172 52.0399 111.549 51.6477 111.852C51.2555 112.155 50.8071 112.378 50.3283 112.509L43.9563 114.249C43.2921 112.08 41.8051 110.255 39.8114 109.161C37.8176 108.067 35.4742 107.79 33.2788 108.389C31.0834 108.989 29.209 110.417 28.0539 112.37C26.8989 114.324 26.554 116.649 27.0927 118.852L20.7223 120.588C20.2434 120.719 19.7433 120.755 19.2505 120.693C18.7578 120.632 18.2821 120.474 17.8506 120.229C17.4192 119.984 17.0405 119.657 16.7362 119.266C16.4318 118.875 16.2079 118.428 16.0771 117.951L1.41761 64.6094C1.15421 63.6464 1.28506 62.6188 1.78146 61.7518C2.27787 60.8848 3.09929 60.2494 4.06554 59.9848L10.4342 58.2483C11.0834 60.4341 12.567 62.2794 14.5666 63.3883C16.5663 64.4971 18.9227 64.7812 21.1303 64.1794C23.3378 63.5777 25.2206 62.1382 26.3746 60.1697C27.5286 58.2012 27.8618 55.8607 27.3029 53.6503L33.6716 51.9138C33.9977 51.8245 34.3345 51.7792 34.6727 51.7792V51.7742ZM34.6727 51.4967C34.3091 51.4968 33.9472 51.5455 33.5965 51.6413L26.9542 53.4459C26.9625 53.4741 26.9725 53.5024 26.9792 53.529C27.2727 54.5965 27.3522 55.7112 27.2132 56.8093C27.0741 57.9074 26.7193 58.9676 26.1689 59.9291C25.6185 60.8907 24.8833 61.7348 24.0053 62.4134C23.1273 63.092 22.1237 63.5917 21.0518 63.884C19.9799 64.1763 18.8607 64.2555 17.7581 64.117C16.6555 63.9786 15.591 63.6252 14.6255 63.077C13.6601 62.5288 12.8125 61.7966 12.1311 60.9222C11.4497 60.0478 10.948 59.0483 10.6545 57.9807C10.6545 57.9525 10.6411 57.9242 10.6328 57.896L3.99045 59.7073C2.95113 59.9909 2.06743 60.674 1.53365 61.6063C0.999869 62.5386 0.859705 63.6439 1.14397 64.6792L15.8035 118.021C15.9439 118.534 16.1845 119.014 16.5115 119.434C16.8386 119.854 17.2456 120.206 17.7092 120.469C18.1729 120.733 18.6842 120.902 19.2138 120.969C19.7435 121.035 20.281 120.996 20.7957 120.856L27.4364 119.046C26.8438 116.89 27.1356 114.587 28.2475 112.645C29.3595 110.704 31.2004 109.281 33.3654 108.691C35.5304 108.101 37.8422 108.391 39.792 109.499C41.7419 110.606 43.1702 112.44 43.7627 114.596L50.4034 112.785C51.4427 112.501 52.3264 111.818 52.8602 110.886C53.394 109.953 53.5342 108.848 53.2499 107.813L38.5904 54.4712C38.355 53.6158 37.8443 52.8611 37.1365 52.3228C36.4288 51.7845 35.5632 51.4926 34.6727 51.4917V51.4967Z" stroke="#6B7EC1" stroke-width="2"/>
<path d="M17.2381 88.1447L16.6265 88.3114L21.0836 104.526L21.6952 104.36L17.2381 88.1447Z" fill="#1A1A4B"/>
<path d="M23.4553 86.4498L22.8438 86.6166L27.3009 102.832L27.9124 102.665L23.4553 86.4498Z" fill="#1A1A4B"/>
<path d="M25.8121 85.4085L25.2034 85.5726L29.5922 101.712L30.2009 101.548L25.8121 85.4085Z" fill="#1A1A4B"/>
<path d="M31.4759 84.2622L30.8644 84.429L35.3215 100.644L35.933 100.477L31.4759 84.2622Z" fill="#1A1A4B"/>
<path d="M20.0754 87.3711L18.2843 87.8594L22.7414 104.075L24.5326 103.586L20.0754 87.3711Z" fill="#1A1A4B"/>
<path d="M25.4749 85.8989L23.6837 86.3873L28.1409 102.602L29.932 102.114L25.4749 85.8989Z" fill="#1A1A4B"/>
<path d="M30.6098 84.4999L28.8187 84.9882L33.2757 101.203L35.0669 100.715L30.6098 84.4999Z" fill="#1A1A4B"/>
<path d="M33.5802 83.6899L32.6854 83.9339L37.1425 100.149L38.0373 99.905L33.5802 83.6899Z" fill="#1A1A4B"/>
<path d="M17.3705 87.6728L17.1351 87.7364L21.5239 103.876L21.7594 103.812L17.3705 87.6728Z" fill="#1A1A4B"/>
<path d="M36.1635 82.6311L35.5548 82.7953L39.9437 98.9345L40.5524 98.7704L36.1635 82.6311Z" fill="#1A1A4B"/>
<path d="M39.5399 82.0636L37.7487 82.5519L42.2059 98.767L43.997 98.2787L39.5399 82.0636Z" fill="#1A1A4B"/>
<path d="M37.3094 82.6719L37.0728 82.7364L41.5299 98.9515L41.7665 98.887L37.3094 82.6719Z" fill="#1A1A4B"/>
<path d="M31.9611 84.1315L31.7245 84.196L36.1816 100.411L36.4182 100.347L31.9611 84.1315Z" fill="#1A1A4B"/>
<path d="M31.9177 83.7717L31.6822 83.8352L36.0711 99.9744L36.3066 99.9109L31.9177 83.7717Z" fill="#1A1A4B"/>
<path d="M23.2417 72.2595L8.48285 76.2834L9.34987 79.4376L24.1088 75.4137L23.2417 72.2595Z" fill="#EAEDF6"/>
<path d="M17.0438 78.5672L9.66351 80.5793L10.097 82.1564L17.4773 80.1443L17.0438 78.5672Z" fill="#EAEDF6"/>
<path d="M34.8761 76.042C37.1918 76.042 39.0691 74.1724 39.0691 71.8661C39.0691 69.5598 37.1918 67.6902 34.8761 67.6902C32.5604 67.6902 30.6832 69.5598 30.6832 71.8661C30.6832 74.1724 32.5604 76.042 34.8761 76.042Z" fill="#FFBA00"/>
<path d="M121 43.4161L87.8715 37.9363L80.9929 79.1837L114.121 84.6635L121 43.4161Z" fill="#FFBA00"/>
<path d="M106.417 118.1C106.349 118.1 106.282 118.1 106.213 118.1H106.097L63.7765 113.614L71.0912 45.33L113.471 49.8316L113.531 49.8432C115.916 50.2221 117.536 52.7911 117.231 55.6925L111.077 113.155C110.78 115.928 108.741 118.1 106.427 118.1H106.417Z" fill="white" stroke="#6B7EC1" stroke-width="2"/>
<path d="M71.2113 45.486L79.9526 46.4133L113.304 49.9577H113.381L113.493 49.976C115.802 50.3433 117.376 52.8442 117.074 55.6708L110.92 113.133C110.797 114.422 110.255 115.636 109.377 116.59C108.543 117.469 107.488 117.952 106.41 117.952C106.345 117.952 106.278 117.952 106.215 117.952H106.137L106.026 117.941L72.6729 114.396L63.9315 113.469L71.2113 45.486ZM70.9593 45.1753L63.6179 113.72L72.6412 114.679L106.001 118.222L106.203 118.243H106.415C108.796 118.243 110.897 116.065 111.207 113.172L117.362 55.7057C117.681 52.7262 115.984 50.0907 113.543 49.7018L113.339 49.6802L79.9826 46.1325L70.9593 45.1753Z" fill="#1A1A4B"/>
<path d="M106.295 61.4083L79.9697 58.6111L79.4723 63.2542L105.797 66.0514L106.295 61.4083Z" fill="#EAEDF6"/>
</svg>
