<svg width="512" height="512" viewBox="0 0 512 512" fill="none" xmlns="http://www.w3.org/2000/svg">
<path d="M256 8C119 8 8 119 8 256C8 393 119 504 256 504C393 504 504 393 504 256C504 119 393 8 256 8ZM348.49 321L328.49 346C327.177 347.641 325.555 349.007 323.714 350.021C321.873 351.035 319.851 351.676 317.763 351.908C315.674 352.14 313.561 351.959 311.542 351.374C309.524 350.789 307.641 349.813 306 348.5L239 298.78C234.319 295.032 230.54 290.279 227.943 284.873C225.347 279.467 223.999 273.547 224 267.55V112C224 107.757 225.686 103.687 228.686 100.686C231.687 97.6857 235.757 96 240 96H272C276.243 96 280.313 97.6857 283.314 100.686C286.314 103.687 288 107.757 288 112V256L346 298.5C347.642 299.813 349.008 301.437 350.022 303.279C351.036 305.121 351.677 307.144 351.908 309.234C352.139 311.324 351.956 313.438 351.37 315.457C350.783 317.476 349.805 319.36 348.49 321Z" fill="#302F2F"/>
</svg>
