<svg width="640" height="512" viewBox="0 0 640 512" fill="none" xmlns="http://www.w3.org/2000/svg">
<g clip-path="url(#clip0_6_12)">
<path d="M320 400C244.15 400 182.75 341.29 177.1 266.89L72.2 185.82C58.41 203.12 45.72 221.41 35.48 241.41C33.1925 245.935 32.0006 250.935 32.0006 256.005C32.0006 261.075 33.1925 266.075 35.48 270.6C89.71 376.41 197.07 448 320 448C346.91 448 372.87 444 397.89 437.54L346 397.39C337.43 399.045 328.728 399.919 320 400ZM633.82 458.1L523.27 372.66C556.852 344.359 584.471 309.663 604.52 270.59C606.808 266.065 608 261.065 608 255.995C608 250.925 606.808 245.925 604.52 241.4C550.29 135.59 442.93 64 320 64C268.515 64.0624 217.866 77.0237 172.68 101.7L45.46 3.37C43.8011 2.07908 41.904 1.1277 39.8772 0.570251C37.8504 0.0127983 35.7336 -0.13981 33.6478 0.121148C31.562 0.382105 29.548 1.05151 27.7211 2.09112C25.8941 3.13073 24.2898 4.52015 23 6.18L3.37003 31.45C0.766019 34.7998 -0.400823 39.0468 0.126138 43.2569C0.6531 47.467 2.83071 51.2953 6.18003 53.9L594.54 508.63C596.199 509.921 598.096 510.872 600.123 511.43C602.15 511.987 604.266 512.14 606.352 511.879C608.438 511.618 610.452 510.948 612.279 509.909C614.106 508.869 615.71 507.48 617 505.82L636.64 480.55C639.243 477.199 640.408 472.951 639.879 468.741C639.35 464.531 637.171 460.703 633.82 458.1ZM450.1 316.1L410.8 285.72C414.11 276.155 415.865 266.121 416 256C416.195 241.183 412.912 226.526 406.416 213.207C399.919 199.889 390.389 188.28 378.592 179.312C366.794 170.345 353.058 164.269 338.487 161.573C323.915 158.878 308.915 159.637 294.69 163.79C300.72 171.961 303.982 181.845 304 192C303.851 195.379 303.334 198.732 302.46 202L228.85 145.11C254.42 123.742 286.677 112.025 320 112C338.913 111.989 357.643 115.707 375.119 122.94C392.595 130.173 408.473 140.779 421.847 154.153C435.221 167.527 445.827 183.406 453.06 200.881C460.293 218.357 464.011 237.087 464 256C464 277.63 458.71 297.79 450.1 316.11V316.1Z" fill="#302F2F"/>
</g>
<defs>
<clipPath id="clip0_6_12">
<rect width="640" height="512" fill="white"/>
</clipPath>
</defs>
</svg>
