<svg width="512" height="512" viewBox="0 0 512 512" fill="none" xmlns="http://www.w3.org/2000/svg">
<path d="M496 128V144C496 146.122 495.157 148.157 493.657 149.657C492.157 151.157 490.122 152 488 152H464V164C464 170.627 458.627 176 452 176H60C53.373 176 48 170.627 48 164V152H24C21.8783 152 19.8434 151.157 18.3431 149.657C16.8429 148.157 16 146.122 16 144V128C16 126.417 16.4695 124.87 17.349 123.554C18.2285 122.239 19.4786 121.213 20.941 120.608L252.941 32.608C254.9 31.797 257.1 31.797 259.059 32.608L491.059 120.608C492.521 121.213 493.771 122.239 494.651 123.554C495.531 124.87 496 126.417 496 128ZM472 432H40C26.745 432 16 442.745 16 456V472C16 474.122 16.8429 476.157 18.3431 477.657C19.8434 479.157 21.8783 480 24 480H488C490.122 480 492.157 479.157 493.657 477.657C495.157 476.157 496 474.122 496 472V456C496 442.745 485.255 432 472 432ZM96 192V384H60C53.373 384 48 389.373 48 396V416H464V396C464 389.373 458.627 384 452 384H416V192H352V384H288V192H224V384H160V192H96Z" fill="#302F2F"/>
</svg>
