<svg width="448" height="512" viewBox="0 0 448 512" fill="none" xmlns="http://www.w3.org/2000/svg">
<g clip-path="url(#clip0_6_30)">
<path d="M224 256C294.7 256 352 198.7 352 128C352 57.3 294.7 0 224 0C153.3 0 96 57.3 96 128C96 198.7 153.3 256 224 256ZM313.6 288H296.9C274.7 298.2 250 304 224 304C198 304 173.4 298.2 151.1 288H134.4C60.2 288 0 348.2 0 422.4V464C0 490.5 21.5 512 48 512H400C426.5 512 448 490.5 448 464V422.4C448 348.2 387.8 288 313.6 288Z" fill="#302F2F"/>
</g>
<defs>
<clipPath id="clip0_6_30">
<rect width="448" height="512" fill="white"/>
</clipPath>
</defs>
</svg>
