<svg width="121" height="101" viewBox="0 0 121 101" fill="none" xmlns="http://www.w3.org/2000/svg">
<path d="M67.0769 4.91144H0V45.059H67.0769V4.91144Z" fill="#EAEDF6"/>
<path d="M67.3078 1H8.2309C6.02176 1 4.2309 2.79086 4.2309 5V37.1476C4.2309 39.3567 6.02176 41.1476 8.23089 41.1476H67.3078C69.5169 41.1476 71.3078 39.3567 71.3078 37.1476V5C71.3078 2.79086 69.517 1 67.3078 1Z" stroke="#6B7EC1" stroke-width="2" stroke-miterlimit="10"/>
<path d="M48.072 30.8108C50.0945 28.8704 51.4718 26.3982 52.0298 23.7068C52.5878 21.0154 52.3015 18.2257 51.2069 15.6905C50.1123 13.1552 48.2588 10.9883 45.8806 9.46376C43.5024 7.9392 40.7064 7.12547 37.8462 7.12547V21L48.072 30.8108Z" fill="#1A1A4B"/>
<path d="M37.8458 7.12547C34.6315 7.12584 31.5089 8.15348 28.9711 10.0461C26.4333 11.9387 24.625 14.5885 23.8317 17.577C23.0384 20.5654 23.3053 23.7222 24.5903 26.549C25.8753 29.3757 28.1051 31.7111 30.9277 33.1866L37.8458 21V7.12547Z" fill="#FFBA00"/>
<path d="M48.0717 30.8108L37.8459 21L30.9277 33.1866C33.67 34.618 36.8214 35.1601 39.9112 34.732C43.0011 34.3038 45.8637 32.9282 48.0717 30.8108Z" fill="#6B7EC1"/>
<path d="M9.53827 32.8082H6.76904V35.465H9.53827V32.8082Z" fill="#FFBA00"/>
<path d="M13.5383 32.8082H10.769V35.465H13.5383V32.8082Z" fill="#1A1A4B"/>
<path d="M17.5383 32.8082H14.769V35.465H17.5383V32.8082Z" fill="#6B7EC1"/>
<path d="M65.9998 33.3985H54.6152V33.8413H65.9998V33.3985Z" fill="#1A1A4B"/>
<path d="M65.9998 34.7269H54.6152V35.1697H65.9998V34.7269Z" fill="#1A1A4B"/>
<path d="M65.9998 36.0554H54.6152V36.4982H65.9998V36.0554Z" fill="#1A1A4B"/>
<path d="M59.2305 60.8524H21.0767V101H59.2305V60.8524Z" fill="#EAEDF6"/>
<path d="M59.0772 57.0148H28.9233C26.7142 57.0148 24.9233 58.8056 24.9233 61.0148V93.1623C24.9233 95.3715 26.7142 97.1623 28.9233 97.1623H59.0772C61.2863 97.1623 63.0772 95.3715 63.0772 93.1623V61.0148C63.0772 58.8056 61.2863 57.0148 59.0772 57.0148Z" stroke="#6B7EC1" stroke-width="2" stroke-miterlimit="10"/>
<path d="M28.9805 92.6331H26.9233V94.6067H28.9805V92.6331Z" fill="#FFBA00"/>
<path d="M31.9517 92.6331H29.8945V94.6067H31.9517V92.6331Z" fill="#1A1A4B"/>
<path d="M34.9234 92.6331H32.8662V94.6067H34.9234V92.6331Z" fill="#6B7EC1"/>
<path d="M58 93.4903H50V93.8014H58V93.4903Z" fill="#1A1A4B"/>
<path d="M58 94.4237H50V94.7349H58V94.4237Z" fill="#1A1A4B"/>
<path d="M58 95.3572H50V95.6683H58V95.3572Z" fill="#1A1A4B"/>
<path d="M44 64.0996V67.3468C46.0082 67.3468 47.9714 67.9181 49.6412 68.9886C51.311 70.059 52.6124 71.5805 53.3809 73.3605C54.1495 75.1406 54.3505 77.0993 53.9587 78.989C53.567 80.8787 52.5999 82.6145 51.1799 83.9769L53.5731 86.2731C55.4665 84.4565 56.7559 82.1421 57.2783 79.6225C57.8007 77.1029 57.5326 74.4913 56.5079 72.1179C55.4832 69.7444 53.748 67.7158 51.5216 66.2886C49.2952 64.8614 46.6777 64.0996 44 64.0996Z" fill="#1A1A4B"/>
<path d="M53.573 86.2731L51.1798 83.977C49.4438 85.6428 47.1373 86.6486 44.6877 86.808C42.238 86.9673 39.8111 86.2694 37.8567 84.8437L35.8081 87.4297C38.4145 89.3303 41.6504 90.2603 44.9167 90.0477C48.1829 89.835 51.2582 88.4941 53.573 86.2731Z" fill="#6B7EC1"/>
<path d="M33.846 77.0885C33.846 74.5048 34.9158 72.027 36.82 70.2001C38.7242 68.3732 41.3069 67.3468 43.9999 67.3468V64.0996C41.1658 64.0996 38.4031 64.9529 36.1013 66.5392C33.7995 68.1256 32.0746 70.365 31.1699 72.9418C30.2651 75.5186 30.226 78.3028 31.0581 80.902C31.8903 83.5013 33.5516 85.7844 35.8081 87.4297L37.8567 84.8436C36.6093 83.9359 35.5981 82.7633 34.9023 81.4178C34.2064 80.0723 33.8449 78.5905 33.846 77.0885Z" fill="#FFBA00"/>
<path d="M116.154 35.7601H78V75.9077H116.154V35.7601Z" fill="#EAEDF6"/>
<path d="M116 31.9225H85.8462C83.6371 31.9225 81.8462 33.7134 81.8462 35.9225V68.0701C81.8462 70.2793 83.6371 72.0701 85.8462 72.0701H116C118.209 72.0701 120 70.2793 120 68.0701V35.9225C120 33.7134 118.209 31.9225 116 31.9225Z" stroke="#6B7EC1" stroke-width="2" stroke-miterlimit="10"/>
<path d="M85.5386 34.4317V65.1328H116.462" stroke="#1A1A4B" stroke-width="2" stroke-miterlimit="10"/>
<path d="M94.154 54.3579H87.231V64.9852H94.154V54.3579Z" fill="#6B7EC1"/>
<path d="M104.154 47.1254H97.231V64.9852H104.154V47.1254Z" fill="#1A1A4B"/>
<path d="M114.154 38.7121H107.23V64.9852H114.154V38.7121Z" fill="#FFBA00"/>
<path d="M87.1338 67.5409H85.0767V69.5145H87.1338V67.5409Z" fill="#FFBA00"/>
<path d="M90.1055 67.5409H88.0483V69.5145H90.1055V67.5409Z" fill="#1A1A4B"/>
<path d="M93.0772 67.5409H91.02V69.5145H93.0772V67.5409Z" fill="#6B7EC1"/>
<path d="M116.153 68.398H108.153V68.7092H116.153V68.398Z" fill="#1A1A4B"/>
<path d="M116.153 69.3314H108.153V69.6426H116.153V69.3314Z" fill="#1A1A4B"/>
<path d="M116.153 70.265H108.153V70.5761H116.153V70.265Z" fill="#1A1A4B"/>
</svg>
