<svg width="48" height="48" viewBox="0 0 48 48" fill="none" xmlns="http://www.w3.org/2000/svg">
<g clip-path="url(#clip0)">
<path d="M5.40002 30.9L11.4 25.5L10.8 23.4L3.00002 27L0.900024 30.3V39.6H5.40002V30.9Z" fill="#F41B72"/>
<path fill-rule="evenodd" clip-rule="evenodd" d="M30.7318 20.2488C30.8515 19.8379 30.9713 19.4269 31.1128 19.0261C31.2761 18.555 31.4176 18.4949 31.8857 18.7254C32.6913 19.1062 33.5404 19.3267 34.4331 19.4269C35.0101 19.4971 35.5762 19.437 36.1096 19.2265C37.1002 18.8356 37.2527 17.7733 36.4144 17.1319C36.1314 16.9214 35.8048 16.7611 35.4673 16.6207C35.2002 16.5132 34.9301 16.4131 34.66 16.3131C34.0494 16.087 33.4391 15.8611 32.8655 15.5484C31.5374 14.8067 30.6883 13.7945 30.7862 12.3012C30.906 10.6075 31.9402 9.54512 33.6275 8.98388C33.6414 8.9793 33.655 8.97481 33.6683 8.97042C34.3247 8.7535 34.3351 8.75005 34.3351 8.09191C34.3351 8.0147 34.3339 7.93862 34.3327 7.8629C34.3303 7.71257 34.3279 7.56371 34.3351 7.41041C34.346 6.9093 34.444 6.8191 34.9883 6.80908H35.5C36.6648 6.80908 36.6648 6.80908 36.6648 7.88146C36.6757 8.64313 36.6757 8.64313 37.4922 8.7634C38.1236 8.8536 38.7223 9.02397 39.2993 9.25448C39.615 9.38477 39.7347 9.58521 39.6367 9.8959C39.5758 10.0803 39.5183 10.2647 39.4608 10.4491C39.3746 10.7257 39.2884 11.0023 39.1904 11.279C39.038 11.7099 38.8856 11.77 38.4393 11.5696C37.5357 11.1687 36.5777 10.9983 35.5762 11.0484C35.3149 11.0585 35.0536 11.0885 34.8141 11.1888C33.9432 11.5395 33.8017 12.4215 34.542 12.9627C34.9121 13.2333 35.3367 13.4337 35.783 13.6041C35.8722 13.6381 35.9616 13.672 36.051 13.7059C36.7254 13.9617 37.4034 14.2188 38.0473 14.5462C40.3661 15.7288 40.9866 18.4147 39.3537 20.2387C38.7658 20.9002 37.9929 21.3412 37.1002 21.5717C36.7083 21.6719 36.5342 21.8623 36.5559 22.2331C36.5704 22.48 36.5656 22.7224 36.5608 22.9662C36.5584 23.0887 36.5559 23.2116 36.5559 23.3356C36.5559 23.6663 36.3709 23.8367 36.0225 23.8467C35.5871 23.8567 35.1516 23.8567 34.727 23.8467C34.3569 23.8367 34.1718 23.6463 34.1718 23.3055C34.161 23.045 34.161 22.7745 34.161 22.5039V22.5037C34.161 21.9124 34.1392 21.8824 33.5187 21.7922C32.724 21.6819 31.9511 21.5115 31.2217 21.1908C30.6447 20.9403 30.5903 20.8 30.7318 20.2488ZM30.9703 20.5048C30.9702 20.5047 30.9729 20.5058 30.9785 20.5084C30.9732 20.5062 30.9704 20.5049 30.9703 20.5048ZM39.2808 9.75453C39.2808 9.75463 39.2781 9.7536 39.2723 9.75114C39.2778 9.75321 39.2807 9.75444 39.2808 9.75453ZM36.3363 7.41425C36.3364 7.41437 36.3362 7.41753 36.3357 7.42337C36.336 7.41705 36.3363 7.41413 36.3363 7.41425ZM33.0125 19.6541C33.0126 19.6542 33.0112 19.6578 33.0085 19.6644C33.0111 19.6572 33.0125 19.6539 33.0125 19.6541Z" fill="#F41B72"/>
<path fill-rule="evenodd" clip-rule="evenodd" d="M17.7119 0.00403392C17.0043 -0.0260325 9.76496 -0.086165 9.37305 7.87141C9.37305 7.87141 7.96873 19.7877 17.6575 19.8779H17.7663C27.466 19.7877 26.0508 7.87141 26.0508 7.87141C25.648 -0.086165 18.4195 -0.0260325 17.7119 0.00403392ZM17.6671 17.8779C15.6977 17.8578 14.4603 17.2544 13.6281 16.4905C12.7552 15.6892 12.171 14.5638 11.8041 13.2881C11.4385 12.017 11.3226 10.7124 11.3047 9.69947C11.2959 9.1994 11.3112 8.78572 11.3281 8.50288C11.3365 8.36181 11.3453 8.25429 11.3515 8.18596C11.3546 8.15183 11.357 8.12757 11.3584 8.1139L11.3596 8.1029L11.3597 8.10184C11.3598 8.10117 11.3598 8.10113 11.3597 8.10184L11.3673 8.03783L11.3706 7.96979C11.5293 4.74859 12.9842 3.3999 14.3202 2.73038C15.8217 1.97789 17.4077 1.99291 17.627 2.00223L17.7119 2.00584L17.7968 2.00223C18.0159 1.99292 19.599 1.97784 21.0991 2.73013C22.4341 3.39968 23.8902 4.74939 24.0533 7.97251L24.0567 8.04009L24.0642 8.10316C24.0642 8.10244 24.0642 8.10249 24.0642 8.10316L24.0644 8.10469L24.0656 8.11567C24.067 8.12933 24.0695 8.15358 24.0726 8.18771C24.0789 8.25601 24.0878 8.36351 24.0963 8.50457C24.1134 8.78737 24.1291 9.20099 24.1206 9.70099C24.1035 10.7138 23.9885 12.0182 23.6236 13.2889C23.2574 14.5642 22.6737 15.6892 21.8006 16.4902C20.9682 17.254 19.7295 17.8578 17.7567 17.8779H17.6671Z" fill="#1A1A1A"/>
<path fill-rule="evenodd" clip-rule="evenodd" d="M11.4741 22.0928C11.4741 22.0928 10.7579 22.4123 9.65087 22.9413C8.06941 23.6971 5.69028 24.8807 3.46182 26.1718C0.609629 27.8254 0.0762036 29.5994 0 32.165L0.0108863 40.8342L7.69657 40.8442L14.8053 34.2997C15.0248 34.0977 15.2637 33.919 15.5183 33.7652C15.6728 33.6719 15.8332 33.5878 15.9985 33.5132C16.6008 33.2416 17.2687 33.0971 17.9623 33.0971C18.3752 33.0971 18.7791 33.1483 19.1654 33.2471C19.6787 33.3784 20.1611 33.5936 20.5926 33.8841C20.7781 34.009 20.9542 34.1477 21.1193 34.2997L27.4551 40.1326L35.4673 32.7563C35.4673 32.626 35.4673 32.4958 35.4565 32.3755V32.1851C35.4565 32.1751 35.4565 32.165 35.4456 32.155C35.3694 29.5893 34.8359 27.8054 31.9838 26.1618C29.7602 24.8757 27.3782 23.6904 25.7947 22.9328C24.6881 22.4033 23.9715 22.0828 23.9715 22.0828L20.6294 31.8844L18.659 26.7531C18.7074 26.691 18.7543 26.6298 18.7999 26.5693C22.0071 22.3172 18.4102 22.1027 17.7554 22.0928H17.7119C17.0679 22.1027 13.4605 22.3172 16.6675 26.5693C16.713 26.6298 16.76 26.691 16.8083 26.7531L14.8379 31.8844L11.4741 22.0928ZM17.2693 31.1317C17.4985 31.1087 17.7297 31.0971 17.9623 31.0971C18.037 31.0971 18.1116 31.0983 18.1861 31.1007L17.7337 29.9225L17.2693 31.1317ZM17.7338 24.5872C17.8477 24.3971 17.9287 24.239 17.9859 24.1107C17.8858 24.0985 17.7966 24.094 17.7377 24.0928H17.7305C17.6727 24.0941 17.583 24.0986 17.4823 24.1111C17.5392 24.2391 17.62 24.3971 17.7338 24.5872ZM22.4187 32.7781C22.4584 32.6986 22.4931 32.6157 22.5224 32.5299L25.1447 24.8392C25.3166 24.9219 25.4968 25.0091 25.6843 25.1006C27.1935 25.8366 29.1503 26.8334 30.9824 27.8931L30.9852 27.8946C32.1796 28.5829 32.7001 29.1882 32.9767 29.7265C33.2451 30.249 33.3852 30.9007 33.4346 31.9093L27.4551 37.4141L22.4739 32.8283L22.1813 33.1462C22.1813 33.1462 22.1813 33.1462 22.1813 33.1462L22.4739 32.8283C22.4556 32.8115 22.4372 32.7947 22.4187 32.7781ZM22.0156 33.3262C22.0156 33.3262 22.0156 33.3262 22.0156 33.3262V33.3262ZM6.91723 38.8432L13.0805 33.1691L13.2115 33.0485C13.1005 32.8935 13.0106 32.7209 12.9464 32.5342L10.3051 24.8456C10.133 24.9283 9.95255 25.0156 9.76478 25.1071C8.25767 25.8416 6.30169 26.8379 4.46498 27.902M6.91723 38.8432L2.00838 38.8368L2.00004 32.1943C2.03671 31.027 2.17678 30.3082 2.46842 29.7412C2.74517 29.2032 3.26733 28.5965 4.46498 27.902" fill="#1A1A1A"/>
<path fill-rule="evenodd" clip-rule="evenodd" d="M46.2012 35.0415C46.2139 35.0532 46.2266 35.065 46.2394 35.0768C46.4121 35.2371 46.59 35.4023 46.8435 35.4023C46.9414 35.4023 47.0503 35.3722 47.1809 35.3121C47.5837 35.1116 47.6708 34.7809 47.6926 34.4101C47.7416 33.4028 47.7933 32.3931 47.845 31.3834C47.8967 30.3736 47.9484 29.3639 47.9974 28.3567C48.0301 27.7353 47.7579 27.4647 47.1156 27.4647H47.0067C45.8855 27.5148 44.7615 27.5624 43.6375 27.61C42.8256 27.6444 42.0137 27.6788 41.2028 27.7141C41.1763 27.7153 41.1498 27.7165 41.1233 27.7176C41.0266 27.7218 40.93 27.7261 40.8333 27.7303C40.8269 27.7306 40.8205 27.7309 40.814 27.7312C40.632 27.7392 40.4501 27.7472 40.2682 27.7554C40.2594 27.7559 40.2507 27.7564 40.242 27.7569C39.9025 27.7761 39.5668 27.7952 39.3864 28.1763C39.1904 28.5571 39.4082 28.7776 39.6477 28.9981C39.8452 29.1829 40.0428 29.3676 40.2409 29.5519C40.2783 29.5867 40.3157 29.6215 40.3531 29.6563C40.3617 29.6642 40.3703 29.6722 40.3789 29.6802C40.3922 29.6926 40.4055 29.7049 40.4188 29.7172C40.4303 29.7279 40.4418 29.7385 40.4532 29.7491C40.873 30.1379 41.2959 30.5238 41.7269 30.9023L27.466 44.0213L19.0182 36.2441C18.7243 35.9735 18.3542 35.8432 17.9732 35.8432C17.5921 35.8432 17.2111 35.9735 16.9281 36.2441L8.79607 43.7307C8.2191 44.2618 8.2191 45.1338 8.79607 45.6649L9.1662 46.0057C9.46013 46.2763 9.83026 46.4066 10.2113 46.4066C10.5923 46.4066 10.9733 46.2763 11.2564 46.0057L17.9732 39.822L26.4209 47.5992C26.7148 47.8698 27.0849 48.0001 27.466 48.0001C27.847 48.0001 28.228 47.8698 28.511 47.5992L44.1654 33.1874L46.2012 35.0415ZM18.1106 37.23L17.9732 37.1035L10.2113 44.2493L10.1507 44.1935C10.1705 44.2117 10.1893 44.2317 10.2071 44.2532L9.88789 44.547L9.87432 44.56C9.88363 44.5511 9.89247 44.5422 9.90175 44.5343C10.0312 44.4238 10.1552 44.4066 10.2113 44.4066C10.2374 44.4066 10.27 44.4097 10.307 44.419C10.3426 44.503 10.3633 44.5977 10.3633 44.6978C10.3633 44.7003 10.3633 44.7029 10.3633 44.7054C10.3623 44.8021 10.3419 44.8936 10.3076 44.9751C10.3039 44.9839 10.3 44.9926 10.296 45.0012C10.2726 45.0511 10.2439 45.0968 10.2113 45.1372C10.1924 45.1606 10.1722 45.1823 10.1509 45.2019L17.9732 38.0005L25.7956 45.2021M10.307 44.419C10.3235 44.4231 10.3408 44.4284 10.3589 44.4351C10.419 44.4577 10.4752 44.4923 10.5208 44.5343L10.2113 44.2493L10.2071 44.2532C10.2468 44.3013 10.2809 44.3573 10.307 44.419ZM44.6534 30.9266L45.8118 31.9816C45.8237 31.748 45.8357 31.5145 45.8476 31.2811C45.8778 30.6909 45.908 30.1018 45.9376 29.5137C45.1992 29.5457 44.4606 29.577 43.7232 29.6082L43.7221 29.6083C43.5828 29.6141 43.4436 29.62 43.3045 29.6259L44.718 30.8672L44.6534 30.9266ZM47.1328 29.4653C47.1326 29.4655 47.1275 29.4654 47.1182 29.4647C47.1283 29.4648 47.133 29.4651 47.1328 29.4653ZM46.0003 28.2466C46.0004 28.2466 46.0003 28.2481 46.0002 28.2511L46.0003 28.2466Z" fill="#F41B72"/>
<path d="M23.4 11.4C23.9 8.19995 23.1 1.97995 15.9 2.69995C18.1 3.19995 22.68 5.63996 23.4 11.4Z" fill="#F41B72"/>
</g>
<defs>
<clipPath id="clip0">
<rect width="48" height="48" fill="white"/>
</clipPath>
</defs>
</svg>
