<svg width="79" height="92" viewBox="0 0 79 92" fill="none" xmlns="http://www.w3.org/2000/svg">
<rect width="78" height="92" transform="translate(0.714355)" fill="white"/>
<circle cx="39.7144" cy="32" r="32" fill="#F5992C"/>
<path d="M39.7145 17.6001C31.7614 17.6001 25.3145 24.047 25.3145 32.0001C25.3145 39.9532 31.7614 46.4001 39.7145 46.4001C47.6676 46.4001 54.1145 39.9532 54.1145 32.0001C54.1145 24.047 47.6676 17.6001 39.7145 17.6001ZM44.4926 38.364C44.2661 38.5893 44.0286 38.8256 43.8359 39.0189C43.6623 39.1931 43.5397 39.408 43.4776 39.6408C43.3899 39.9695 43.3191 40.3016 43.2006 40.6204L42.1909 43.3407C41.3919 43.5149 40.5651 43.613 39.7145 43.613V42.0232C39.8126 41.2904 39.2708 39.9178 38.4005 39.0474C38.0521 38.699 37.8564 38.2264 37.8564 37.7334V35.8747C37.8564 35.1989 37.4923 34.5776 36.9006 34.2507C36.0663 33.7891 34.8794 33.144 34.0665 32.7346C33.3999 32.399 32.7833 31.9716 32.2288 31.4717L32.1823 31.4299C31.7858 31.072 31.4337 30.6676 31.1337 30.2256C30.589 29.4261 29.7018 28.1109 29.1252 27.2562C30.3138 24.6143 32.4558 22.4926 35.1175 21.34L36.5116 22.0374C37.1294 22.3463 37.8564 21.8975 37.8564 21.2065V20.5504C38.3203 20.4755 38.7924 20.4278 39.2726 20.4098L40.9158 22.0531C41.2787 22.416 41.2787 23.0042 40.9158 23.3671L40.6435 23.6388L40.0431 24.2392C39.8619 24.4204 39.8619 24.7147 40.0431 24.8959L40.3154 25.1682C40.4966 25.3494 40.4966 25.6438 40.3154 25.8249L39.8509 26.2895C39.7637 26.3765 39.6455 26.4254 39.5223 26.4253H39.0003C38.8795 26.4253 38.7634 26.4724 38.6763 26.5571L38.1003 27.1175C38.0297 27.1862 37.9827 27.2756 37.9662 27.3728C37.9497 27.4699 37.9645 27.5698 38.0085 27.658L38.9137 29.4691C39.0682 29.778 38.8435 30.1415 38.4986 30.1415H38.1711C38.059 30.1415 37.951 30.1008 37.8668 30.0276L37.328 29.5596C37.2061 29.4539 37.0587 29.3816 36.9004 29.3501C36.7421 29.3185 36.5783 29.3287 36.4251 29.3796L34.6152 29.9829C34.4771 30.029 34.3569 30.1174 34.2717 30.2356C34.1866 30.3538 34.1408 30.4957 34.1408 30.6414C34.1408 30.9044 34.2895 31.1442 34.5246 31.2621L35.168 31.5838C35.7144 31.8573 36.3171 31.9995 36.9279 31.9995C37.5388 31.9995 38.2396 33.5841 38.786 33.8576H42.6618C43.1548 33.8576 43.6268 34.0533 43.9758 34.4016L44.7707 35.1966C45.1028 35.5288 45.2893 35.9793 45.2892 36.449C45.2891 36.8049 45.2187 37.1573 45.082 37.486C44.9452 37.8146 44.745 38.113 44.4926 38.364V38.364ZM49.5274 33.0598C49.1912 32.9756 48.8979 32.7695 48.7057 32.4809L47.6617 30.9149C47.509 30.6861 47.4275 30.4171 47.4275 30.142C47.4275 29.8669 47.509 29.598 47.6617 29.3692L48.7992 27.6633C48.9339 27.4618 49.1186 27.298 49.3357 27.19L50.0894 26.8132C50.8745 28.3763 51.3274 30.1345 51.3274 32.0001C51.3274 32.5035 51.2844 32.9965 51.2217 33.4831L49.5274 33.0598Z" fill="white"/>
<path d="M2.24029 85H9.52029V83.648H3.66429V79.792H8.56029V78.44H3.66429V74.832H9.52029V73.48H2.24029V85ZM10.9634 85H12.6674L15.0994 81.736L17.5154 85H19.2194L15.9074 80.632L19.1394 76.36H17.4434L15.0994 79.528L12.7314 76.36H11.0354L14.2674 80.632L10.9634 85ZM24.309 85.24C25.1997 85.24 25.9624 85.0267 26.597 84.6C27.2317 84.1733 27.701 83.5573 28.005 82.752L26.565 82.376C26.165 83.384 25.413 83.888 24.309 83.888C23.4504 83.888 22.8024 83.5947 22.365 83.008C21.933 82.4213 21.7117 81.6453 21.701 80.68C21.7117 79.7413 21.9277 78.9733 22.349 78.376C22.7704 77.7733 23.4237 77.472 24.309 77.472C24.8317 77.472 25.2984 77.6107 25.709 77.888C26.1197 78.1653 26.4157 78.5547 26.597 79.056L28.005 78.632C27.7757 77.8533 27.3304 77.24 26.669 76.792C26.013 76.344 25.2317 76.12 24.325 76.12C23.461 76.12 22.7197 76.3147 22.101 76.704C21.4877 77.088 21.0184 77.6213 20.693 78.304C20.3677 78.9867 20.1997 79.7787 20.189 80.68C20.1997 81.56 20.365 82.344 20.685 83.032C21.005 83.72 21.469 84.2613 22.077 84.656C22.6904 85.0453 23.4344 85.24 24.309 85.24ZM30.1098 85H31.5498V80.448C31.5498 79.4453 31.7658 78.7013 32.1978 78.216C32.6351 77.7307 33.2111 77.488 33.9258 77.488C34.5338 77.488 35.0085 77.64 35.3498 77.944C35.6911 78.248 35.9285 78.6427 36.0618 79.128C36.2005 79.6133 36.2698 80.128 36.2698 80.672V85H37.7098V80.224C37.7098 79.8133 37.6591 79.3733 37.5578 78.904C37.4618 78.4293 37.2858 77.984 37.0298 77.568C36.7791 77.1467 36.4298 76.8027 35.9818 76.536C35.5391 76.2693 34.9685 76.136 34.2698 76.136C33.0111 76.136 32.0511 76.5813 31.3898 77.472V73.48H30.1098V85ZM42.7257 85.24C44.1657 85.24 45.2323 84.712 45.9257 83.656V85H47.1897V79.656C47.1897 79.3147 47.1737 78.9893 47.1417 78.68C47.1097 78.3653 47.0323 78.0747 46.9097 77.808C46.6643 77.2427 46.259 76.8213 45.6937 76.544C45.1283 76.2613 44.4563 76.12 43.6777 76.12C42.7017 76.12 41.9123 76.336 41.3097 76.768C40.7123 77.2 40.3123 77.7947 40.1097 78.552L41.4617 78.96C41.6163 78.432 41.891 78.048 42.2857 77.808C42.6803 77.568 43.139 77.448 43.6617 77.448C44.4083 77.448 44.9443 77.616 45.2697 77.952C45.6003 78.2827 45.7737 78.792 45.7897 79.48C45.1497 79.5707 44.4777 79.6667 43.7737 79.768C43.075 79.864 42.4537 79.984 41.9097 80.128C41.2537 80.32 40.7363 80.6213 40.3577 81.032C39.979 81.4373 39.7897 81.9813 39.7897 82.664C39.7897 83.128 39.899 83.5547 40.1177 83.944C40.3417 84.3333 40.6697 84.648 41.1017 84.888C41.539 85.1227 42.0803 85.24 42.7257 85.24ZM42.9417 84.048C42.3283 84.048 41.8857 83.9067 41.6137 83.624C41.3417 83.336 41.2057 83.0133 41.2057 82.656C41.2057 82.2507 41.339 81.9413 41.6057 81.728C41.8777 81.5093 42.1923 81.344 42.5497 81.232C42.971 81.1147 43.4617 81.016 44.0217 80.936C44.5817 80.856 45.1657 80.776 45.7737 80.696C45.7737 80.8933 45.763 81.1173 45.7417 81.368C45.7257 81.6187 45.6883 81.848 45.6297 82.056C45.5283 82.5893 45.2457 83.056 44.7817 83.456C44.323 83.8507 43.7097 84.048 42.9417 84.048ZM49.7417 85H51.1817V80.448C51.1817 79.4453 51.3977 78.7013 51.8297 78.216C52.267 77.7307 52.843 77.488 53.5577 77.488C54.1657 77.488 54.6403 77.64 54.9817 77.944C55.323 78.248 55.5603 78.6427 55.6937 79.128C55.8323 79.6133 55.9017 80.128 55.9017 80.672V85H57.3417V80.224C57.3417 79.8133 57.291 79.3733 57.1897 78.904C57.0937 78.4293 56.9177 77.984 56.6617 77.568C56.411 77.1467 56.0617 76.8027 55.6137 76.536C55.171 76.2693 54.6003 76.136 53.9017 76.136C52.643 76.136 51.683 76.5813 51.0217 77.472V76.36H49.7417V85ZM63.2935 85.24C63.8269 85.24 64.3042 85.1493 64.7255 84.968C65.1522 84.7867 65.5202 84.5333 65.8295 84.208V85.04C65.8455 86.816 65.0375 87.704 63.4055 87.704C62.9842 87.704 62.5789 87.608 62.1895 87.416C61.8002 87.224 61.4989 86.9173 61.2855 86.496L59.9815 87.184C60.3442 87.8293 60.8349 88.3067 61.4535 88.616C62.0722 88.9253 62.7202 89.08 63.3975 89.08C64.4322 89.08 65.2749 88.8587 65.9255 88.416C66.5815 87.9787 66.9922 87.3013 67.1575 86.384C67.2002 86.1707 67.2269 85.9547 67.2375 85.736C67.2535 85.5227 67.2615 85.296 67.2615 85.056V76.36H65.9975V77.328C65.6829 76.9493 65.2989 76.6533 64.8455 76.44C64.3922 76.2267 63.8722 76.12 63.2855 76.12C62.4855 76.12 61.7975 76.32 61.2215 76.72C60.6455 77.1147 60.2002 77.656 59.8855 78.344C59.5762 79.032 59.4215 79.808 59.4215 80.672C59.4215 81.536 59.5762 82.312 59.8855 83C60.1949 83.688 60.6375 84.2347 61.2135 84.64C61.7949 85.04 62.4882 85.24 63.2935 85.24ZM63.4695 83.936C62.9042 83.936 62.4322 83.792 62.0535 83.504C61.6802 83.216 61.4002 82.8267 61.2135 82.336C61.0269 81.84 60.9335 81.2853 60.9335 80.672C60.9335 80.064 61.0242 79.5147 61.2055 79.024C61.3922 78.5333 61.6749 78.144 62.0535 77.856C62.4375 77.568 62.9229 77.424 63.5095 77.424C64.3522 77.424 64.9762 77.728 65.3815 78.336C65.7922 78.9387 65.9975 79.7173 65.9975 80.672C65.9975 81.6213 65.7949 82.4027 65.3895 83.016C64.9842 83.6293 64.3442 83.936 63.4695 83.936ZM73.7193 85.24C74.5566 85.24 75.3113 85.032 75.9833 84.616C76.6553 84.1947 77.162 83.6027 77.5033 82.84L76.1353 82.368C75.6393 83.3813 74.8126 83.888 73.6553 83.888C72.8606 83.888 72.2366 83.6453 71.7833 83.16C71.3353 82.6693 71.082 81.976 71.0233 81.08H77.6473C77.69 80.056 77.5566 79.1733 77.2473 78.432C76.9433 77.6907 76.4846 77.12 75.8713 76.72C75.2633 76.32 74.5246 76.12 73.6553 76.12C72.818 76.12 72.0873 76.3093 71.4633 76.688C70.8393 77.0613 70.354 77.5947 70.0073 78.288C69.666 78.976 69.4953 79.792 69.4953 80.736C69.4953 81.6373 69.6686 82.4267 70.0153 83.104C70.3673 83.776 70.8606 84.3013 71.4953 84.68C72.13 85.0533 72.8713 85.24 73.7193 85.24ZM73.7033 77.4C75.17 77.4 75.9913 78.2453 76.1673 79.936H71.0473C71.1486 79.1147 71.4233 78.488 71.8713 78.056C72.3193 77.6187 72.93 77.4 73.7033 77.4Z" fill="#767676"/>
</svg>
