<svg width="64" height="92" viewBox="0 0 64 92" fill="none" xmlns="http://www.w3.org/2000/svg">
<rect width="64" height="92" fill="white"/>
<circle cx="32" cy="32" r="32" fill="#2A7FFE"/>
<path d="M45.1996 22.4001H39.9996V20.4001C39.9996 19.7351 39.4646 19.2001 38.7996 19.2001H25.1996C24.5346 19.2001 23.9996 19.7351 23.9996 20.4001V22.4001H18.7996C18.1346 22.4001 17.5996 22.9351 17.5996 23.6001V26.4001C17.5996 28.1851 18.7246 30.0201 20.6946 31.4351C22.2696 32.5701 24.1846 33.2901 26.1946 33.5201C27.7646 36.1251 29.5996 37.2001 29.5996 37.2001V40.8001H27.1996C25.4346 40.8001 23.9996 41.8351 23.9996 43.6001V44.2001C23.9996 44.5301 24.2696 44.8001 24.5996 44.8001H39.3996C39.7296 44.8001 39.9996 44.5301 39.9996 44.2001V43.6001C39.9996 41.8351 38.5646 40.8001 36.7996 40.8001H34.3996V37.2001C34.3996 37.2001 36.2346 36.1251 37.8046 33.5201C39.8196 33.2901 41.7346 32.5701 43.3046 31.4351C45.2696 30.0201 46.3996 28.1851 46.3996 26.4001V23.6001C46.3996 22.9351 45.8646 22.4001 45.1996 22.4001ZM22.5646 28.8401C21.3446 27.9601 20.7996 26.9801 20.7996 26.4001V25.6001H24.0096C24.0596 27.2301 24.2996 28.6601 24.6496 29.9101C23.8946 29.6501 23.1896 29.2901 22.5646 28.8401V28.8401ZM43.1996 26.4001C43.1996 27.2051 42.3146 28.2051 41.4346 28.8401C40.8096 29.2901 40.0996 29.6501 39.3446 29.9101C39.6946 28.6601 39.9346 27.2301 39.9846 25.6001H43.1996V26.4001Z" fill="white"/>
<path d="M7.15594 85V73.48H8.57994V83.648H13.9239V85H7.15594ZM19.4372 85.24C18.5785 85.24 17.8372 85.0453 17.2132 84.656C16.5945 84.2667 16.1172 83.728 15.7812 83.04C15.4452 82.352 15.2772 81.5627 15.2772 80.672C15.2772 79.7653 15.4479 78.9707 15.7892 78.288C16.1305 77.6053 16.6132 77.0747 17.2372 76.696C17.8612 76.312 18.5945 76.12 19.4372 76.12C20.3012 76.12 21.0452 76.3147 21.6692 76.704C22.2932 77.088 22.7705 77.624 23.1012 78.312C23.4372 78.9947 23.6052 79.7813 23.6052 80.672C23.6052 81.5733 23.4372 82.368 23.1012 83.056C22.7652 83.7387 22.2852 84.2747 21.6612 84.664C21.0372 85.048 20.2959 85.24 19.4372 85.24ZM19.4372 83.888C20.3332 83.888 20.9999 83.5893 21.4372 82.992C21.8745 82.3947 22.0932 81.6213 22.0932 80.672C22.0932 79.696 21.8719 78.92 21.4292 78.344C20.9865 77.7627 20.3225 77.472 19.4372 77.472C18.8345 77.472 18.3385 77.608 17.9492 77.88C17.5599 78.152 17.2692 78.528 17.0772 79.008C16.8852 79.488 16.7892 80.0427 16.7892 80.672C16.7892 81.6427 17.0132 82.4213 17.4612 83.008C17.9092 83.5947 18.5679 83.888 19.4372 83.888ZM36.1746 85L36.1826 79.472C36.1826 78.8267 36.0092 78.3227 35.6626 77.96C35.3212 77.592 34.8759 77.408 34.3266 77.408C34.0066 77.408 33.7026 77.4827 33.4146 77.632C33.1266 77.776 32.8919 78.0053 32.7106 78.32C32.5292 78.6293 32.4386 79.0267 32.4386 79.512L31.6866 79.208C31.6759 78.5947 31.8012 78.0587 32.0626 77.6C32.3292 77.136 32.6919 76.776 33.1506 76.52C33.6092 76.264 34.1266 76.136 34.7026 76.136C35.6039 76.136 36.3132 76.4107 36.8306 76.96C37.3479 77.504 37.6066 78.2373 37.6066 79.16L37.5986 85H36.1746ZM25.8386 85V76.36H27.1106V78.672H27.2706V85H25.8386ZM31.0146 85L31.0226 79.528C31.0226 78.8667 30.8519 78.3493 30.5106 77.976C30.1692 77.5973 29.7159 77.408 29.1506 77.408C28.5906 77.408 28.1372 77.6 27.7906 77.984C27.4439 78.368 27.2706 78.8773 27.2706 79.512L26.5186 79.064C26.5186 78.504 26.6519 78.0027 26.9186 77.56C27.1852 77.1173 27.5479 76.7707 28.0066 76.52C28.4652 76.264 28.9852 76.136 29.5666 76.136C30.1479 76.136 30.6546 76.2587 31.0866 76.504C31.5186 76.7493 31.8519 77.1013 32.0866 77.56C32.3212 78.0133 32.4386 78.5547 32.4386 79.184L32.4306 85H31.0146ZM44.1383 85.24C43.3276 85.24 42.645 85.04 42.0903 84.64C41.5356 84.2347 41.1143 83.688 40.8263 83C40.5436 82.3067 40.4023 81.5307 40.4023 80.672C40.4023 79.8027 40.5436 79.024 40.8263 78.336C41.1143 77.648 41.5356 77.1067 42.0903 76.712C42.6503 76.3173 43.3356 76.12 44.1463 76.12C44.9463 76.12 45.6343 76.32 46.2103 76.72C46.7916 77.1147 47.237 77.656 47.5463 78.344C47.8556 79.032 48.0103 79.808 48.0103 80.672C48.0103 81.536 47.8556 82.312 47.5463 83C47.237 83.688 46.7916 84.2347 46.2103 84.64C45.6343 85.04 44.9436 85.24 44.1383 85.24ZM40.1623 85V73.48H41.5943V78.64H41.4343V85H40.1623ZM43.9623 83.936C44.533 83.936 45.005 83.792 45.3783 83.504C45.7516 83.216 46.0316 82.8267 46.2183 82.336C46.405 81.84 46.4983 81.2853 46.4983 80.672C46.4983 80.064 46.405 79.5147 46.2183 79.024C46.037 78.5333 45.7543 78.144 45.3703 77.856C44.9916 77.568 44.509 77.424 43.9223 77.424C43.3623 77.424 42.8983 77.5627 42.5303 77.84C42.1623 78.112 41.8876 78.4933 41.7063 78.984C41.525 79.4693 41.4343 80.032 41.4343 80.672C41.4343 81.3013 41.5223 81.864 41.6983 82.36C41.8796 82.8507 42.157 83.2373 42.5303 83.52C42.9036 83.7973 43.381 83.936 43.9623 83.936ZM52.7001 85.24C52.0547 85.24 51.5134 85.1227 51.0761 84.888C50.6441 84.648 50.3161 84.3333 50.0921 83.944C49.8734 83.5547 49.7641 83.128 49.7641 82.664C49.7641 82.2107 49.8494 81.8187 50.0201 81.488C50.1961 81.152 50.4414 80.8747 50.7561 80.656C51.0707 80.432 51.4467 80.256 51.8841 80.128C52.2947 80.016 52.7534 79.92 53.2601 79.84C53.7721 79.7547 54.2894 79.6773 54.8121 79.608C55.3347 79.5387 55.8227 79.472 56.2761 79.408L55.7641 79.704C55.7801 78.936 55.6254 78.368 55.3001 78C54.9801 77.632 54.4254 77.448 53.6361 77.448C53.1134 77.448 52.6547 77.568 52.2601 77.808C51.8707 78.0427 51.5961 78.4267 51.4361 78.96L50.0841 78.552C50.2921 77.7947 50.6947 77.2 51.2921 76.768C51.8894 76.336 52.6761 76.12 53.6521 76.12C54.4361 76.12 55.1081 76.2613 55.6681 76.544C56.2334 76.8213 56.6387 77.2427 56.8841 77.808C57.0067 78.0747 57.0841 78.3653 57.1161 78.68C57.1481 78.9893 57.1641 79.3147 57.1641 79.656V85H55.9001V82.928L56.1961 83.12C55.8707 83.8187 55.4147 84.3467 54.8281 84.704C54.2467 85.0613 53.5374 85.24 52.7001 85.24ZM52.9161 84.048C53.4281 84.048 53.8707 83.9573 54.2441 83.776C54.6227 83.5893 54.9267 83.3467 55.1561 83.048C55.3854 82.744 55.5347 82.4133 55.6041 82.056C55.6841 81.7893 55.7267 81.4933 55.7321 81.168C55.7427 80.8373 55.7481 80.584 55.7481 80.408L56.2441 80.624C55.7801 80.688 55.3241 80.7493 54.8761 80.808C54.4281 80.8667 54.0041 80.9307 53.6041 81C53.2041 81.064 52.8441 81.1413 52.5241 81.232C52.2894 81.3067 52.0681 81.4027 51.8601 81.52C51.6574 81.6373 51.4921 81.7893 51.3641 81.976C51.2414 82.1573 51.1801 82.384 51.1801 82.656C51.1801 82.8907 51.2387 83.1147 51.3561 83.328C51.4787 83.5413 51.6654 83.7147 51.9161 83.848C52.1721 83.9813 52.5054 84.048 52.9161 84.048Z" fill="#767676"/>
</svg>
