<svg width="48" height="48" viewBox="0 0 48 48" fill="none" xmlns="http://www.w3.org/2000/svg">
<g clip-path="url(#clip0)">
<path fill-rule="evenodd" clip-rule="evenodd" d="M19.269 27.6C19.5321 29.2516 18.6376 32.6787 12.9548 33.1742C7.27198 33.6697 6.37746 37.7161 6.64056 39.6774V46.8H21.9H37.1594V39.6774C37.4225 37.7161 36.528 33.6697 30.8452 33.1742C25.1623 32.6787 24.2678 29.2516 24.5309 27.6H21.9H19.269Z" fill="#2A7FFE"/>
<path d="M27.6 47.1L33.9 33.6L37.2 34.2L31.2 47.1H27.6Z" fill="#1A1A1A"/>
<circle cx="9.90002" cy="11.7" r="1.5" fill="#2A7FFE"/>
<path d="M15.6267 7.46672V12C15.6267 12 16.3067 11.32 19.0267 11.32C21.7467 11.32 22.2 12 22.2 12C22.2 12 23.1067 11.32 25.6 11.32C28.0933 11.32 29 12 29 12V7.46672L32.4 6.10672L26.5067 3.61338L22.2 1.80005L12 6.10672L15.6267 7.46672Z" fill="#2A7FFE"/>
<path d="M23.9637 0.000717027C23.8707 0.00457731 23.7791 0.0231769 23.6919 0.0559893L9.75806 5.28123C9.30553 5.38336 9.01075 5.82027 9.08532 6.27824V8.92903C8.06831 9.29435 7.33065 10.2698 7.33065 11.4054C7.33065 12.5412 8.06831 13.5166 9.08532 13.8818V16.6694C9.07848 17.1539 9.46574 17.5524 9.9502 17.5592C10.4347 17.5661 10.8332 17.1788 10.84 16.6943C10.8402 16.6861 10.8402 16.6778 10.84 16.6696V13.8819C11.8572 13.5168 12.5947 12.5414 12.5947 11.4056C12.5947 10.2698 11.8572 9.29435 10.84 8.9292V7.40755L14.3493 8.72356V14.9147C14.3495 15.3994 14.7426 15.7921 15.227 15.7919C15.4595 15.7919 15.6825 15.6994 15.847 15.5352C16.4141 14.9681 18.0049 14.4763 19.6134 14.4763C21.2219 14.4763 22.8127 14.9681 23.3798 15.5352C23.7225 15.8777 24.2778 15.8777 24.6203 15.5352C25.1874 14.9681 26.7782 14.4763 28.3867 14.4763C29.9952 14.4763 31.586 14.9681 32.1531 15.5352C32.496 15.8777 33.0515 15.8775 33.3941 15.5347C33.5585 15.3703 33.6508 15.1472 33.6508 14.9147V8.72338L38.3456 6.96291C38.7993 6.79271 39.029 6.28684 38.8586 5.83308C38.7697 5.59602 38.5826 5.40898 38.3456 5.32001L24.3082 0.0559893C24.1982 0.0147544 24.0811 -0.00402059 23.9637 0.000717027ZM24.0001 1.81435L35.5388 6.14138L24.0001 10.4681L12.4613 6.14138L24.0001 1.81435ZM24.0001 5.26404C23.5156 5.26404 23.1227 5.65691 23.1227 6.14138C23.1227 6.62584 23.5156 7.01871 24.0001 7.01871C24.4845 7.01871 24.8774 6.62584 24.8774 6.14138C24.8774 5.65691 24.4845 5.26404 24.0001 5.26404ZM16.104 9.38138L23.6919 12.2269C23.8906 12.3015 24.1095 12.3015 24.3082 12.2269L31.8961 9.38138V13.3557C30.85 12.9135 29.6248 12.7214 28.3867 12.7214C26.7863 12.7214 25.1787 13.0011 24.0001 13.7961C22.8214 13.0011 21.2138 12.7214 19.6134 12.7214C18.3754 12.7214 17.1502 12.9137 16.104 13.3557V9.38138ZM9.96266 10.5281C10.4577 10.5281 10.84 10.9104 10.84 11.4054C10.84 11.9004 10.4577 12.2827 9.96266 12.2827C9.46767 12.2827 9.08532 11.9004 9.08532 11.4054C9.08532 10.9106 9.46767 10.5281 9.96266 10.5281ZM32.4853 16.6129C32.0012 16.6359 31.6276 17.047 31.6506 17.5311C31.652 17.5601 31.6548 17.589 31.659 17.6178C32.0868 20.8303 30.7029 24.0031 28.1579 25.7332C25.6129 27.4635 22.39 27.4638 19.8445 25.735C17.299 24.0055 15.9143 20.8333 16.3413 17.6206C16.403 17.14 16.0635 16.7003 15.5829 16.6384C15.1051 16.577 14.6669 16.9123 14.6017 17.3895C14.0897 21.2412 15.7362 25.065 18.8585 27.1862C19.213 27.427 19.5797 27.6393 19.9552 27.8255C20.3731 29.2848 19.9425 30.2496 18.9006 31.1036C17.7766 32.0248 15.8145 32.6575 13.5215 32.7589C10.9212 32.8738 8.92091 33.7601 7.58876 35.1177C6.25661 36.4753 5.61633 38.267 5.57597 40.0771C5.57597 40.0836 5.57597 40.0901 5.57597 40.0966V46.238H2.94396C2.4595 46.2311 2.06101 46.6184 2.05417 47.1028C2.04732 47.5873 2.43458 47.9858 2.91905 47.9926C2.92729 47.9928 2.93554 47.9928 2.94379 47.9926H27.8358L27.8509 48.0002L27.8545 47.9926H31.3451L31.3602 48.0002L31.3639 47.9926H45.0558C45.5403 47.9995 45.9387 47.6122 45.9456 47.1278C45.9524 46.6433 45.5652 46.2448 45.0807 46.238C45.0725 46.2378 45.0642 46.2378 45.056 46.238H42.424V40.0966C42.424 40.0901 42.424 40.0836 42.424 40.0771C42.3836 38.267 41.7437 36.4755 40.4115 35.1177C39.0794 33.76 37.079 32.8738 34.4788 32.7589C32.1858 32.6575 30.2237 32.0249 29.0997 31.1036C28.0577 30.2496 27.6273 29.2848 28.0455 27.8251C28.4217 27.6386 28.7891 27.4259 29.1442 27.1847C32.2658 25.0626 33.9112 21.2381 33.3983 17.3866C33.344 16.9291 32.9454 16.5915 32.4853 16.6134V16.6129ZM21.8193 28.5091C23.2524 28.8637 24.7477 28.8641 26.1806 28.5091C26.1176 30.0911 26.8126 31.4977 27.987 32.4603C29.1993 33.4539 30.8466 34.069 32.7143 34.3493L26.7703 46.2376H24.8365C24.7223 45.8714 24.3834 45.6219 23.9999 45.6214C23.6161 45.6216 23.277 45.8711 23.1627 46.2376H7.33065V40.1124C7.36328 38.6859 7.85144 37.3549 8.84125 36.346C9.83194 35.3362 11.3487 34.611 13.5987 34.5115C16.156 34.3985 18.4465 33.7442 20.0129 32.4603C21.1873 31.4977 21.8825 30.0909 21.8193 28.5087V28.5091ZM34.5895 34.5236C35.1126 34.5555 35.5956 34.6213 36.0399 34.7178L30.28 46.2376H28.7324L34.5895 34.5236ZM24.0001 35.0935C23.5156 35.0935 23.1227 35.4864 23.1227 35.9708C23.1227 36.4553 23.5156 36.8482 24.0001 36.8482C24.4845 36.8482 24.8774 36.4553 24.8774 35.9708C24.8774 35.4864 24.4845 35.0935 24.0001 35.0935ZM37.7113 35.2985C38.2852 35.5887 38.7646 35.9442 39.1589 36.3462C40.1496 37.356 40.6377 38.688 40.6695 40.1159V46.2378H32.2416L37.7113 35.2985ZM24.0001 38.6029C23.5156 38.6029 23.1227 38.9957 23.1227 39.4802C23.1227 39.9647 23.5156 40.3575 24.0001 40.3575C24.4845 40.3575 24.8774 39.9647 24.8774 39.4802C24.8774 38.9957 24.4845 38.6029 24.0001 38.6029ZM24.0001 42.1122C23.5156 42.1122 23.1227 42.5051 23.1227 42.9895C23.1227 43.474 23.5156 43.8669 24.0001 43.8669C24.4845 43.8669 24.8774 43.474 24.8774 42.9895C24.8774 42.5051 24.4845 42.1122 24.0001 42.1122Z" fill="#1A1A1A"/>
</g>
<defs>
<clipPath id="clip0">
<rect width="48" height="48" fill="white"/>
</clipPath>
</defs>
</svg>
