<svg width="78" height="92" viewBox="0 0 78 92" fill="none" xmlns="http://www.w3.org/2000/svg">
<rect width="77" height="92" transform="translate(0.285645)" fill="white"/>
<circle cx="38.7856" cy="32" r="32" fill="#27AE60"/>
<path d="M47.1867 28.7998H39.5868V31.6C39.5868 33.5852 37.9718 35.2003 35.9868 35.2003C34.0018 35.2003 32.3868 33.5852 32.3868 31.6V25.5195L29.1418 27.4697C28.1768 28.0447 27.5868 29.0898 27.5868 30.2099V32.5751L23.5868 34.8853C22.8218 35.3254 22.5568 36.3054 23.0018 37.0705L27.0018 44.0011C27.4418 44.7661 28.4218 45.0262 29.1868 44.5861L34.3568 41.6009H41.1868C42.9517 41.6009 44.3867 40.1658 44.3867 38.4006H45.1867C46.0717 38.4006 46.7867 37.6856 46.7867 36.8005V33.6002H47.1867C47.8517 33.6002 48.3867 33.0652 48.3867 32.4001V29.9999C48.3867 29.3348 47.8517 28.7998 47.1867 28.7998ZM54.5717 26.9296L50.5717 19.9991C50.1317 19.234 49.1517 18.974 48.3867 19.414L43.2167 22.3993H38.1068C37.5068 22.3993 36.9218 22.5693 36.4118 22.8843L34.7368 23.9294C34.2668 24.2194 33.9868 24.7345 33.9868 25.2845V31.6C33.9868 32.7051 34.8818 33.6002 35.9868 33.6002C37.0918 33.6002 37.9868 32.7051 37.9868 31.6V27.1997H47.1867C48.7317 27.1997 49.9867 28.4548 49.9867 29.9999V31.425L53.9867 29.1148C54.7517 28.6698 55.0117 27.6947 54.5717 26.9296V26.9296Z" fill="white"/>
<path d="M4.3329 85H6.3169L10.1729 73.48H8.6929L5.3089 83.488L1.9569 73.48H0.476896L4.3329 85ZM14.5831 85.24C15.4418 85.24 16.1805 85.048 16.7991 84.664C17.4231 84.28 17.9031 83.744 18.2391 83.056C18.5805 82.368 18.7511 81.5733 18.7511 80.672C18.7511 79.7813 18.5831 78.9947 18.2471 78.312C17.9165 77.624 17.4391 77.088 16.8151 76.704C16.1911 76.3147 15.4471 76.12 14.5831 76.12C13.7405 76.12 13.0071 76.312 12.3831 76.696C11.7591 77.0747 11.2765 77.6053 10.9351 78.288C10.5938 78.9707 10.4231 79.7653 10.4231 80.672C10.4231 81.5627 10.5885 82.352 10.9191 83.04C11.2551 83.728 11.7351 84.2667 12.3591 84.656C12.9831 85.0453 13.7245 85.24 14.5831 85.24ZM14.5831 83.888C13.7138 83.888 13.0551 83.5973 12.6071 83.016C12.1591 82.4293 11.9351 81.648 11.9351 80.672C11.9351 79.728 12.1511 78.96 12.5831 78.368C13.0151 77.7707 13.6818 77.472 14.5831 77.472C15.4685 77.472 16.1325 77.7627 16.5751 78.344C17.0178 78.9253 17.2391 79.7013 17.2391 80.672C17.2391 81.6213 17.0178 82.3947 16.5751 82.992C16.1378 83.5893 15.4738 83.888 14.5831 83.888ZM21.1525 85H22.5765V73.24H21.1525V85ZM28.7369 85.224C29.9956 85.224 30.9556 84.7787 31.6169 83.888V85H32.8889V76.36H31.4569V80.912C31.4569 81.9093 31.2382 82.6533 30.8009 83.144C30.3689 83.6293 29.7956 83.872 29.0809 83.872C28.4729 83.872 27.9982 83.72 27.6569 83.416C27.3209 83.112 27.0836 82.7173 26.9449 82.232C26.8062 81.7413 26.7369 81.2267 26.7369 80.688V76.36H25.2969V81.136C25.2969 81.5467 25.3449 81.9893 25.4409 82.464C25.5422 82.9333 25.7182 83.3787 25.9689 83.8C26.2249 84.216 26.5769 84.5573 27.0249 84.824C27.4729 85.0907 28.0436 85.224 28.7369 85.224ZM35.6008 85H37.0408V80.448C37.0408 79.4453 37.2568 78.7013 37.6888 78.216C38.1261 77.7307 38.7021 77.488 39.4168 77.488C40.0248 77.488 40.4994 77.64 40.8408 77.944C41.1821 78.248 41.4194 78.6427 41.5528 79.128C41.6914 79.6133 41.7608 80.128 41.7608 80.672V85H43.2008V80.224C43.2008 79.8133 43.1501 79.3733 43.0488 78.904C42.9528 78.4293 42.7768 77.984 42.5208 77.568C42.2701 77.1467 41.9208 76.8027 41.4728 76.536C41.0301 76.2693 40.4594 76.136 39.7608 76.136C38.5021 76.136 37.5421 76.5813 36.8808 77.472V76.36H35.6008V85ZM50.5846 85V83.776C49.9926 83.8667 49.486 83.8827 49.0646 83.824C48.6486 83.7653 48.3446 83.5653 48.1526 83.224C48.0513 83.0427 47.9953 82.8293 47.9846 82.584C47.9793 82.3333 47.9766 82.0293 47.9766 81.672V77.536H50.5846V76.36H47.9766V73.96H46.5526V76.36H44.8006V77.536H46.5526V81.736C46.5526 82.184 46.558 82.584 46.5686 82.936C46.5846 83.2827 46.678 83.624 46.8486 83.96C47.0513 84.3493 47.3473 84.6373 47.7366 84.824C48.126 85.0053 48.5686 85.104 49.0646 85.12C49.566 85.1413 50.0726 85.1013 50.5846 85ZM56.2034 85.24C57.0407 85.24 57.7954 85.032 58.4674 84.616C59.1394 84.1947 59.6461 83.6027 59.9874 82.84L58.6194 82.368C58.1234 83.3813 57.2967 83.888 56.1394 83.888C55.3447 83.888 54.7207 83.6453 54.2674 83.16C53.8194 82.6693 53.5661 81.976 53.5074 81.08H60.1314C60.1741 80.056 60.0407 79.1733 59.7314 78.432C59.4274 77.6907 58.9687 77.12 58.3554 76.72C57.7474 76.32 57.0087 76.12 56.1394 76.12C55.3021 76.12 54.5714 76.3093 53.9474 76.688C53.3234 77.0613 52.8381 77.5947 52.4914 78.288C52.1501 78.976 51.9794 79.792 51.9794 80.736C51.9794 81.6373 52.1527 82.4267 52.4994 83.104C52.8514 83.776 53.3447 84.3013 53.9794 84.68C54.6141 85.0533 55.3554 85.24 56.2034 85.24ZM56.1874 77.4C57.6541 77.4 58.4754 78.2453 58.6514 79.936H53.5314C53.6327 79.1147 53.9074 78.488 54.3554 78.056C54.8034 77.6187 55.4141 77.4 56.1874 77.4ZM66.1365 85.24C66.9739 85.24 67.7285 85.032 68.4005 84.616C69.0725 84.1947 69.5792 83.6027 69.9205 82.84L68.5525 82.368C68.0565 83.3813 67.2299 83.888 66.0725 83.888C65.2779 83.888 64.6539 83.6453 64.2005 83.16C63.7525 82.6693 63.4992 81.976 63.4405 81.08H70.0645C70.1072 80.056 69.9739 79.1733 69.6645 78.432C69.3605 77.6907 68.9019 77.12 68.2885 76.72C67.6805 76.32 66.9419 76.12 66.0725 76.12C65.2352 76.12 64.5045 76.3093 63.8805 76.688C63.2565 77.0613 62.7712 77.5947 62.4245 78.288C62.0832 78.976 61.9125 79.792 61.9125 80.736C61.9125 81.6373 62.0859 82.4267 62.4325 83.104C62.7845 83.776 63.2779 84.3013 63.9125 84.68C64.5472 85.0533 65.2885 85.24 66.1365 85.24ZM66.1205 77.4C67.5872 77.4 68.4085 78.2453 68.5845 79.936H63.4645C63.5659 79.1147 63.8405 78.488 64.2885 78.056C64.7365 77.6187 65.3472 77.4 66.1205 77.4ZM72.3256 85H73.7576V80.664C73.7576 80.152 73.827 79.6587 73.9656 79.184C74.1043 78.7093 74.3843 78.3227 74.8056 78.024C75.1043 77.8053 75.4323 77.6773 75.7896 77.64C76.1523 77.6027 76.483 77.6213 76.7816 77.696V76.36C76.3976 76.2747 75.9763 76.2747 75.5176 76.36C75.059 76.4453 74.6643 76.6213 74.3336 76.888C74.0456 77.0907 73.8003 77.3707 73.5976 77.728V76.36H72.3256V85Z" fill="#767676"/>
</svg>
