<svg width="66" height="92" viewBox="0 0 66 92" fill="none" xmlns="http://www.w3.org/2000/svg">
<rect width="65" height="92" transform="translate(0.856934)" fill="white"/>
<circle cx="33.3569" cy="32" r="32" fill="#F41B72"/>
<path d="M38.9567 32.0001H27.7567V35.6001H38.9567V32.0001ZM44.1484 23.5063L38.4376 17.9938C38.1751 17.7407 37.8192 17.6001 37.4459 17.6001H37.0901V24.8001H44.5567V24.457C44.5567 24.1026 44.4109 23.7595 44.1484 23.5063ZM35.2234 25.2501V17.6001H23.5567C22.7809 17.6001 22.1567 18.202 22.1567 18.9501V45.0501C22.1567 45.7982 22.7809 46.4001 23.5567 46.4001H43.1567C43.9326 46.4001 44.5567 45.7982 44.5567 45.0501V26.6001H36.6234C35.8534 26.6001 35.2234 25.9926 35.2234 25.2501ZM25.8901 21.6501C25.8901 21.4015 26.0989 21.2001 26.3567 21.2001H31.0234C31.2812 21.2001 31.4901 21.4015 31.4901 21.6501V22.5501C31.4901 22.7987 31.2812 23.0001 31.0234 23.0001H26.3567C26.0989 23.0001 25.8901 22.7987 25.8901 22.5501V21.6501ZM25.8901 25.2501C25.8901 25.0015 26.0989 24.8001 26.3567 24.8001H31.0234C31.2812 24.8001 31.4901 25.0015 31.4901 25.2501V26.1501C31.4901 26.3987 31.2812 26.6001 31.0234 26.6001H26.3567C26.0989 26.6001 25.8901 26.3987 25.8901 26.1501V25.2501ZM40.8234 42.3501C40.8234 42.5987 40.6146 42.8001 40.3567 42.8001H35.6901C35.4322 42.8001 35.2234 42.5987 35.2234 42.3501V41.4501C35.2234 41.2015 35.4322 41.0001 35.6901 41.0001H40.3567C40.6146 41.0001 40.8234 41.2015 40.8234 41.4501V42.3501ZM40.8234 31.1001V36.5001C40.8234 36.9973 40.4057 37.4001 39.8901 37.4001H26.8234C26.3077 37.4001 25.8901 36.9973 25.8901 36.5001V31.1001C25.8901 30.6028 26.3077 30.2001 26.8234 30.2001H39.8901C40.4057 30.2001 40.8234 30.6028 40.8234 31.1001Z" fill="white"/>
<path d="M4.53981 85H5.96381L8.55581 75.968L11.1478 85H12.5718L15.9078 73.48H14.4118L11.8598 82.592L9.29981 73.48L7.80381 73.488L5.25181 82.592L2.69181 73.48H1.20381L4.53981 85ZM20.5422 85.24C21.3795 85.24 22.1342 85.032 22.8062 84.616C23.4782 84.1947 23.9849 83.6027 24.3262 82.84L22.9582 82.368C22.4622 83.3813 21.6355 83.888 20.4782 83.888C19.6835 83.888 19.0595 83.6453 18.6062 83.16C18.1582 82.6693 17.9049 81.976 17.8462 81.08H24.4702C24.5129 80.056 24.3795 79.1733 24.0702 78.432C23.7662 77.6907 23.3075 77.12 22.6942 76.72C22.0862 76.32 21.3475 76.12 20.4782 76.12C19.6409 76.12 18.9102 76.3093 18.2862 76.688C17.6622 77.0613 17.1769 77.5947 16.8302 78.288C16.4889 78.976 16.3182 79.792 16.3182 80.736C16.3182 81.6373 16.4915 82.4267 16.8382 83.104C17.1902 83.776 17.6835 84.3013 18.3182 84.68C18.9529 85.0533 19.6942 85.24 20.5422 85.24ZM20.5262 77.4C21.9929 77.4 22.8142 78.2453 22.9902 79.936H17.8702C17.9715 79.1147 18.2462 78.488 18.6942 78.056C19.1422 77.6187 19.7529 77.4 20.5262 77.4ZM26.7233 85H27.9953V84.024C28.31 84.4027 28.6913 84.7013 29.1393 84.92C29.5926 85.1333 30.1126 85.24 30.6993 85.24C31.5046 85.24 32.1953 85.04 32.7713 84.64C33.3526 84.2347 33.798 83.688 34.1073 83C34.4166 82.312 34.5713 81.536 34.5713 80.672C34.5713 79.808 34.4166 79.032 34.1073 78.344C33.798 77.656 33.3526 77.1147 32.7713 76.72C32.1953 76.32 31.5073 76.12 30.7073 76.12C30.1686 76.12 29.686 76.2107 29.2593 76.392C28.8326 76.5733 28.4646 76.824 28.1553 77.144V73.48H26.7233V85ZM30.5233 83.936C29.654 83.936 29.014 83.6293 28.6033 83.016C28.198 82.4027 27.9953 81.6213 27.9953 80.672C27.9953 79.7173 28.198 78.9387 28.6033 78.336C29.014 77.728 29.6406 77.424 30.4833 77.424C31.07 77.424 31.5526 77.568 31.9313 77.856C32.3153 78.144 32.598 78.5333 32.7793 79.024C32.966 79.5147 33.0593 80.064 33.0593 80.672C33.0593 81.2853 32.966 81.84 32.7793 82.336C32.5926 82.8267 32.3126 83.216 31.9393 83.504C31.566 83.792 31.094 83.936 30.5233 83.936ZM36.9651 74.832H38.3891V73.36H36.9651V74.832ZM36.9651 85H38.3891V76.36H36.9651V85ZM41.2614 85H42.7014V80.448C42.7014 79.4453 42.9174 78.7013 43.3494 78.216C43.7868 77.7307 44.3628 77.488 45.0774 77.488C45.6854 77.488 46.1601 77.64 46.5014 77.944C46.8428 78.248 47.0801 78.6427 47.2134 79.128C47.3521 79.6133 47.4214 80.128 47.4214 80.672V85H48.8614V80.224C48.8614 79.8133 48.8108 79.3733 48.7094 78.904C48.6134 78.4293 48.4374 77.984 48.1814 77.568C47.9308 77.1467 47.5814 76.8027 47.1334 76.536C46.6908 76.2693 46.1201 76.136 45.4214 76.136C44.1628 76.136 43.2028 76.5813 42.5414 77.472V76.36H41.2614V85ZM53.8773 85.24C55.3173 85.24 56.384 84.712 57.0773 83.656V85H58.3413V79.656C58.3413 79.3147 58.3253 78.9893 58.2933 78.68C58.2613 78.3653 58.184 78.0747 58.0613 77.808C57.816 77.2427 57.4106 76.8213 56.8453 76.544C56.28 76.2613 55.608 76.12 54.8293 76.12C53.8533 76.12 53.064 76.336 52.4613 76.768C51.864 77.2 51.464 77.7947 51.2613 78.552L52.6133 78.96C52.768 78.432 53.0426 78.048 53.4373 77.808C53.832 77.568 54.2906 77.448 54.8133 77.448C55.56 77.448 56.096 77.616 56.4213 77.952C56.752 78.2827 56.9253 78.792 56.9413 79.48C56.3013 79.5707 55.6293 79.6667 54.9253 79.768C54.2266 79.864 53.6053 79.984 53.0613 80.128C52.4053 80.32 51.888 80.6213 51.5093 81.032C51.1306 81.4373 50.9413 81.9813 50.9413 82.664C50.9413 83.128 51.0506 83.5547 51.2693 83.944C51.4933 84.3333 51.8213 84.648 52.2533 84.888C52.6906 85.1227 53.232 85.24 53.8773 85.24ZM54.0933 84.048C53.48 84.048 53.0373 83.9067 52.7653 83.624C52.4933 83.336 52.3573 83.0133 52.3573 82.656C52.3573 82.2507 52.4906 81.9413 52.7573 81.728C53.0293 81.5093 53.344 81.344 53.7013 81.232C54.1226 81.1147 54.6133 81.016 55.1733 80.936C55.7333 80.856 56.3173 80.776 56.9253 80.696C56.9253 80.8933 56.9146 81.1173 56.8933 81.368C56.8773 81.6187 56.84 81.848 56.7813 82.056C56.68 82.5893 56.3973 83.056 55.9333 83.456C55.4746 83.8507 54.8613 84.048 54.0933 84.048ZM60.9013 85H62.3333V80.664C62.3333 80.152 62.4026 79.6587 62.5413 79.184C62.68 78.7093 62.96 78.3227 63.3813 78.024C63.68 77.8053 64.008 77.6773 64.3653 77.64C64.728 77.6027 65.0586 77.6213 65.3573 77.696V76.36C64.9733 76.2747 64.552 76.2747 64.0933 76.36C63.6346 76.4453 63.24 76.6213 62.9093 76.888C62.6213 77.0907 62.376 77.3707 62.1733 77.728V76.36H60.9013V85Z" fill="#767676"/>
</svg>
