<svg width="75" height="92" viewBox="0 0 75 92" fill="none" xmlns="http://www.w3.org/2000/svg">
<rect width="74" height="92" transform="translate(0.428711)" fill="white"/>
<circle cx="37.4287" cy="32" r="32" fill="#7541E3"/>
<path d="M52.5456 26.8601L38.5985 22.5751C37.8385 22.3416 37.0185 22.3416 36.259 22.5751L22.3115 26.8601C21.1345 27.2216 21.1345 28.7781 22.3115 29.1396L24.743 29.8866C24.2095 30.5461 23.8815 31.3506 23.849 32.2316C23.3675 32.5076 23.0285 33.0056 23.0285 33.6001C23.0285 34.1391 23.3125 34.5926 23.7215 34.8826L22.445 40.6265C22.334 41.126 22.714 41.6 23.2255 41.6H26.031C26.543 41.6 26.923 41.126 26.812 40.6265L25.5355 34.8826C25.9445 34.5926 26.2285 34.1391 26.2285 33.6001C26.2285 33.0216 25.905 32.5376 25.4455 32.2566C25.4835 31.5056 25.8675 30.8416 26.48 30.4206L36.2585 33.4251C36.7115 33.5641 37.5805 33.7376 38.598 33.4251L52.5456 29.1401C53.7231 28.7781 53.7231 27.2221 52.5456 26.8601V26.8601ZM39.068 34.9546C37.6415 35.3926 36.426 35.1506 35.7885 34.9546L28.5375 32.7271L27.8285 38.4C27.8285 40.1675 32.1265 41.6 37.4285 41.6C42.7305 41.6 47.0286 40.1675 47.0286 38.4L46.3196 32.7266L39.068 34.9546V34.9546Z" fill="white"/>
<path d="M1.95465 85H6.84265C7.89865 85 8.73332 84.704 9.34665 84.112C9.95998 83.5147 10.2666 82.712 10.2666 81.704C10.2666 81.064 10.1066 80.5013 9.78665 80.016C9.46665 79.5253 9.01332 79.1547 8.42665 78.904C8.82665 78.6693 9.14132 78.344 9.37065 77.928C9.59998 77.512 9.71465 77.04 9.71465 76.512C9.71465 75.9787 9.58398 75.4827 9.32265 75.024C9.06665 74.56 8.69332 74.1867 8.20265 73.904C7.71732 73.6213 7.13065 73.48 6.44265 73.48H1.95465V85ZM3.39465 78.288V74.824H6.42665C6.96532 74.824 7.40265 74.9813 7.73865 75.296C8.07998 75.6107 8.25065 76.016 8.25065 76.512C8.25065 77.0507 8.07198 77.4827 7.71465 77.808C7.36265 78.128 6.93332 78.288 6.42665 78.288H3.39465ZM3.39465 83.64V79.632H6.73065C7.34398 79.632 7.84265 79.832 8.22665 80.232C8.61065 80.6267 8.80265 81.1147 8.80265 81.696C8.80265 82.304 8.58932 82.7813 8.16265 83.128C7.73598 83.4693 7.20531 83.64 6.57065 83.64H3.39465ZM16.0849 85.24C16.9222 85.24 17.6769 85.032 18.3489 84.616C19.0209 84.1947 19.5276 83.6027 19.8689 82.84L18.5009 82.368C18.0049 83.3813 17.1782 83.888 16.0209 83.888C15.2262 83.888 14.6022 83.6453 14.1489 83.16C13.7009 82.6693 13.4476 81.976 13.3889 81.08H20.0129C20.0556 80.056 19.9222 79.1733 19.6129 78.432C19.3089 77.6907 18.8502 77.12 18.2369 76.72C17.6289 76.32 16.8902 76.12 16.0209 76.12C15.1836 76.12 14.4529 76.3093 13.8289 76.688C13.2049 77.0613 12.7196 77.5947 12.3729 78.288C12.0316 78.976 11.8609 79.792 11.8609 80.736C11.8609 81.6373 12.0342 82.4267 12.3809 83.104C12.7329 83.776 13.2262 84.3013 13.8609 84.68C14.4956 85.0533 15.2369 85.24 16.0849 85.24ZM16.0689 77.4C17.5356 77.4 18.3569 78.2453 18.5329 79.936H13.4129C13.5142 79.1147 13.7889 78.488 14.2369 78.056C14.6849 77.6187 15.2956 77.4 16.0689 77.4ZM24.5738 85.24C26.0138 85.24 27.0804 84.712 27.7738 83.656V85H29.0378V79.656C29.0378 79.3147 29.0218 78.9893 28.9898 78.68C28.9578 78.3653 28.8804 78.0747 28.7578 77.808C28.5124 77.2427 28.1071 76.8213 27.5418 76.544C26.9764 76.2613 26.3044 76.12 25.5258 76.12C24.5498 76.12 23.7604 76.336 23.1578 76.768C22.5604 77.2 22.1604 77.7947 21.9578 78.552L23.3098 78.96C23.4644 78.432 23.7391 78.048 24.1338 77.808C24.5284 77.568 24.9871 77.448 25.5098 77.448C26.2564 77.448 26.7924 77.616 27.1178 77.952C27.4484 78.2827 27.6218 78.792 27.6378 79.48C26.9978 79.5707 26.3258 79.6667 25.6218 79.768C24.9231 79.864 24.3018 79.984 23.7578 80.128C23.1018 80.32 22.5844 80.6213 22.2058 81.032C21.8271 81.4373 21.6378 81.9813 21.6378 82.664C21.6378 83.128 21.7471 83.5547 21.9658 83.944C22.1898 84.3333 22.5178 84.648 22.9498 84.888C23.3871 85.1227 23.9284 85.24 24.5738 85.24ZM24.7898 84.048C24.1764 84.048 23.7338 83.9067 23.4618 83.624C23.1898 83.336 23.0538 83.0133 23.0538 82.656C23.0538 82.2507 23.1871 81.9413 23.4538 81.728C23.7258 81.5093 24.0404 81.344 24.3978 81.232C24.8191 81.1147 25.3098 81.016 25.8698 80.936C26.4298 80.856 27.0138 80.776 27.6218 80.696C27.6218 80.8933 27.6111 81.1173 27.5898 81.368C27.5738 81.6187 27.5364 81.848 27.4778 82.056C27.3764 82.5893 27.0938 83.056 26.6298 83.456C26.1711 83.8507 25.5578 84.048 24.7898 84.048ZM34.8618 85.232C35.9391 85.232 36.7844 84.9947 37.3978 84.52C38.0111 84.0453 38.3178 83.3893 38.3178 82.552C38.3178 82.104 38.2244 81.728 38.0378 81.424C37.8511 81.1147 37.5364 80.848 37.0938 80.624C36.6564 80.3947 36.0564 80.184 35.2938 79.992C34.6164 79.8213 34.0991 79.6693 33.7418 79.536C33.3898 79.4027 33.1471 79.2613 33.0138 79.112C32.8858 78.9627 32.8218 78.784 32.8218 78.576C32.8218 78.208 32.9951 77.9147 33.3418 77.696C33.6938 77.4773 34.1498 77.376 34.7098 77.392C35.2964 77.408 35.7791 77.552 36.1578 77.824C36.5364 78.0907 36.7604 78.4533 36.8298 78.912L38.2858 78.648C38.1951 77.8853 37.8218 77.2747 37.1658 76.816C36.5151 76.352 35.6964 76.12 34.7098 76.12C33.7124 76.12 32.9098 76.352 32.3018 76.816C31.6938 77.2747 31.3898 77.8853 31.3898 78.648C31.3898 79.0587 31.4804 79.408 31.6618 79.696C31.8484 79.984 32.1604 80.2373 32.5978 80.456C33.0404 80.6747 33.6431 80.8853 34.4058 81.088C35.1098 81.2747 35.6351 81.4373 35.9818 81.576C36.3338 81.7093 36.5658 81.8507 36.6778 82C36.7898 82.1493 36.8458 82.3467 36.8458 82.592C36.8458 83.0133 36.6751 83.3467 36.3338 83.592C35.9978 83.8373 35.5364 83.96 34.9498 83.96C34.3258 83.96 33.8031 83.824 33.3818 83.552C32.9604 83.2747 32.6911 82.9013 32.5738 82.432L31.1178 82.664C31.2671 83.4747 31.6698 84.1067 32.3258 84.56C32.9871 85.008 33.8324 85.232 34.8618 85.232ZM40.7221 74.832H42.1461V73.36H40.7221V74.832ZM40.7221 85H42.1461V76.36H40.7221V85ZM48.2905 85.232C49.3679 85.232 50.2132 84.9947 50.8265 84.52C51.4399 84.0453 51.7465 83.3893 51.7465 82.552C51.7465 82.104 51.6532 81.728 51.4665 81.424C51.2799 81.1147 50.9652 80.848 50.5225 80.624C50.0852 80.3947 49.4852 80.184 48.7225 79.992C48.0452 79.8213 47.5279 79.6693 47.1705 79.536C46.8185 79.4027 46.5759 79.2613 46.4425 79.112C46.3145 78.9627 46.2505 78.784 46.2505 78.576C46.2505 78.208 46.4239 77.9147 46.7705 77.696C47.1225 77.4773 47.5785 77.376 48.1385 77.392C48.7252 77.408 49.2079 77.552 49.5865 77.824C49.9652 78.0907 50.1892 78.4533 50.2585 78.912L51.7145 78.648C51.6239 77.8853 51.2505 77.2747 50.5945 76.816C49.9439 76.352 49.1252 76.12 48.1385 76.12C47.1412 76.12 46.3385 76.352 45.7305 76.816C45.1225 77.2747 44.8185 77.8853 44.8185 78.648C44.8185 79.0587 44.9092 79.408 45.0905 79.696C45.2772 79.984 45.5892 80.2373 46.0265 80.456C46.4692 80.6747 47.0719 80.8853 47.8345 81.088C48.5385 81.2747 49.0639 81.4373 49.4105 81.576C49.7625 81.7093 49.9945 81.8507 50.1065 82C50.2185 82.1493 50.2745 82.3467 50.2745 82.592C50.2745 83.0133 50.1039 83.3467 49.7625 83.592C49.4265 83.8373 48.9652 83.96 48.3785 83.96C47.7545 83.96 47.2319 83.824 46.8105 83.552C46.3892 83.2747 46.1199 82.9013 46.0025 82.432L44.5465 82.664C44.6959 83.4747 45.0985 84.1067 45.7545 84.56C46.4159 85.008 47.2612 85.232 48.2905 85.232ZM55.5184 85H56.7024L58.7904 78.432L60.8784 85H62.0624L64.7024 76.36H63.2944L61.3584 82.68L59.4224 76.36H58.1664L56.2224 82.68L54.2944 76.36L52.8784 76.352L55.5184 85ZM68.5988 85.24C70.0388 85.24 71.1054 84.712 71.7988 83.656V85H73.0628V79.656C73.0628 79.3147 73.0468 78.9893 73.0148 78.68C72.9828 78.3653 72.9054 78.0747 72.7828 77.808C72.5374 77.2427 72.1321 76.8213 71.5668 76.544C71.0014 76.2613 70.3294 76.12 69.5508 76.12C68.5748 76.12 67.7854 76.336 67.1828 76.768C66.5854 77.2 66.1854 77.7947 65.9828 78.552L67.3348 78.96C67.4894 78.432 67.7641 78.048 68.1588 77.808C68.5534 77.568 69.0121 77.448 69.5348 77.448C70.2814 77.448 70.8174 77.616 71.1428 77.952C71.4734 78.2827 71.6468 78.792 71.6628 79.48C71.0228 79.5707 70.3508 79.6667 69.6468 79.768C68.9481 79.864 68.3268 79.984 67.7828 80.128C67.1268 80.32 66.6094 80.6213 66.2308 81.032C65.8521 81.4373 65.6628 81.9813 65.6628 82.664C65.6628 83.128 65.7721 83.5547 65.9908 83.944C66.2148 84.3333 66.5428 84.648 66.9748 84.888C67.4121 85.1227 67.9534 85.24 68.5988 85.24ZM68.8148 84.048C68.2014 84.048 67.7588 83.9067 67.4868 83.624C67.2148 83.336 67.0788 83.0133 67.0788 82.656C67.0788 82.2507 67.2121 81.9413 67.4788 81.728C67.7508 81.5093 68.0654 81.344 68.4228 81.232C68.8441 81.1147 69.3348 81.016 69.8948 80.936C70.4548 80.856 71.0388 80.776 71.6468 80.696C71.6468 80.8933 71.6361 81.1173 71.6148 81.368C71.5988 81.6187 71.5614 81.848 71.5028 82.056C71.4014 82.5893 71.1188 83.056 70.6548 83.456C70.1961 83.8507 69.5828 84.048 68.8148 84.048Z" fill="#767676"/>
</svg>
