<svg width="94" height="92" viewBox="0 0 94 92" fill="none" xmlns="http://www.w3.org/2000/svg">
<rect width="93" height="92" transform="translate(0.142822)" fill="white"/>
<circle cx="46.6428" cy="32" r="32" fill="#108295"/>
<path d="M49.8428 33.6001C49.8428 35.3676 48.4098 36.8001 46.6428 36.8001C44.8753 36.8001 43.4428 35.3676 43.4428 33.6001C43.4428 31.8326 44.8753 30.4001 46.6428 30.4001C48.4098 30.4001 49.8428 31.8326 49.8428 33.6001ZM38.6428 33.6001C38.6428 35.3676 37.2098 36.8001 35.4428 36.8001C33.6753 36.8001 32.2428 35.3676 32.2428 33.6001C32.2428 31.8326 33.6753 30.4001 35.4428 30.4001C37.2098 30.4001 38.6428 31.8326 38.6428 33.6001ZM57.8428 36.8001C56.0753 36.8001 54.6428 35.3676 54.6428 33.6001C54.6428 31.8326 56.0753 30.4001 57.8428 30.4001C59.6098 30.4001 61.0428 31.8326 61.0428 33.6001C61.0428 35.3676 59.6098 36.8001 57.8428 36.8001ZM33.8428 38.4001H37.0428C38.8098 38.4001 40.2428 39.8326 40.2428 41.6001V43.2001C40.2428 44.0836 39.5263 44.8001 38.6428 44.8001H32.2428C31.3593 44.8001 30.6428 44.0836 30.6428 43.2001V41.6001C30.6428 39.8326 32.0758 38.4001 33.8428 38.4001ZM45.0428 38.4001H48.2428C50.0098 38.4001 51.4428 39.8326 51.4428 41.6001V43.2001C51.4428 44.0836 50.7263 44.8001 49.8428 44.8001H43.4428C42.5593 44.8001 41.8428 44.0836 41.8428 43.2001V41.6001C41.8428 39.8326 43.2758 38.4001 45.0428 38.4001ZM56.2428 38.4001H59.4428C61.2098 38.4001 62.6428 39.8326 62.6428 41.6001V43.2001C62.6428 44.0836 61.9263 44.8001 61.0428 44.8001H54.6428C53.7593 44.8001 53.0428 44.0836 53.0428 43.2001V41.6001C53.0428 39.8326 54.4758 38.4001 56.2428 38.4001ZM57.8428 22.4001H35.4428V28.8001C34.2088 28.8001 33.0938 29.2811 32.2428 30.0486V21.6796C32.2428 20.3126 33.3193 19.2001 34.6428 19.2001H58.6428C59.9663 19.2001 61.0428 20.3126 61.0428 21.6796V30.0486C60.1918 29.2811 59.0763 28.8001 57.8428 28.8001V22.4001Z" fill="white"/>
<path d="M6.04195 85.24C4.89528 85.24 3.92195 84.9867 3.12195 84.48C2.32195 83.9733 1.71128 83.2693 1.28995 82.368C0.873947 81.4667 0.665947 80.424 0.665947 79.24C0.665947 78.056 0.873947 77.0133 1.28995 76.112C1.71128 75.2107 2.32195 74.5067 3.12195 74C3.92195 73.4933 4.89528 73.24 6.04195 73.24C7.37528 73.24 8.47128 73.5787 9.32995 74.256C10.1939 74.9333 10.7886 75.8453 11.1139 76.992L9.66595 77.376C9.43128 76.5173 9.01261 75.84 8.40995 75.344C7.80728 74.848 7.01795 74.6 6.04195 74.6C5.18328 74.6 4.46861 74.7947 3.89795 75.184C3.32728 75.5733 2.89795 76.1173 2.60995 76.816C2.32195 77.5093 2.17528 78.3173 2.16995 79.24C2.16461 80.1573 2.30595 80.9653 2.59395 81.664C2.88195 82.3573 3.31395 82.9013 3.88995 83.296C4.46595 83.6853 5.18328 83.88 6.04195 83.88C7.01795 83.88 7.80728 83.632 8.40995 83.136C9.01261 82.6347 9.43128 81.9573 9.66595 81.104L11.1139 81.488C10.7886 82.6293 10.1939 83.5413 9.32995 84.224C8.47128 84.9013 7.37528 85.24 6.04195 85.24ZM17.0284 85.24C16.1698 85.24 15.4284 85.0453 14.8044 84.656C14.1858 84.2667 13.7084 83.728 13.3724 83.04C13.0364 82.352 12.8684 81.5627 12.8684 80.672C12.8684 79.7653 13.0391 78.9707 13.3804 78.288C13.7218 77.6053 14.2044 77.0747 14.8284 76.696C15.4524 76.312 16.1858 76.12 17.0284 76.12C17.8924 76.12 18.6364 76.3147 19.2604 76.704C19.8844 77.088 20.3618 77.624 20.6924 78.312C21.0284 78.9947 21.1964 79.7813 21.1964 80.672C21.1964 81.5733 21.0284 82.368 20.6924 83.056C20.3564 83.7387 19.8764 84.2747 19.2524 84.664C18.6284 85.048 17.8871 85.24 17.0284 85.24ZM17.0284 83.888C17.9244 83.888 18.5911 83.5893 19.0284 82.992C19.4658 82.3947 19.6844 81.6213 19.6844 80.672C19.6844 79.696 19.4631 78.92 19.0204 78.344C18.5778 77.7627 17.9138 77.472 17.0284 77.472C16.4258 77.472 15.9298 77.608 15.5404 77.88C15.1511 78.152 14.8604 78.528 14.6684 79.008C14.4764 79.488 14.3804 80.0427 14.3804 80.672C14.3804 81.6427 14.6044 82.4213 15.0524 83.008C15.5004 83.5947 16.1591 83.888 17.0284 83.888ZM29.5898 85V80.672C29.5898 80.2613 29.5525 79.8667 29.4778 79.488C29.4085 79.1093 29.2832 78.7707 29.1018 78.472C28.9258 78.168 28.6858 77.928 28.3818 77.752C28.0832 77.576 27.7045 77.488 27.2458 77.488C26.8885 77.488 26.5632 77.5493 26.2698 77.672C25.9818 77.7893 25.7338 77.9707 25.5258 78.216C25.3178 78.4613 25.1552 78.7707 25.0378 79.144C24.9258 79.512 24.8698 79.9467 24.8698 80.448L23.9338 80.16C23.9338 79.3227 24.0832 78.6053 24.3818 78.008C24.6858 77.4053 25.1098 76.944 25.6538 76.624C26.2032 76.2987 26.8485 76.136 27.5898 76.136C28.1498 76.136 28.6272 76.224 29.0218 76.4C29.4165 76.576 29.7445 76.8107 30.0058 77.104C30.2672 77.392 30.4725 77.7173 30.6218 78.08C30.7712 78.4373 30.8752 78.8027 30.9338 79.176C30.9978 79.544 31.0298 79.8933 31.0298 80.224V85H29.5898ZM23.4298 85V76.36H24.7098V78.672H24.8698V85H23.4298ZM34.4137 85V75.888C34.4137 75.664 34.4244 75.4373 34.4457 75.208C34.467 74.9733 34.515 74.7467 34.5897 74.528C34.6644 74.304 34.787 74.0987 34.9577 73.912C35.155 73.6933 35.371 73.5387 35.6057 73.448C35.8404 73.352 36.0777 73.2933 36.3177 73.272C36.563 73.2507 36.795 73.24 37.0137 73.24H38.1097V74.424H37.0937C36.6724 74.424 36.3577 74.528 36.1497 74.736C35.9417 74.9387 35.8377 75.248 35.8377 75.664V85H34.4137ZM32.9497 77.536V76.36H38.1097V77.536H32.9497ZM43.2981 85.24C42.4501 85.24 41.7087 85.0533 41.0741 84.68C40.4447 84.3013 39.9541 83.776 39.6021 83.104C39.2501 82.4267 39.0741 81.6373 39.0741 80.736C39.0741 79.792 39.2474 78.976 39.5941 78.288C39.9407 77.5947 40.4234 77.0613 41.0421 76.688C41.6661 76.3093 42.3967 76.12 43.2341 76.12C44.1034 76.12 44.8421 76.32 45.4501 76.72C46.0634 77.12 46.5221 77.6907 46.8261 78.432C47.1354 79.1733 47.2687 80.056 47.2261 81.08H45.7861V80.568C45.7701 79.5067 45.5541 78.7147 45.1381 78.192C44.7221 77.664 44.1034 77.4 43.2821 77.4C42.4021 77.4 41.7327 77.6827 41.2741 78.248C40.8154 78.8133 40.5861 79.624 40.5861 80.68C40.5861 81.6987 40.8154 82.488 41.2741 83.048C41.7327 83.608 42.3861 83.888 43.2341 83.888C43.8047 83.888 44.3007 83.7573 44.7221 83.496C45.1434 83.2347 45.4741 82.8587 45.7141 82.368L47.0821 82.84C46.7461 83.6027 46.2394 84.1947 45.5621 84.616C44.8901 85.032 44.1354 85.24 43.2981 85.24ZM40.1061 81.08V79.936H46.4901V81.08H40.1061ZM49.4872 85V76.36H50.7592V78.448L50.5512 78.176C50.6525 77.9093 50.7832 77.664 50.9432 77.44C51.1085 77.216 51.2925 77.032 51.4952 76.888C51.7192 76.7067 51.9725 76.568 52.2552 76.472C52.5379 76.376 52.8259 76.32 53.1192 76.304C53.4125 76.2827 53.6872 76.3013 53.9432 76.36V77.696C53.6445 77.616 53.3165 77.5947 52.9592 77.632C52.6019 77.6693 52.2712 77.8 51.9672 78.024C51.6899 78.2213 51.4739 78.4613 51.3192 78.744C51.1699 79.0267 51.0659 79.3333 51.0072 79.664C50.9485 79.9893 50.9192 80.3227 50.9192 80.664V85H49.4872ZM59.5237 85.24C58.6757 85.24 57.9344 85.0533 57.2997 84.68C56.6704 84.3013 56.1797 83.776 55.8277 83.104C55.4757 82.4267 55.2997 81.6373 55.2997 80.736C55.2997 79.792 55.473 78.976 55.8197 78.288C56.1664 77.5947 56.649 77.0613 57.2677 76.688C57.8917 76.3093 58.6224 76.12 59.4597 76.12C60.329 76.12 61.0677 76.32 61.6757 76.72C62.289 77.12 62.7477 77.6907 63.0517 78.432C63.361 79.1733 63.4944 80.056 63.4517 81.08H62.0117V80.568C61.9957 79.5067 61.7797 78.7147 61.3637 78.192C60.9477 77.664 60.329 77.4 59.5077 77.4C58.6277 77.4 57.9584 77.6827 57.4997 78.248C57.041 78.8133 56.8117 79.624 56.8117 80.68C56.8117 81.6987 57.041 82.488 57.4997 83.048C57.9584 83.608 58.6117 83.888 59.4597 83.888C60.0304 83.888 60.5264 83.7573 60.9477 83.496C61.369 83.2347 61.6997 82.8587 61.9397 82.368L63.3077 82.84C62.9717 83.6027 62.465 84.1947 61.7877 84.616C61.1157 85.032 60.361 85.24 59.5237 85.24ZM56.3317 81.08V79.936H62.7157V81.08H56.3317ZM71.6304 85V80.672C71.6304 80.2613 71.5931 79.8667 71.5184 79.488C71.4491 79.1093 71.3238 78.7707 71.1424 78.472C70.9664 78.168 70.7264 77.928 70.4224 77.752C70.1238 77.576 69.7451 77.488 69.2864 77.488C68.9291 77.488 68.6038 77.5493 68.3104 77.672C68.0224 77.7893 67.7744 77.9707 67.5664 78.216C67.3584 78.4613 67.1958 78.7707 67.0784 79.144C66.9664 79.512 66.9104 79.9467 66.9104 80.448L65.9744 80.16C65.9744 79.3227 66.1238 78.6053 66.4224 78.008C66.7264 77.4053 67.1504 76.944 67.6944 76.624C68.2438 76.2987 68.8891 76.136 69.6304 76.136C70.1904 76.136 70.6678 76.224 71.0624 76.4C71.4571 76.576 71.7851 76.8107 72.0464 77.104C72.3078 77.392 72.5131 77.7173 72.6624 78.08C72.8118 78.4373 72.9158 78.8027 72.9744 79.176C73.0384 79.544 73.0704 79.8933 73.0704 80.224V85H71.6304ZM65.4704 85V76.36H66.7504V78.672H66.9104V85H65.4704ZM79.1922 85.24C78.3175 85.24 77.5735 85.0453 76.9602 84.656C76.3522 84.2613 75.8882 83.72 75.5682 83.032C75.2482 82.344 75.0829 81.56 75.0722 80.68C75.0829 79.7787 75.2509 78.9867 75.5762 78.304C75.9069 77.616 76.3789 77.08 76.9922 76.696C77.6055 76.312 78.3442 76.12 79.2082 76.12C80.1202 76.12 80.9042 76.344 81.5602 76.792C82.2215 77.24 82.6642 77.8533 82.8882 78.632L81.4802 79.056C81.2989 78.5547 81.0029 78.1653 80.5922 77.888C80.1869 77.6107 79.7202 77.472 79.1922 77.472C78.6002 77.472 78.1122 77.6107 77.7282 77.888C77.3442 78.16 77.0589 78.5387 76.8722 79.024C76.6855 79.504 76.5895 80.056 76.5842 80.68C76.5949 81.64 76.8162 82.416 77.2482 83.008C77.6855 83.5947 78.3335 83.888 79.1922 83.888C79.7575 83.888 80.2269 83.76 80.6002 83.504C80.9735 83.2427 81.2562 82.8667 81.4482 82.376L82.8882 82.752C82.5895 83.5573 82.1229 84.1733 81.4882 84.6C80.8535 85.0267 80.0882 85.24 79.1922 85.24ZM88.5106 85.24C87.6626 85.24 86.9212 85.0533 86.2866 84.68C85.6572 84.3013 85.1666 83.776 84.8146 83.104C84.4626 82.4267 84.2866 81.6373 84.2866 80.736C84.2866 79.792 84.4599 78.976 84.8066 78.288C85.1532 77.5947 85.6359 77.0613 86.2546 76.688C86.8786 76.3093 87.6092 76.12 88.4466 76.12C89.3159 76.12 90.0546 76.32 90.6626 76.72C91.2759 77.12 91.7346 77.6907 92.0386 78.432C92.3479 79.1733 92.4812 80.056 92.4386 81.08H90.9986V80.568C90.9826 79.5067 90.7666 78.7147 90.3506 78.192C89.9346 77.664 89.3159 77.4 88.4946 77.4C87.6146 77.4 86.9452 77.6827 86.4866 78.248C86.0279 78.8133 85.7986 79.624 85.7986 80.68C85.7986 81.6987 86.0279 82.488 86.4866 83.048C86.9452 83.608 87.5986 83.888 88.4466 83.888C89.0172 83.888 89.5132 83.7573 89.9346 83.496C90.3559 83.2347 90.6866 82.8587 90.9266 82.368L92.2946 82.84C91.9586 83.6027 91.4519 84.1947 90.7746 84.616C90.1026 85.032 89.3479 85.24 88.5106 85.24ZM85.3186 81.08V79.936H91.7026V81.08H85.3186Z" fill="#767676"/>
</svg>
