<svg width="48" height="48" viewBox="0 0 48 48" fill="none" xmlns="http://www.w3.org/2000/svg">
<path d="M19.9389 8.38656C16.6128 16.7017 13.0258 20.2737 4.79758 23.5388C4.37439 23.7067 4.36548 24.3154 4.78358 24.4957C12.7376 27.9248 16.2727 31.5654 19.9104 39.6825C20.0931 40.0903 20.6852 40.0813 20.8557 39.6683C24.2995 31.3291 27.8235 27.6919 35.999 24.4597C36.4228 24.2922 36.4326 23.6829 36.0141 23.5026C27.9256 20.0184 24.383 16.4608 20.8933 8.37347C20.7134 7.95667 20.1075 7.96508 19.9389 8.38656Z" fill="#FFCA05"/>
<path d="M32.6142 9.60005L36 6.21426L39.3857 9.60005L36 12.9858L32.6142 9.60005Z" stroke="#FFCA05" stroke-width="2"/>
<path d="M17.3531 30.528C14.7483 27.9012 11.602 25.911 7.43543 24.0385C11.7517 22.2498 14.9987 20.3154 17.6279 17.687C20.2594 15.0564 22.2142 11.7885 24.0355 7.424C25.9352 11.6612 27.9159 14.8528 30.5263 17.4663C33.1361 20.0793 36.3233 22.0623 40.5598 23.9596C36.2725 25.7344 33.0578 27.6778 30.4395 30.3199C27.8128 32.9706 25.8429 36.2676 23.9621 40.656C21.9848 36.3895 19.9664 33.1634 17.3531 30.528Z" stroke="#1A1A1A" stroke-width="2"/>
<path d="M6.21426 38.4001L9.60005 35.0143L12.9858 38.4001L9.60005 41.7859L6.21426 38.4001Z" stroke="#FFCA05" stroke-width="2"/>
</svg>
