<svg width="1235" height="1300" viewBox="0 0 1235 1300" fill="none" xmlns="http://www.w3.org/2000/svg">
<path d="M528.3 355.5V495.9H359.1V990H182.7V495.9H15.3V355.5H528.3Z" fill="#563CC9"/>
<path d="M998.564 664.2C1035.76 672.6 1065.16 691.2 1086.76 720C1108.96 748.2 1120.06 780.6 1120.06 817.2C1120.06 871.2 1101.46 913.5 1064.26 944.1C1027.06 974.7 974.864 990 907.664 990H593.564V355.5H897.764C962.564 355.5 1013.26 369.9 1049.86 398.7C1087.06 427.5 1105.66 468 1105.66 520.2C1105.66 557.4 1095.76 588.6 1075.96 613.8C1056.76 638.4 1030.96 655.2 998.564 664.2ZM769.964 607.5H859.064C903.464 607.5 925.664 589.2 925.664 552.6C925.664 514.8 903.464 495.9 859.064 495.9H769.964V607.5ZM872.564 847.8C916.964 847.8 939.164 829.2 939.164 792C939.164 772.8 933.164 758.1 921.164 747.9C909.764 737.7 893.264 732.6 871.664 732.6H769.964V847.8H872.564Z" fill="#FFA011"/>
</svg>
