<svg width="48" height="48" viewBox="0 0 48 48" fill="none" xmlns="http://www.w3.org/2000/svg">
<rect x="15" y="19.2" width="10.2" height="25.2" fill="#16BCC8"/>
<rect x="24" y="0.599976" width="7.8" height="4.8" fill="#16BCC8"/>
<path d="M47.234 24.5106H36.766V19.0468C36.766 19.0185 36.7642 18.9906 36.7612 18.9632C36.7604 18.9563 36.759 18.9497 36.7581 18.9429C36.7552 18.9221 36.752 18.9014 36.7475 18.8811C36.7457 18.8734 36.7436 18.8659 36.7416 18.8584C36.7367 18.8392 36.7314 18.8202 36.7251 18.8015C36.7225 18.7936 36.7195 18.786 36.7166 18.7783C36.7099 18.7603 36.7026 18.7428 36.6947 18.7255C36.691 18.7177 36.6873 18.7099 36.6834 18.7022C36.675 18.6855 36.6659 18.6692 36.6563 18.6532C36.6518 18.6458 36.6474 18.6382 36.6427 18.6308C36.6321 18.6145 36.6207 18.5989 36.609 18.5835C36.6043 18.5772 36.5999 18.5708 36.595 18.5648C36.578 18.5438 36.5602 18.5237 36.5412 18.5047C36.5393 18.5029 36.5372 18.5012 36.5352 18.4994C36.5178 18.4822 36.4995 18.466 36.4804 18.4507C36.4787 18.4493 36.4772 18.4476 36.4754 18.4463L24.766 9.17832V1.53191H31.4553V4.39149H27.0638C26.6408 4.39149 26.2979 4.73443 26.2979 5.15745C26.2979 5.58046 26.6408 5.9234 27.0638 5.9234H32.2213C32.6443 5.9234 32.9872 5.58046 32.9872 5.15745V0.765957C32.9872 0.342945 32.6443 0 32.2213 0H24C23.577 0 23.234 0.342945 23.234 0.765957V9.17832L11.5246 18.4462C11.5229 18.4475 11.5213 18.4492 11.5196 18.4506C11.5005 18.466 11.4822 18.4822 11.4647 18.4993C11.4629 18.5011 11.4608 18.5028 11.4588 18.5046C11.4398 18.5236 11.422 18.5437 11.405 18.5647C11.4001 18.5707 11.3957 18.5771 11.391 18.5834C11.3793 18.5988 11.3679 18.6144 11.3573 18.6307C11.3525 18.6381 11.3482 18.6457 11.3437 18.6531C11.3341 18.6691 11.325 18.6854 11.3166 18.7021C11.3127 18.7099 11.309 18.7175 11.3053 18.7254C11.2974 18.7427 11.29 18.7602 11.2834 18.7782C11.2805 18.786 11.2775 18.7936 11.2749 18.8014C11.2686 18.82 11.2633 18.839 11.2583 18.8583C11.2564 18.8658 11.2543 18.8733 11.2525 18.881C11.248 18.9013 11.2448 18.9219 11.2419 18.9428C11.241 18.9496 11.2396 18.9563 11.2388 18.9631C11.2359 18.9905 11.234 19.0184 11.234 19.0467V24.5106H0.765957C0.342945 24.5106 0 24.8536 0 25.2766V47.234C0 47.6571 0.342945 48 0.765957 48H47.234C47.6571 48 48 47.6571 48 47.234V25.2766C48 24.8536 47.6571 24.5106 47.234 24.5106ZM46.4681 26.0426V28.5957H36.766V26.0426H46.4681ZM11.234 26.0426V28.5957H1.53191V26.0426H11.234ZM30.1277 33.8724V43.4043H24.766V33.8724H30.1277ZM23.234 43.4043H17.8723V33.8724H23.234V43.4043ZM17.8723 44.9362H30.1277V46.4681H17.8723V44.9362ZM31.6596 46.4681V33.1064C31.6596 32.6834 31.3166 32.3405 30.8936 32.3405H17.1064C16.6834 32.3405 16.3404 32.6834 16.3404 33.1064V46.4681H1.53191V30.1277H11.234V44.1702C11.234 44.5932 11.577 44.9362 12 44.9362C12.423 44.9362 12.766 44.5932 12.766 44.1702V19.8128H26.8085C27.2315 19.8128 27.5745 19.4698 27.5745 19.0468C27.5745 18.6238 27.2315 18.2809 26.8085 18.2809H14.202L24 10.5258L33.798 18.2809H29.8723C29.4493 18.2809 29.1064 18.6238 29.1064 19.0468C29.1064 19.4698 29.4493 19.8128 29.8723 19.8128H35.234V44.1702C35.234 44.5932 35.577 44.9362 36 44.9362C36.423 44.9362 36.766 44.5932 36.766 44.1702V30.1277H46.4681V46.4681H31.6596Z" fill="#EAEDF6"/>
<path d="M4.51068 32.3405C4.08767 32.3405 3.74472 32.6834 3.74472 33.1064V36.1702C3.74472 36.5933 4.08767 36.9362 4.51068 36.9362C4.93369 36.9362 5.27664 36.5933 5.27664 36.1702V33.1064C5.27664 32.6834 4.93369 32.3405 4.51068 32.3405Z" fill="#EAEDF6"/>
<path d="M8.25528 32.3405C7.83226 32.3405 7.48932 32.6834 7.48932 33.1064V36.1702C7.48932 36.5933 7.83226 36.9362 8.25528 36.9362C8.67829 36.9362 9.02123 36.5933 9.02123 36.1702V33.1064C9.02123 32.6834 8.67839 32.3405 8.25528 32.3405Z" fill="#EAEDF6"/>
<path d="M43.4893 32.3405C43.0663 32.3405 42.7234 32.6834 42.7234 33.1064V36.1702C42.7234 36.5933 43.0663 36.9362 43.4893 36.9362C43.9123 36.9362 44.2553 36.5933 44.2553 36.1702V33.1064C44.2553 32.6834 43.9124 32.3405 43.4893 32.3405Z" fill="#EAEDF6"/>
<path d="M39.7447 32.3405C39.3217 32.3405 38.9788 32.6834 38.9788 33.1064V36.1702C38.9788 36.5933 39.3217 36.9362 39.7447 36.9362C40.1677 36.9362 40.5107 36.5933 40.5107 36.1702V33.1064C40.5107 32.6834 40.1677 32.3405 39.7447 32.3405Z" fill="#EAEDF6"/>
<path d="M24 22.366C21.954 22.366 20.2894 24.0305 20.2894 26.0766C20.2894 28.1226 21.954 29.7872 24 29.7872C26.046 29.7872 27.7106 28.1226 27.7106 26.0766C27.7106 24.0305 26.046 22.366 24 22.366ZM24 28.2554C22.7987 28.2554 21.8213 27.278 21.8213 26.0767C21.8213 24.8753 22.7987 23.8979 24 23.8979C25.2013 23.8979 26.1787 24.8752 26.1787 26.0766C26.1787 27.2779 25.2013 28.2554 24 28.2554Z" fill="#EAEDF6"/>
</svg>
