<svg width="16" height="17" viewBox="0 0 16 17" fill="none" xmlns="http://www.w3.org/2000/svg">
<path d="M14.6266 5.34505C14.5941 4.63542 14.4814 4.1508 14.3166 3.72681C14.1493 3.28196 13.8868 2.87903 13.5477 2.54598C13.2147 2.20683 12.8117 1.94427 12.3668 1.77684C11.9427 1.61214 11.4582 1.49953 10.7486 1.46729C10.0376 1.43473 9.81049 1.427 7.99998 1.427C6.18947 1.427 5.96232 1.43473 5.25136 1.46708C4.54173 1.49953 4.05721 1.61224 3.63312 1.77704C3.18827 1.94438 2.78534 2.20683 2.45229 2.54598C2.11314 2.87893 1.85059 3.28186 1.68315 3.72671C1.51845 4.1508 1.40584 4.63542 1.3736 5.34495C1.34104 6.05601 1.33331 6.28306 1.33331 8.09357C1.33331 9.90417 1.34104 10.1313 1.3736 10.8423C1.40594 11.5518 1.51866 12.0364 1.68345 12.4605C1.85079 12.9053 2.11324 13.3083 2.45239 13.6413C2.78534 13.9804 3.18837 14.2429 3.63322 14.4102C4.05721 14.5751 4.54183 14.6877 5.25147 14.7202C5.96252 14.7526 6.18958 14.7602 8.00008 14.7602C9.81059 14.7602 10.0377 14.7526 10.7487 14.7202C11.4583 14.6877 11.9429 14.5751 12.3669 14.4102C13.2624 14.0639 13.9703 13.356 14.3166 12.4605C14.4815 12.0364 14.5941 11.5518 14.6266 10.8423C14.6589 10.1312 14.6666 9.90417 14.6666 8.09367C14.6666 6.28306 14.6589 6.05601 14.6266 5.34505ZM13.4265 10.7877C13.3969 11.4377 13.2883 11.7907 13.197 12.0256C12.9727 12.607 12.5132 13.0665 11.9318 13.2908C11.6969 13.3821 11.3439 13.4907 10.6939 13.5203C9.99105 13.5525 9.78017 13.5592 7.99998 13.5592C6.21969 13.5592 6.00891 13.5525 5.30599 13.5203C4.65607 13.4907 4.30308 13.3821 4.06809 13.2908C3.77858 13.1839 3.51664 13.0135 3.3016 12.7921C3.08014 12.577 2.90975 12.3152 2.80284 12.0256C2.71159 11.7907 2.60295 11.4377 2.57334 10.7877C2.5413 10.0847 2.53448 9.87386 2.53448 8.09377C2.53448 6.31358 2.5413 6.1028 2.57334 5.39978C2.60305 4.74976 2.71159 4.39677 2.80284 4.16189C2.90975 3.87227 3.08024 3.61033 3.3016 3.39528C3.51664 3.17383 3.77858 3.00344 4.0682 2.89663C4.30308 2.80528 4.65607 2.69674 5.30609 2.66703C6.00901 2.63499 6.21989 2.62817 7.99998 2.62817H7.99988C9.77997 2.62817 9.99084 2.63499 10.6939 2.66713C11.3439 2.69674 11.6968 2.80538 11.9318 2.89663C12.2213 3.00354 12.4832 3.17393 12.6983 3.39528C12.9197 3.61033 13.0901 3.87227 13.1969 4.16189C13.2883 4.39677 13.3969 4.74976 13.4265 5.39978C13.4586 6.1027 13.4654 6.31358 13.4654 8.09367C13.4654 9.87386 13.4587 10.0846 13.4265 10.7877Z" fill="url(#paint0_linear)"/>
<path d="M7.9999 4.67017C6.10923 4.67017 4.57654 6.20296 4.57654 8.09363C4.57654 9.98429 6.10923 11.517 7.9999 11.517C9.89067 11.517 11.4234 9.98429 11.4234 8.09363C11.4234 6.20296 9.89067 4.67017 7.9999 4.67017ZM7.9999 10.3158C6.77268 10.3157 5.77771 9.32084 5.77781 8.09353C5.77781 6.86631 6.77268 5.87134 8 5.87134C9.22731 5.87144 10.2222 6.86631 10.2222 8.09353C10.2222 9.32084 9.22721 10.3158 7.9999 10.3158Z" fill="url(#paint1_linear)"/>
<path d="M12.3586 4.53493C12.3586 4.97673 12.0004 5.3349 11.5586 5.3349C11.1167 5.3349 10.7585 4.97673 10.7585 4.53493C10.7585 4.09304 11.1167 3.73486 11.5586 3.73486C12.0004 3.73486 12.3586 4.09304 12.3586 4.53493Z" fill="url(#paint2_linear)"/>
<defs>
<linearGradient id="paint0_linear" x1="2.45222" y1="13.6413" x2="13.5477" y2="2.5458" gradientUnits="userSpaceOnUse">
<stop stop-color="#FFD600"/>
<stop offset="0.5" stop-color="#FF0100"/>
<stop offset="1" stop-color="#D800B9"/>
</linearGradient>
<linearGradient id="paint1_linear" x1="5.57924" y1="10.5143" x2="10.4207" y2="5.67287" gradientUnits="userSpaceOnUse">
<stop stop-color="#FF6400"/>
<stop offset="0.5" stop-color="#FF0100"/>
<stop offset="1" stop-color="#FD0056"/>
</linearGradient>
<linearGradient id="paint2_linear" x1="10.9929" y1="5.10056" x2="12.1243" y2="3.96921" gradientUnits="userSpaceOnUse">
<stop stop-color="#F30072"/>
<stop offset="1" stop-color="#E50097"/>
</linearGradient>
</defs>
</svg>
