<svg width="64" height="92" viewBox="0 0 64 92" fill="none" xmlns="http://www.w3.org/2000/svg">
<rect width="64" height="92" fill="white"/>
<circle cx="32" cy="32" r="32" fill="#767676"/>
<path d="M28.003 42.865C28.0037 43.1924 28.0969 43.5123 28.271 43.7849L29.126 45.1229C29.3875 45.535 29.9845 45.8667 30.458 45.8667H33.543C34.0165 45.8667 34.6135 45.535 34.875 45.1229L35.7295 43.7849C35.8919 43.5066 35.9849 43.1903 36 42.865V40.868H28L28.003 42.865ZM31.9725 19.2001C26.872 19.2163 23.2 23.5233 23.2 28.3673C23.197 30.5867 23.9714 32.7309 25.378 34.3979C26.204 35.3797 27.496 37.4303 27.9885 39.1606C27.9885 39.1752 27.992 39.1882 27.994 39.2013H36.006C36.006 39.1882 36.0095 39.1752 36.0115 39.1606C36.504 37.4303 37.796 35.3797 38.622 34.3979C40.0286 32.7309 40.803 30.5867 40.8 28.3673C40.8 23.2957 36.8455 19.184 31.9725 19.2001ZM32 24.2004C30.9395 24.2016 29.9228 24.6411 29.1729 25.4222C28.423 26.2034 28.0012 27.2626 28 28.3673C28 28.5883 27.9157 28.8003 27.7657 28.9566C27.6157 29.1129 27.4122 29.2007 27.2 29.2007C26.9878 29.2007 26.7843 29.1129 26.6343 28.9566C26.4843 28.8003 26.4 28.5883 26.4 28.3673C26.4016 26.8206 26.9921 25.3378 28.042 24.2441C29.0918 23.1504 30.5153 22.5353 32 22.5336C32.2122 22.5336 32.4157 22.6214 32.5657 22.7777C32.7157 22.934 32.8 23.146 32.8 23.367C32.8 23.5881 32.7157 23.8 32.5657 23.9563C32.4157 24.1126 32.2122 24.2004 32 24.2004ZM21.6 29.2007C21.6 28.8691 21.4736 28.5512 21.2485 28.3168C21.0235 28.0823 20.7183 27.9506 20.4 27.9506H17.2C16.8817 27.9506 16.5765 28.0823 16.3515 28.3168C16.1264 28.5512 16 28.8691 16 29.2007C16 29.5322 16.1264 29.8502 16.3515 30.0846C16.5765 30.3191 16.8817 30.4508 17.2 30.4508H20.4C20.7183 30.4508 21.0235 30.3191 21.2485 30.0846C21.4736 29.8502 21.6 29.5322 21.6 29.2007V29.2007ZM46.8 27.9506H43.6C43.2817 27.9506 42.9765 28.0823 42.7515 28.3168C42.5264 28.5512 42.4 28.8691 42.4 29.2007C42.4 29.5322 42.5264 29.8502 42.7515 30.0846C42.9765 30.3191 43.2817 30.4508 43.6 30.4508H46.8C47.1183 30.4508 47.4235 30.3191 47.6485 30.0846C47.8736 29.8502 48 29.5322 48 29.2007C48 28.8691 47.8736 28.5512 47.6485 28.3168C47.4235 28.0823 47.1183 27.9506 46.8 27.9506ZM22.554 22.0763L19.783 20.4096C19.6464 20.3239 19.4948 20.2674 19.3371 20.2435C19.1793 20.2196 19.0185 20.2286 18.8642 20.2701C18.7098 20.3116 18.5649 20.3847 18.438 20.4852C18.311 20.5857 18.2046 20.7116 18.1249 20.8554C18.0451 20.9992 17.9937 21.1581 17.9736 21.3229C17.9535 21.4876 17.9651 21.6549 18.0078 21.8149C18.0504 21.975 18.1233 22.1245 18.222 22.2549C18.3208 22.3853 18.4435 22.4939 18.583 22.5743L21.354 24.241C21.4906 24.3267 21.6422 24.3831 21.7999 24.4071C21.9577 24.431 22.1185 24.422 22.2728 24.3805C22.4272 24.339 22.5721 24.2658 22.699 24.1654C22.826 24.0649 22.9324 23.939 23.0121 23.7952C23.0919 23.6514 23.1433 23.4925 23.1634 23.3277C23.1835 23.163 23.1719 22.9957 23.1292 22.8357C23.0866 22.6756 23.0137 22.5261 22.915 22.3957C22.8162 22.2653 22.6935 22.1567 22.554 22.0763V22.0763ZM45.417 35.8271L42.646 34.1603C42.5094 34.0747 42.3578 34.0182 42.2001 33.9943C42.0423 33.9703 41.8815 33.9794 41.7272 34.0209C41.5728 34.0624 41.4279 34.1355 41.301 34.236C41.174 34.3365 41.0676 34.4623 40.9879 34.6062C40.9081 34.75 40.8567 34.9089 40.8366 35.0737C40.8165 35.2384 40.8281 35.4057 40.8708 35.5657C40.9134 35.7257 40.9863 35.8753 41.085 36.0057C41.1838 36.1361 41.3065 36.2446 41.446 36.3251L44.217 37.9918C44.4921 38.1504 44.8161 38.1902 45.1191 38.1026C45.4221 38.0149 45.68 37.8069 45.8372 37.5232C45.9945 37.2395 46.0386 36.9029 45.96 36.5857C45.8814 36.2685 45.6864 35.9961 45.417 35.8271ZM21.354 34.1603L18.583 35.8271C18.4435 35.9075 18.3208 36.0161 18.222 36.1465C18.1233 36.2768 18.0504 36.4264 18.0078 36.5864C17.9651 36.7465 17.9535 36.9137 17.9736 37.0785C17.9937 37.2432 18.0451 37.4022 18.1249 37.546C18.2046 37.6898 18.311 37.8157 18.438 37.9161C18.5649 38.0166 18.7098 38.0898 18.8642 38.1313C19.0185 38.1728 19.1793 38.1818 19.3371 38.1579C19.4948 38.1339 19.6464 38.0775 19.783 37.9918L22.554 36.3251C22.8234 36.1561 23.0184 35.8837 23.097 35.5665C23.1756 35.2493 23.1315 34.9126 22.9742 34.629C22.817 34.3453 22.5591 34.1372 22.2561 34.0496C21.9531 33.962 21.6291 34.0017 21.354 34.1603V34.1603ZM42.047 24.4087C42.2577 24.4092 42.4648 24.3513 42.647 24.241L45.418 22.5743C45.6874 22.4053 45.8824 22.1329 45.961 21.8157C46.0396 21.4985 45.9955 21.1619 45.8382 20.8782C45.681 20.5945 45.4231 20.3865 45.1201 20.2988C44.8171 20.2112 44.4931 20.2509 44.218 20.4096L41.447 22.0763C41.2183 22.214 41.0397 22.4263 40.9386 22.6805C40.8376 22.9347 40.8199 23.2165 40.8883 23.4823C40.9567 23.748 41.1072 23.9828 41.3167 24.1503C41.5262 24.3178 41.7829 24.4087 42.047 24.4087Z" fill="white"/>
<path d="M3.04312 85V73.48H4.46712V83.648H9.81112V85H3.04312ZM14.1004 85.24C13.455 85.24 12.9137 85.1227 12.4764 84.888C12.0444 84.648 11.7164 84.3333 11.4924 83.944C11.2737 83.5547 11.1644 83.128 11.1644 82.664C11.1644 82.2107 11.2497 81.8187 11.4204 81.488C11.5964 81.152 11.8417 80.8747 12.1564 80.656C12.471 80.432 12.847 80.256 13.2844 80.128C13.695 80.016 14.1537 79.92 14.6604 79.84C15.1724 79.7547 15.6897 79.6773 16.2124 79.608C16.735 79.5387 17.223 79.472 17.6764 79.408L17.1644 79.704C17.1804 78.936 17.0257 78.368 16.7004 78C16.3804 77.632 15.8257 77.448 15.0364 77.448C14.5137 77.448 14.055 77.568 13.6604 77.808C13.271 78.0427 12.9964 78.4267 12.8364 78.96L11.4844 78.552C11.6924 77.7947 12.095 77.2 12.6924 76.768C13.2897 76.336 14.0764 76.12 15.0524 76.12C15.8364 76.12 16.5084 76.2613 17.0684 76.544C17.6337 76.8213 18.039 77.2427 18.2844 77.808C18.407 78.0747 18.4844 78.3653 18.5164 78.68C18.5484 78.9893 18.5644 79.3147 18.5644 79.656V85H17.3004V82.928L17.5964 83.12C17.271 83.8187 16.815 84.3467 16.2284 84.704C15.647 85.0613 14.9377 85.24 14.1004 85.24ZM14.3164 84.048C14.8284 84.048 15.271 83.9573 15.6444 83.776C16.023 83.5893 16.327 83.3467 16.5564 83.048C16.7857 82.744 16.935 82.4133 17.0044 82.056C17.0844 81.7893 17.127 81.4933 17.1324 81.168C17.143 80.8373 17.1484 80.584 17.1484 80.408L17.6444 80.624C17.1804 80.688 16.7244 80.7493 16.2764 80.808C15.8284 80.8667 15.4044 80.9307 15.0044 81C14.6044 81.064 14.2444 81.1413 13.9244 81.232C13.6897 81.3067 13.4684 81.4027 13.2604 81.52C13.0577 81.6373 12.8924 81.7893 12.7644 81.976C12.6417 82.1573 12.5804 82.384 12.5804 82.656C12.5804 82.8907 12.639 83.1147 12.7564 83.328C12.879 83.5413 13.0657 83.7147 13.3164 83.848C13.5724 83.9813 13.9057 84.048 14.3164 84.048ZM21.2844 74.832V73.36H22.7084V74.832H21.2844ZM21.2844 85V76.36H22.7084V85H21.2844ZM31.7408 85V80.672C31.7408 80.2613 31.7034 79.8667 31.6288 79.488C31.5594 79.1093 31.4341 78.7707 31.2528 78.472C31.0768 78.168 30.8368 77.928 30.5328 77.752C30.2341 77.576 29.8554 77.488 29.3968 77.488C29.0394 77.488 28.7141 77.5493 28.4208 77.672C28.1328 77.7893 27.8848 77.9707 27.6768 78.216C27.4688 78.4613 27.3061 78.7707 27.1888 79.144C27.0768 79.512 27.0208 79.9467 27.0208 80.448L26.0848 80.16C26.0848 79.3227 26.2341 78.6053 26.5328 78.008C26.8368 77.4053 27.2608 76.944 27.8048 76.624C28.3541 76.2987 28.9994 76.136 29.7408 76.136C30.3008 76.136 30.7781 76.224 31.1728 76.4C31.5674 76.576 31.8954 76.8107 32.1568 77.104C32.4181 77.392 32.6234 77.7173 32.7728 78.08C32.9221 78.4373 33.0261 78.8027 33.0848 79.176C33.1488 79.544 33.1808 79.8933 33.1808 80.224V85H31.7408ZM25.5808 85V76.36H26.8608V78.672H27.0208V85H25.5808ZM41.8926 85V80.672C41.8926 80.2613 41.8553 79.8667 41.7806 79.488C41.7113 79.1093 41.586 78.7707 41.4046 78.472C41.2286 78.168 40.9886 77.928 40.6846 77.752C40.386 77.576 40.0073 77.488 39.5486 77.488C39.1913 77.488 38.866 77.5493 38.5726 77.672C38.2846 77.7893 38.0366 77.9707 37.8286 78.216C37.6206 78.4613 37.458 78.7707 37.3406 79.144C37.2286 79.512 37.1726 79.9467 37.1726 80.448L36.2366 80.16C36.2366 79.3227 36.386 78.6053 36.6846 78.008C36.9886 77.4053 37.4126 76.944 37.9566 76.624C38.506 76.2987 39.1513 76.136 39.8926 76.136C40.4526 76.136 40.93 76.224 41.3246 76.4C41.7193 76.576 42.0473 76.8107 42.3086 77.104C42.57 77.392 42.7753 77.7173 42.9246 78.08C43.074 78.4373 43.178 78.8027 43.2366 79.176C43.3006 79.544 43.3326 79.8933 43.3326 80.224V85H41.8926ZM35.7326 85V76.36H37.0126V78.672H37.1726V85H35.7326ZM46.78 88.84L48.452 84.296L48.476 85.64L44.7 76.36H46.196L49.156 83.824H48.644L51.42 76.36H52.868L48.164 88.84H46.78ZM56.8129 85.24C56.1675 85.24 55.6262 85.1227 55.1889 84.888C54.7569 84.648 54.4289 84.3333 54.2049 83.944C53.9862 83.5547 53.8769 83.128 53.8769 82.664C53.8769 82.2107 53.9622 81.8187 54.1329 81.488C54.3089 81.152 54.5542 80.8747 54.8689 80.656C55.1835 80.432 55.5595 80.256 55.9969 80.128C56.4075 80.016 56.8662 79.92 57.3729 79.84C57.8849 79.7547 58.4022 79.6773 58.9249 79.608C59.4475 79.5387 59.9355 79.472 60.3889 79.408L59.8769 79.704C59.8929 78.936 59.7382 78.368 59.4129 78C59.0929 77.632 58.5382 77.448 57.7489 77.448C57.2262 77.448 56.7675 77.568 56.3729 77.808C55.9835 78.0427 55.7089 78.4267 55.5489 78.96L54.1969 78.552C54.4049 77.7947 54.8075 77.2 55.4049 76.768C56.0022 76.336 56.7889 76.12 57.7649 76.12C58.5489 76.12 59.2209 76.2613 59.7809 76.544C60.3462 76.8213 60.7515 77.2427 60.9969 77.808C61.1195 78.0747 61.1969 78.3653 61.2289 78.68C61.2609 78.9893 61.2769 79.3147 61.2769 79.656V85H60.0129V82.928L60.3089 83.12C59.9835 83.8187 59.5275 84.3467 58.9409 84.704C58.3595 85.0613 57.6502 85.24 56.8129 85.24ZM57.0289 84.048C57.5409 84.048 57.9835 83.9573 58.3569 83.776C58.7355 83.5893 59.0395 83.3467 59.2689 83.048C59.4982 82.744 59.6475 82.4133 59.7169 82.056C59.7969 81.7893 59.8395 81.4933 59.8449 81.168C59.8555 80.8373 59.8609 80.584 59.8609 80.408L60.3569 80.624C59.8929 80.688 59.4369 80.7493 58.9889 80.808C58.5409 80.8667 58.1169 80.9307 57.7169 81C57.3169 81.064 56.9569 81.1413 56.6369 81.232C56.4022 81.3067 56.1809 81.4027 55.9729 81.52C55.7702 81.6373 55.6049 81.7893 55.4769 81.976C55.3542 82.1573 55.2929 82.384 55.2929 82.656C55.2929 82.8907 55.3515 83.1147 55.4689 83.328C55.5915 83.5413 55.7782 83.7147 56.0289 83.848C56.2849 83.9813 56.6182 84.048 57.0289 84.048Z" fill="#767676"/>
</svg>
