<svg width="2601" height="499" viewBox="0 0 2601 499" fill="none" xmlns="http://www.w3.org/2000/svg">
<path d="M399.9 0.49997V109.7H268.3V494H131.1V109.7H0.900001V0.49997H399.9ZM428.261 297.3C428.261 256.7 435.494 221.233 449.961 190.9C464.894 160.567 484.961 137.233 510.161 120.9C535.828 104.567 564.294 96.4 595.561 96.4C622.628 96.4 645.961 101.767 665.561 112.5C685.161 123.233 700.328 137.7 711.061 155.9V101.3H848.261V494H711.061V439.4C700.328 457.6 684.928 472.067 664.861 482.8C645.261 493.533 622.161 498.9 595.561 498.9C564.294 498.9 535.828 490.733 510.161 474.4C484.961 458.067 464.894 434.733 449.961 404.4C435.494 373.6 428.261 337.9 428.261 297.3ZM711.061 297.3C711.061 272.1 704.061 252.267 690.061 237.8C676.528 223.333 659.728 216.1 639.661 216.1C619.128 216.1 602.094 223.333 588.561 237.8C575.028 251.8 568.261 271.633 568.261 297.3C568.261 322.5 575.028 342.567 588.561 357.5C602.094 371.967 619.128 379.2 639.661 379.2C659.728 379.2 676.528 371.967 690.061 357.5C704.061 343.033 711.061 322.967 711.061 297.3ZM1093.74 498.9C1058.28 498.9 1026.54 493.067 998.542 481.4C971.009 469.267 949.076 452.933 932.742 432.4C916.876 411.4 908.009 387.833 906.142 361.7H1039.14C1041.01 374.3 1046.84 384.1 1056.64 391.1C1066.44 398.1 1078.58 401.6 1093.04 401.6C1104.24 401.6 1113.11 399.267 1119.64 394.6C1126.18 389.933 1129.44 383.867 1129.44 376.4C1129.44 366.6 1124.08 359.367 1113.34 354.7C1102.61 350.033 1084.88 344.9 1060.14 339.3C1032.14 333.7 1008.81 327.4 990.142 320.4C971.476 313.4 955.142 301.967 941.142 286.1C927.609 270.233 920.842 248.767 920.842 221.7C920.842 198.367 927.142 177.367 939.742 158.7C952.342 139.567 970.776 124.4 995.042 113.2C1019.78 102 1049.41 96.4 1083.94 96.4C1135.28 96.4 1175.64 109 1205.04 134.2C1234.44 159.4 1251.48 192.533 1256.14 233.6H1132.24C1129.91 221 1124.31 211.433 1115.44 204.9C1107.04 197.9 1095.61 194.4 1081.14 194.4C1069.94 194.4 1061.31 196.5 1055.24 200.7C1049.64 204.9 1046.84 210.733 1046.84 218.2C1046.84 227.533 1052.21 234.767 1062.94 239.9C1073.68 244.567 1090.94 249.467 1114.74 254.6C1143.21 260.667 1166.78 267.433 1185.44 274.9C1204.58 282.367 1221.14 294.5 1235.14 311.3C1249.61 327.633 1256.84 350.033 1256.84 378.5C1256.84 401.367 1250.08 421.9 1236.54 440.1C1223.48 458.3 1204.58 472.767 1179.84 483.5C1155.58 493.767 1126.88 498.9 1093.74 498.9Z" fill="white"/>
<path d="M1639.29 240.6C1668.23 247.133 1691.09 261.6 1707.89 284C1725.16 305.933 1733.79 331.133 1733.79 359.6C1733.79 401.6 1719.33 434.5 1690.39 458.3C1661.46 482.1 1620.86 494 1568.59 494H1324.29V0.49997H1560.89C1611.29 0.49997 1650.73 11.7 1679.19 34.1C1708.13 56.5 1722.59 88 1722.59 128.6C1722.59 157.533 1714.89 181.8 1699.49 201.4C1684.56 220.533 1664.49 233.6 1639.29 240.6ZM1461.49 196.5H1530.79C1565.33 196.5 1582.59 182.267 1582.59 153.8C1582.59 124.4 1565.33 109.7 1530.79 109.7H1461.49V196.5ZM1541.29 383.4C1575.83 383.4 1593.09 368.933 1593.09 340C1593.09 325.067 1588.43 313.633 1579.09 305.7C1570.23 297.767 1557.39 293.8 1540.59 293.8H1461.49V383.4H1541.29ZM2169.12 293.1C2169.12 303.833 2168.42 314.567 2167.02 325.3H1907.32C1908.72 346.767 1914.56 362.867 1924.82 373.6C1935.56 383.867 1949.09 389 1965.42 389C1988.29 389 2004.62 378.733 2014.42 358.2H2160.72C2154.66 385.267 2142.76 409.533 2125.02 431C2107.76 452 2085.82 468.567 2059.22 480.7C2032.62 492.833 2003.22 498.9 1971.02 498.9C1932.29 498.9 1897.76 490.733 1867.42 474.4C1837.56 458.067 1813.99 434.733 1796.72 404.4C1779.92 374.067 1771.52 338.367 1771.52 297.3C1771.52 256.233 1779.92 220.767 1796.72 190.9C1813.52 160.567 1836.86 137.233 1866.72 120.9C1897.06 104.567 1931.82 96.4 1971.02 96.4C2009.76 96.4 2044.06 104.333 2073.92 120.2C2103.79 136.067 2127.12 158.933 2143.92 188.8C2160.72 218.2 2169.12 252.967 2169.12 293.1ZM2029.12 258.8C2029.12 242 2023.52 228.933 2012.32 219.6C2001.12 209.8 1987.12 204.9 1970.32 204.9C1953.52 204.9 1939.76 209.567 1929.02 218.9C1918.29 227.767 1911.29 241.067 1908.02 258.8H2029.12ZM2600.47 293.1C2600.47 303.833 2599.77 314.567 2598.37 325.3H2338.67C2340.07 346.767 2345.9 362.867 2356.17 373.6C2366.9 383.867 2380.44 389 2396.77 389C2419.64 389 2435.97 378.733 2445.77 358.2H2592.07C2586 385.267 2574.1 409.533 2556.37 431C2539.1 452 2517.17 468.567 2490.57 480.7C2463.97 492.833 2434.57 498.9 2402.37 498.9C2363.64 498.9 2329.1 490.733 2298.77 474.4C2268.9 458.067 2245.34 434.733 2228.07 404.4C2211.27 374.067 2202.87 338.367 2202.87 297.3C2202.87 256.233 2211.27 220.767 2228.07 190.9C2244.87 160.567 2268.2 137.233 2298.07 120.9C2328.4 104.567 2363.17 96.4 2402.37 96.4C2441.1 96.4 2475.4 104.333 2505.27 120.2C2535.14 136.067 2558.47 158.933 2575.27 188.8C2592.07 218.2 2600.47 252.967 2600.47 293.1ZM2460.47 258.8C2460.47 242 2454.87 228.933 2443.67 219.6C2432.47 209.8 2418.47 204.9 2401.67 204.9C2384.87 204.9 2371.1 209.567 2360.37 218.9C2349.64 227.767 2342.64 241.067 2339.37 258.8H2460.47Z" fill="#FFA011"/>
</svg>
