<svg width="98" height="92" viewBox="0 0 98 92" fill="none" xmlns="http://www.w3.org/2000/svg">
<rect width="97" height="92" transform="translate(0.571533)" fill="white"/>
<circle cx="49.0715" cy="32" r="32" fill="#A12582"/>
<path d="M61.4566 32.2296L57.0724 35.2526V41.5501L61.4556 44.5696C62.3056 45.1536 63.4716 44.5581 63.4716 43.5381V33.2611C63.4726 32.2451 62.3091 31.6451 61.4566 32.2296V32.2296ZM53.0823 33.6001H35.4717C35.2595 33.6001 35.056 33.6844 34.906 33.8344C34.7559 33.9844 34.6716 34.1879 34.6716 34.4001V36.0001C34.6716 36.2122 34.7559 36.4157 34.906 36.5658C35.056 36.7158 35.2595 36.8001 35.4717 36.8001H37.8717V42.4101C37.8719 43.0439 38.1237 43.6517 38.5719 44.0999C39.0201 44.5481 39.628 44.7999 40.2618 44.8001H53.0823C53.7161 44.7999 54.324 44.5481 54.7722 44.0999C55.2204 43.6517 55.4722 43.0439 55.4724 42.4101V35.9901C55.4722 35.3562 55.2204 34.7484 54.7722 34.3002C54.324 33.8521 53.7161 33.6002 53.0823 33.6001ZM52.2722 19.2001C49.8437 19.2001 47.7566 20.5686 46.672 22.5616C45.5875 20.5686 43.5004 19.2001 41.0719 19.2001C39.3744 19.2001 37.7465 19.8744 36.5462 21.0746C35.3459 22.2748 34.6716 23.9027 34.6716 25.6001C34.6716 27.2975 35.3459 28.9253 36.5462 30.1256C37.7465 31.3258 39.3744 32.0001 41.0719 32.0001H52.2722C53.9697 32.0001 55.5976 31.3258 56.7979 30.1256C57.9982 28.9253 58.6725 27.2975 58.6725 25.6001C58.6725 23.9027 57.9982 22.2748 56.7979 21.0746C55.5976 19.8744 53.9697 19.2001 52.2722 19.2001V19.2001ZM41.0719 28.8001C40.4389 28.8001 39.8202 28.6124 39.294 28.2608C38.7677 27.9092 38.3575 27.4094 38.1153 26.8247C37.8731 26.2399 37.8098 25.5965 37.9332 24.9758C38.0567 24.355 38.3615 23.7849 38.809 23.3373C39.2566 22.8898 39.8268 22.585 40.4475 22.4616C41.0683 22.3381 41.7117 22.4015 42.2965 22.6437C42.8812 22.8859 43.381 23.296 43.7326 23.8222C44.0843 24.3485 44.272 24.9672 44.272 25.6001C44.271 26.4485 43.9336 27.2619 43.3337 27.8618C42.7337 28.4617 41.9203 28.7991 41.0719 28.8001ZM52.2722 28.8001C51.6393 28.8001 51.0206 28.6124 50.4944 28.2608C49.9681 27.9092 49.5579 27.4094 49.3157 26.8247C49.0735 26.2399 49.0101 25.5965 49.1336 24.9758C49.2571 24.355 49.5619 23.7849 50.0094 23.3373C50.457 22.8898 51.0272 22.585 51.6479 22.4616C52.2687 22.3381 52.9121 22.4015 53.4969 22.6437C54.0816 22.8859 54.5814 23.296 54.933 23.8222C55.2847 24.3485 55.4724 24.9672 55.4724 25.6001C55.4714 26.4485 55.134 27.2619 54.534 27.8618C53.9341 28.4617 53.1207 28.7991 52.2722 28.8001Z" fill="white"/>
<path d="M1.88528 85H3.30928V80.744H6.43728C6.54395 80.744 6.67462 80.7387 6.82928 80.728C6.98395 80.7173 7.13595 80.7013 7.28528 80.68C8.21328 80.536 8.91995 80.136 9.40528 79.48C9.89062 78.8187 10.1333 78.0293 10.1333 77.112C10.1333 76.1947 9.89062 75.408 9.40528 74.752C8.92528 74.0907 8.21862 73.688 7.28528 73.544C7.13595 73.5173 6.98395 73.5013 6.82928 73.496C6.67995 73.4853 6.54928 73.48 6.43728 73.48H1.88528V85ZM3.30928 79.392V74.832H6.38928C6.49062 74.832 6.60528 74.8373 6.73328 74.848C6.86662 74.8587 6.99195 74.8773 7.10928 74.904C7.66395 75.0267 8.06395 75.3067 8.30928 75.744C8.55462 76.176 8.67728 76.632 8.67728 77.112C8.67728 77.592 8.55462 78.0507 8.30928 78.488C8.06395 78.92 7.66395 79.1973 7.10928 79.32C6.99195 79.3467 6.86662 79.3653 6.73328 79.376C6.60528 79.3867 6.49062 79.392 6.38928 79.392H3.30928ZM15.8749 85.24C16.7122 85.24 17.4669 85.032 18.1389 84.616C18.8109 84.1947 19.3176 83.6027 19.6589 82.84L18.2909 82.368C17.7949 83.3813 16.9682 83.888 15.8109 83.888C15.0162 83.888 14.3922 83.6453 13.9389 83.16C13.4909 82.6693 13.2376 81.976 13.1789 81.08H19.8029C19.8456 80.056 19.7122 79.1733 19.4029 78.432C19.0989 77.6907 18.6402 77.12 18.0269 76.72C17.4189 76.32 16.6802 76.12 15.8109 76.12C14.9736 76.12 14.2429 76.3093 13.6189 76.688C12.9949 77.0613 12.5096 77.5947 12.1629 78.288C11.8216 78.976 11.6509 79.792 11.6509 80.736C11.6509 81.6373 11.8242 82.4267 12.1709 83.104C12.5229 83.776 13.0162 84.3013 13.6509 84.68C14.2856 85.0533 15.0269 85.24 15.8749 85.24ZM15.8589 77.4C17.3256 77.4 18.1469 78.2453 18.3229 79.936H13.2029C13.3042 79.1147 13.5789 78.488 14.0269 78.056C14.4749 77.6187 15.0856 77.4 15.8589 77.4ZM22.064 85H23.496V80.664C23.496 80.152 23.5654 79.6587 23.704 79.184C23.8427 78.7093 24.1227 78.3227 24.544 78.024C24.8427 77.8053 25.1707 77.6773 25.528 77.64C25.8907 77.6027 26.2214 77.6213 26.52 77.696V76.36C26.136 76.2747 25.7147 76.2747 25.256 76.36C24.7974 76.4453 24.4027 76.6213 24.072 76.888C23.784 77.0907 23.5387 77.3707 23.336 77.728V76.36H22.064V85ZM33.3368 85V83.776C32.7448 83.8667 32.2381 83.8827 31.8168 83.824C31.4008 83.7653 31.0968 83.5653 30.9048 83.224C30.8034 83.0427 30.7474 82.8293 30.7368 82.584C30.7314 82.3333 30.7288 82.0293 30.7288 81.672V77.536H33.3368V76.36H30.7288V73.96H29.3048V76.36H27.5528V77.536H29.3048V81.736C29.3048 82.184 29.3101 82.584 29.3208 82.936C29.3368 83.2827 29.4301 83.624 29.6008 83.96C29.8034 84.3493 30.0994 84.6373 30.4888 84.824C30.8781 85.0053 31.3208 85.104 31.8168 85.12C32.3181 85.1413 32.8248 85.1013 33.3368 85ZM38.8509 85.224C40.1096 85.224 41.0696 84.7787 41.7309 83.888V85H43.0029V76.36H41.5709V80.912C41.5709 81.9093 41.3522 82.6533 40.9149 83.144C40.4829 83.6293 39.9096 83.872 39.1949 83.872C38.5869 83.872 38.1122 83.72 37.7709 83.416C37.4349 83.112 37.1976 82.7173 37.0589 82.232C36.9202 81.7413 36.8509 81.2267 36.8509 80.688V76.36H35.4109V81.136C35.4109 81.5467 35.4589 81.9893 35.5549 82.464C35.6562 82.9333 35.8322 83.3787 36.0829 83.8C36.3389 84.216 36.6909 84.5573 37.1389 84.824C37.5869 85.0907 38.1576 85.224 38.8509 85.224ZM45.7148 85H47.1548V80.448C47.1548 79.4453 47.3708 78.7013 47.8028 78.216C48.2401 77.7307 48.8161 77.488 49.5308 77.488C50.1388 77.488 50.6135 77.64 50.9548 77.944C51.2961 78.248 51.5335 78.6427 51.6668 79.128C51.8055 79.6133 51.8748 80.128 51.8748 80.672V85H53.3148V80.224C53.3148 79.8133 53.2641 79.3733 53.1628 78.904C53.0668 78.4293 52.8908 77.984 52.6348 77.568C52.3841 77.1467 52.0348 76.8027 51.5868 76.536C51.1441 76.2693 50.5735 76.136 49.8748 76.136C48.6161 76.136 47.6561 76.5813 46.9948 77.472V76.36H45.7148V85ZM56.3387 74.832H57.7627V73.36H56.3387V74.832ZM54.5947 88.84H55.5947C57.04 88.84 57.7627 88.1147 57.7627 86.664V76.36H56.3387V86.176C56.3387 86.6293 56.2293 86.96 56.0107 87.168C55.792 87.376 55.4747 87.48 55.0587 87.48H54.5947V88.84ZM63.8378 85.224C65.0964 85.224 66.0564 84.7787 66.7178 83.888V85H67.9898V76.36H66.5578V80.912C66.5578 81.9093 66.3391 82.6533 65.9018 83.144C65.4698 83.6293 64.8964 83.872 64.1818 83.872C63.5738 83.872 63.0991 83.72 62.7578 83.416C62.4218 83.112 62.1844 82.7173 62.0458 82.232C61.9071 81.7413 61.8378 81.2267 61.8378 80.688V76.36H60.3978V81.136C60.3978 81.5467 60.4458 81.9893 60.5418 82.464C60.6431 82.9333 60.8191 83.3787 61.0698 83.8C61.3258 84.216 61.6778 84.5573 62.1258 84.824C62.5738 85.0907 63.1444 85.224 63.8378 85.224ZM70.7017 85H72.1497V80.84L76.0777 85H78.0697L73.8057 80.68L77.6217 76.36H75.7737L72.1497 80.52V73.48H70.7097L70.7017 85ZM81.8019 85.24C83.2419 85.24 84.3086 84.712 85.0019 83.656V85H86.2659V79.656C86.2659 79.3147 86.2499 78.9893 86.2179 78.68C86.1859 78.3653 86.1086 78.0747 85.9859 77.808C85.7406 77.2427 85.3352 76.8213 84.7699 76.544C84.2046 76.2613 83.5326 76.12 82.7539 76.12C81.7779 76.12 80.9886 76.336 80.3859 76.768C79.7886 77.2 79.3886 77.7947 79.1859 78.552L80.5379 78.96C80.6926 78.432 80.9672 78.048 81.3619 77.808C81.7566 77.568 82.2152 77.448 82.7379 77.448C83.4846 77.448 84.0206 77.616 84.3459 77.952C84.6766 78.2827 84.8499 78.792 84.8659 79.48C84.2259 79.5707 83.5539 79.6667 82.8499 79.768C82.1512 79.864 81.5299 79.984 80.9859 80.128C80.3299 80.32 79.8126 80.6213 79.4339 81.032C79.0552 81.4373 78.8659 81.9813 78.8659 82.664C78.8659 83.128 78.9752 83.5547 79.1939 83.944C79.4179 84.3333 79.7459 84.648 80.1779 84.888C80.6152 85.1227 81.1566 85.24 81.8019 85.24ZM82.0179 84.048C81.4046 84.048 80.9619 83.9067 80.6899 83.624C80.4179 83.336 80.2819 83.0133 80.2819 82.656C80.2819 82.2507 80.4152 81.9413 80.6819 81.728C80.9539 81.5093 81.2686 81.344 81.6259 81.232C82.0472 81.1147 82.5379 81.016 83.0979 80.936C83.6579 80.856 84.2419 80.776 84.8499 80.696C84.8499 80.8933 84.8392 81.1173 84.8179 81.368C84.8019 81.6187 84.7646 81.848 84.7059 82.056C84.6046 82.5893 84.3219 83.056 83.8579 83.456C83.3992 83.8507 82.7859 84.048 82.0179 84.048ZM88.8179 85H90.2579V80.448C90.2579 79.4453 90.4739 78.7013 90.9059 78.216C91.3432 77.7307 91.9192 77.488 92.6339 77.488C93.2419 77.488 93.7166 77.64 94.0579 77.944C94.3992 78.248 94.6366 78.6427 94.7699 79.128C94.9086 79.6133 94.9779 80.128 94.9779 80.672V85H96.4179V80.224C96.4179 79.8133 96.3672 79.3733 96.2659 78.904C96.1699 78.4293 95.9939 77.984 95.7379 77.568C95.4872 77.1467 95.1379 76.8027 94.6899 76.536C94.2472 76.2693 93.6766 76.136 92.9779 76.136C91.7192 76.136 90.7592 76.5813 90.0979 77.472V76.36H88.8179V85Z" fill="#767676"/>
</svg>
